G04 (created by PCBNEW (22-Jun-2014 BZR 4027)-stable) date Wed 30 Jul 2014 00:04:27 NZST*
%MOIN*%
G04 Gerber Fmt 3.4, Leading zero omitted, Abs format*
%FSLAX34Y34*%
G01*
G70*
G90*
G04 APERTURE LIST*
%ADD10C,0.00590551*%
%ADD11R,0.0551X0.0236*%
%ADD12R,0.0236X0.0551*%
%ADD13R,0.08X0.06*%
%ADD14R,0.06X0.08*%
%ADD15R,0.062X0.09*%
%ADD16O,0.062X0.09*%
%ADD17R,0.08X0.08*%
%ADD18C,0.08*%
%ADD19O,0.08X0.08*%
%ADD20R,0.0315X0.0394*%
%ADD21R,0.055X0.055*%
%ADD22C,0.055*%
%ADD23C,0.06*%
%ADD24R,0.0709X0.0629*%
%ADD25C,0.01*%
G04 APERTURE END LIST*
G54D10*
G54D11*
X86950Y-63750D03*
X89050Y-63750D03*
X86950Y-63250D03*
X86950Y-62750D03*
X86950Y-62250D03*
X89050Y-63250D03*
X89050Y-62750D03*
X89050Y-62250D03*
G54D12*
X88500Y-43450D03*
X88500Y-45550D03*
X89000Y-43450D03*
X89500Y-43450D03*
X90000Y-43450D03*
X89000Y-45550D03*
X89500Y-45550D03*
X90000Y-45550D03*
G54D11*
X77300Y-59250D03*
X75200Y-59250D03*
X77300Y-59750D03*
X77300Y-60250D03*
X77300Y-60750D03*
X75200Y-59750D03*
X75200Y-60250D03*
X75200Y-60750D03*
G54D13*
X95500Y-63900D03*
X95500Y-62600D03*
X78500Y-59100D03*
X78500Y-60400D03*
G54D14*
X89900Y-47000D03*
X88600Y-47000D03*
X89900Y-48000D03*
X88600Y-48000D03*
G54D13*
X94500Y-63900D03*
X94500Y-62600D03*
X85250Y-63650D03*
X85250Y-62350D03*
X84250Y-63650D03*
X84250Y-62350D03*
G54D15*
X74500Y-57000D03*
G54D16*
X75500Y-57000D03*
X76500Y-57000D03*
X77500Y-57000D03*
X78500Y-57000D03*
X79500Y-57000D03*
X80500Y-57000D03*
X81500Y-57000D03*
X82500Y-57000D03*
X83500Y-57000D03*
X84500Y-57000D03*
X85500Y-57000D03*
X86500Y-57000D03*
X87500Y-57000D03*
X88500Y-57000D03*
X88500Y-51000D03*
X87500Y-51000D03*
X86500Y-51000D03*
X85500Y-51000D03*
X84500Y-51000D03*
X83500Y-51000D03*
X82500Y-51000D03*
X81500Y-51000D03*
X80500Y-51000D03*
X79500Y-51000D03*
X78500Y-51000D03*
X77500Y-51000D03*
X76500Y-51000D03*
X75500Y-51000D03*
X74500Y-51000D03*
G54D17*
X84500Y-46500D03*
G54D18*
X85500Y-46500D03*
G54D19*
X85500Y-43500D03*
X84500Y-43500D03*
G54D17*
X81750Y-46500D03*
G54D18*
X82750Y-46500D03*
G54D19*
X82750Y-43500D03*
X81750Y-43500D03*
G54D17*
X79000Y-46500D03*
G54D18*
X80000Y-46500D03*
G54D19*
X80000Y-43500D03*
X79000Y-43500D03*
G54D20*
X77000Y-43817D03*
X77375Y-44683D03*
X76625Y-44683D03*
X73500Y-60433D03*
X73125Y-59567D03*
X73875Y-59567D03*
G54D13*
X80500Y-49650D03*
X80500Y-48350D03*
X82000Y-49650D03*
X82000Y-48350D03*
X83500Y-49650D03*
X83500Y-48350D03*
X77500Y-46900D03*
X77500Y-45600D03*
G54D14*
X83150Y-61000D03*
X81850Y-61000D03*
G54D13*
X75250Y-43350D03*
X75250Y-44650D03*
X77000Y-42650D03*
X77000Y-41350D03*
X75500Y-49650D03*
X75500Y-48350D03*
X74000Y-49650D03*
X74000Y-48350D03*
X90500Y-63900D03*
X90500Y-62600D03*
X91750Y-64650D03*
X91750Y-63350D03*
G54D14*
X83650Y-58250D03*
X82350Y-58250D03*
G54D21*
X87750Y-41750D03*
G54D22*
X88750Y-41750D03*
X89750Y-41750D03*
X90750Y-41750D03*
G54D21*
X95500Y-55750D03*
G54D22*
X95500Y-56750D03*
X95500Y-57750D03*
X95500Y-58750D03*
G54D21*
X76250Y-65000D03*
G54D22*
X76250Y-64000D03*
X76250Y-63000D03*
X76250Y-62000D03*
G54D21*
X93250Y-65000D03*
G54D22*
X93250Y-64000D03*
X93250Y-63000D03*
X93250Y-62000D03*
G54D21*
X83500Y-59500D03*
G54D22*
X82500Y-59500D03*
X81500Y-59500D03*
X80500Y-59500D03*
G54D21*
X79000Y-41750D03*
G54D22*
X80000Y-41750D03*
G54D21*
X72000Y-59500D03*
G54D22*
X72000Y-60500D03*
G54D21*
X81750Y-41750D03*
G54D22*
X82750Y-41750D03*
G54D21*
X84500Y-41750D03*
G54D22*
X85500Y-41750D03*
G54D23*
X93500Y-54250D03*
X93500Y-58750D03*
X91750Y-54250D03*
X91750Y-58750D03*
X91750Y-48750D03*
X91750Y-53250D03*
X93500Y-48750D03*
X93500Y-53250D03*
G54D24*
X74000Y-47309D03*
X74000Y-46191D03*
X75500Y-47309D03*
X75500Y-46191D03*
G54D25*
X88600Y-48000D02*
X88600Y-47000D01*
X88600Y-47000D02*
X88600Y-46405D01*
X88500Y-46305D02*
X88500Y-45550D01*
X88600Y-46405D02*
X88500Y-46305D01*
X86379Y-63650D02*
X86479Y-63750D01*
X85250Y-63650D02*
X86379Y-63650D01*
X86950Y-63750D02*
X86479Y-63750D01*
X84250Y-58250D02*
X85500Y-57000D01*
X83650Y-58250D02*
X84250Y-58250D01*
X88500Y-45550D02*
X88500Y-45314D01*
X88500Y-45314D02*
X88500Y-45079D01*
X77494Y-41844D02*
X77000Y-41844D01*
X78555Y-42905D02*
X77494Y-41844D01*
X86090Y-42905D02*
X78555Y-42905D01*
X88500Y-45314D02*
X86090Y-42905D01*
X77000Y-41350D02*
X77000Y-41844D01*
X77300Y-59250D02*
X77770Y-59250D01*
X85250Y-63650D02*
X84250Y-63650D01*
X83150Y-61000D02*
X83150Y-60405D01*
X84250Y-63650D02*
X83655Y-63650D01*
X83515Y-63650D02*
X83655Y-63650D01*
X81000Y-61134D02*
X83515Y-63650D01*
X81000Y-59307D02*
X81000Y-61134D01*
X80699Y-59006D02*
X81000Y-59307D01*
X80312Y-59006D02*
X80699Y-59006D01*
X79724Y-59594D02*
X80312Y-59006D01*
X78006Y-59594D02*
X79724Y-59594D01*
X77770Y-59358D02*
X78006Y-59594D01*
X77770Y-59250D02*
X77770Y-59358D01*
X86950Y-63750D02*
X87420Y-63750D01*
X86162Y-56337D02*
X89013Y-56337D01*
X85500Y-57000D02*
X86162Y-56337D01*
X89013Y-56285D02*
X89013Y-56337D01*
X91548Y-53750D02*
X89013Y-56285D01*
X93702Y-53750D02*
X91548Y-53750D01*
X94004Y-53447D02*
X93702Y-53750D01*
X94004Y-51738D02*
X94004Y-53447D01*
X91129Y-48863D02*
X94004Y-51738D01*
X91129Y-45980D02*
X91129Y-48863D01*
X90228Y-45079D02*
X91129Y-45980D01*
X88500Y-45079D02*
X90228Y-45079D01*
X87420Y-63161D02*
X87420Y-63750D01*
X89013Y-61567D02*
X87420Y-63161D01*
X89013Y-56337D02*
X89013Y-61567D01*
X83500Y-60055D02*
X83150Y-60405D01*
X83500Y-59500D02*
X83500Y-60055D01*
X83650Y-58880D02*
X83650Y-58250D01*
X83500Y-59030D02*
X83650Y-58880D01*
X83500Y-59500D02*
X83500Y-59030D01*
X83500Y-51000D02*
X83500Y-49650D01*
X81789Y-50355D02*
X82000Y-50144D01*
X81500Y-50355D02*
X81789Y-50355D01*
X82000Y-49650D02*
X82000Y-50144D01*
X81500Y-51000D02*
X81500Y-50355D01*
X80500Y-51000D02*
X80500Y-49650D01*
X75250Y-44650D02*
X75250Y-45144D01*
X75250Y-46190D02*
X75250Y-45144D01*
X75250Y-46190D02*
X74000Y-46190D01*
X91750Y-58750D02*
X93500Y-58750D01*
X93500Y-58750D02*
X95500Y-58750D01*
X75250Y-44650D02*
X75844Y-44650D01*
X86950Y-62250D02*
X86479Y-62250D01*
X89900Y-48000D02*
X89900Y-47000D01*
X90000Y-46305D02*
X90000Y-45550D01*
X89900Y-46405D02*
X90000Y-46305D01*
X89900Y-47000D02*
X89900Y-46405D01*
X77905Y-60384D02*
X77770Y-60250D01*
X77905Y-60400D02*
X77905Y-60384D01*
X77300Y-60250D02*
X77770Y-60250D01*
X78500Y-60400D02*
X77905Y-60400D01*
X77770Y-60534D02*
X77905Y-60400D01*
X77770Y-60750D02*
X77770Y-60534D01*
X77300Y-60750D02*
X77770Y-60750D01*
X85944Y-62250D02*
X85844Y-62350D01*
X86479Y-62250D02*
X85944Y-62250D01*
X75250Y-46190D02*
X75500Y-46190D01*
X85547Y-62350D02*
X85844Y-62350D01*
X85547Y-62350D02*
X85250Y-62350D01*
X85250Y-62350D02*
X84250Y-62350D01*
X79600Y-60400D02*
X79094Y-60400D01*
X80500Y-59500D02*
X79600Y-60400D01*
X78500Y-60400D02*
X79094Y-60400D01*
X89900Y-50471D02*
X89900Y-48000D01*
X88721Y-51649D02*
X89900Y-50471D01*
X86149Y-51649D02*
X88721Y-51649D01*
X85500Y-51000D02*
X86149Y-51649D01*
X75877Y-44682D02*
X75844Y-44650D01*
X76625Y-44682D02*
X75877Y-44682D01*
X76625Y-44682D02*
X76977Y-44682D01*
X80506Y-45905D02*
X80000Y-46411D01*
X82238Y-45905D02*
X80506Y-45905D01*
X82750Y-46416D02*
X82238Y-45905D01*
X82750Y-46500D02*
X82750Y-46416D01*
X77877Y-44289D02*
X80000Y-46411D01*
X77107Y-44289D02*
X77877Y-44289D01*
X76977Y-44418D02*
X77107Y-44289D01*
X76977Y-44682D02*
X76977Y-44418D01*
X80000Y-46411D02*
X80000Y-46500D01*
X87500Y-62170D02*
X87420Y-62250D01*
X87500Y-57000D02*
X87500Y-62170D01*
X86950Y-62250D02*
X87420Y-62250D01*
X94500Y-62600D02*
X94500Y-62352D01*
X94657Y-62352D02*
X94905Y-62600D01*
X94500Y-62352D02*
X94657Y-62352D01*
X95500Y-62600D02*
X94905Y-62600D01*
X89050Y-62250D02*
X89520Y-62250D01*
X89770Y-62000D02*
X93250Y-62000D01*
X89520Y-62250D02*
X89770Y-62000D01*
X94147Y-62000D02*
X94500Y-62352D01*
X93250Y-62000D02*
X94147Y-62000D01*
X89000Y-45550D02*
X89000Y-46020D01*
X89094Y-49405D02*
X87500Y-51000D01*
X89094Y-46115D02*
X89094Y-49405D01*
X89000Y-46020D02*
X89094Y-46115D01*
X87750Y-42229D02*
X88500Y-42979D01*
X87750Y-41750D02*
X87750Y-42229D01*
X88500Y-43450D02*
X88500Y-42979D01*
X92850Y-62600D02*
X90500Y-62600D01*
X93250Y-63000D02*
X92850Y-62600D01*
X89755Y-62750D02*
X89905Y-62600D01*
X89050Y-62750D02*
X89755Y-62750D01*
X90500Y-62600D02*
X89905Y-62600D01*
X79739Y-47094D02*
X80500Y-47855D01*
X79000Y-47094D02*
X79739Y-47094D01*
X79000Y-46500D02*
X79000Y-47094D01*
X80500Y-48350D02*
X80500Y-47855D01*
X81750Y-47605D02*
X82000Y-47855D01*
X81750Y-46500D02*
X81750Y-47605D01*
X82000Y-48350D02*
X82000Y-47855D01*
X88500Y-51000D02*
X89004Y-51000D01*
X89500Y-45550D02*
X89500Y-46020D01*
X89339Y-50665D02*
X89004Y-51000D01*
X89339Y-46180D02*
X89339Y-50665D01*
X89500Y-46020D02*
X89339Y-46180D01*
X84260Y-47094D02*
X83500Y-47855D01*
X84500Y-47094D02*
X84260Y-47094D01*
X83500Y-48350D02*
X83500Y-47855D01*
X84500Y-46500D02*
X84500Y-47094D01*
X77000Y-42650D02*
X77000Y-43144D01*
X75250Y-43350D02*
X75844Y-43350D01*
X77000Y-43350D02*
X75844Y-43350D01*
X77000Y-43817D02*
X77000Y-43350D01*
X77000Y-43350D02*
X77000Y-43144D01*
X77000Y-42650D02*
X77000Y-42155D01*
X94646Y-56896D02*
X95500Y-57750D01*
X94646Y-49148D02*
X94646Y-56896D01*
X89962Y-44464D02*
X94646Y-49148D01*
X88456Y-44464D02*
X89962Y-44464D01*
X86212Y-42219D02*
X88456Y-44464D01*
X84140Y-42219D02*
X86212Y-42219D01*
X82776Y-40855D02*
X84140Y-42219D01*
X76513Y-40855D02*
X82776Y-40855D01*
X76405Y-40963D02*
X76513Y-40855D01*
X76405Y-41745D02*
X76405Y-40963D01*
X76814Y-42155D02*
X76405Y-41745D01*
X77000Y-42155D02*
X76814Y-42155D01*
X77469Y-45074D02*
X77500Y-45105D01*
X77375Y-45074D02*
X77469Y-45074D01*
X77500Y-45600D02*
X77500Y-45105D01*
X77375Y-44682D02*
X77375Y-45074D01*
X75500Y-47309D02*
X75500Y-48350D01*
X74000Y-47309D02*
X74000Y-48350D01*
X77500Y-51000D02*
X77500Y-46900D01*
X73995Y-50149D02*
X74000Y-50144D01*
X73995Y-51000D02*
X73995Y-50149D01*
X74500Y-51000D02*
X73995Y-51000D01*
X74000Y-49650D02*
X74000Y-50144D01*
X75500Y-51000D02*
X75500Y-49650D01*
X73125Y-59567D02*
X73875Y-59567D01*
X74546Y-59567D02*
X74729Y-59750D01*
X73875Y-59567D02*
X74546Y-59567D01*
X75200Y-59750D02*
X74729Y-59750D01*
X76829Y-58670D02*
X76829Y-59750D01*
X78500Y-57000D02*
X76829Y-58670D01*
X77300Y-59750D02*
X76829Y-59750D01*
X74654Y-60824D02*
X74729Y-60750D01*
X72324Y-60824D02*
X74654Y-60824D01*
X72000Y-60500D02*
X72324Y-60824D01*
X75200Y-60750D02*
X74729Y-60750D01*
X74650Y-59171D02*
X74729Y-59250D01*
X72798Y-59171D02*
X74650Y-59171D01*
X72469Y-59500D02*
X72798Y-59171D01*
X72000Y-59500D02*
X72469Y-59500D01*
X75200Y-59250D02*
X74729Y-59250D01*
X74546Y-60432D02*
X74729Y-60250D01*
X73500Y-60432D02*
X74546Y-60432D01*
X75200Y-60250D02*
X74729Y-60250D01*
X93250Y-65000D02*
X92780Y-65000D01*
X92430Y-64650D02*
X91750Y-64650D01*
X92780Y-65000D02*
X92430Y-64650D01*
X90900Y-64394D02*
X90500Y-64394D01*
X91155Y-64650D02*
X90900Y-64394D01*
X91750Y-64650D02*
X91155Y-64650D01*
X90500Y-63900D02*
X90500Y-64147D01*
X90500Y-64147D02*
X90500Y-64394D01*
X89917Y-64147D02*
X89520Y-63750D01*
X90500Y-64147D02*
X89917Y-64147D01*
X89050Y-63750D02*
X89520Y-63750D01*
X94325Y-64394D02*
X93719Y-65000D01*
X94500Y-64394D02*
X94325Y-64394D01*
X93250Y-65000D02*
X93719Y-65000D01*
X94500Y-63900D02*
X94500Y-64147D01*
X94500Y-64147D02*
X94500Y-64394D01*
X94657Y-64147D02*
X94905Y-63900D01*
X94500Y-64147D02*
X94657Y-64147D01*
X95500Y-63900D02*
X94905Y-63900D01*
X86319Y-63089D02*
X86479Y-63250D01*
X83344Y-63089D02*
X86319Y-63089D01*
X81850Y-61594D02*
X83344Y-63089D01*
X81850Y-61000D02*
X81850Y-61594D01*
X86950Y-63250D02*
X86479Y-63250D01*
X81850Y-61000D02*
X81850Y-60405D01*
X81500Y-60055D02*
X81500Y-59500D01*
X81850Y-60405D02*
X81500Y-60055D01*
X81500Y-59500D02*
X81500Y-57000D01*
X82500Y-58994D02*
X82500Y-59500D01*
X82350Y-58844D02*
X82500Y-58994D01*
X86384Y-62844D02*
X86479Y-62750D01*
X83747Y-62844D02*
X86384Y-62844D01*
X82500Y-61596D02*
X83747Y-62844D01*
X82500Y-59500D02*
X82500Y-61596D01*
X86950Y-62750D02*
X86479Y-62750D01*
X82350Y-58547D02*
X82350Y-58844D01*
X82350Y-58547D02*
X82350Y-58250D01*
X82489Y-57655D02*
X82500Y-57644D01*
X82350Y-57655D02*
X82489Y-57655D01*
X82500Y-57000D02*
X82500Y-57644D01*
X82350Y-58250D02*
X82350Y-57655D01*
X93500Y-48750D02*
X91750Y-48750D01*
X91750Y-63350D02*
X91750Y-63405D01*
X89675Y-63405D02*
X89520Y-63250D01*
X91750Y-63405D02*
X89675Y-63405D01*
X89050Y-63250D02*
X89520Y-63250D01*
X92655Y-63405D02*
X91750Y-63405D01*
X93250Y-64000D02*
X92655Y-63405D01*
X93500Y-53250D02*
X91750Y-53250D01*
X81250Y-53250D02*
X91750Y-53250D01*
X77500Y-57000D02*
X81250Y-53250D01*
X89500Y-42000D02*
X89500Y-43450D01*
X89750Y-41750D02*
X89500Y-42000D01*
X89000Y-42000D02*
X89000Y-43450D01*
X88750Y-41750D02*
X89000Y-42000D01*
X90750Y-42229D02*
X90000Y-42979D01*
X90750Y-41750D02*
X90750Y-42229D01*
X90000Y-43450D02*
X90000Y-42979D01*
M02*
