G04 (created by PCBNEW (22-Jun-2014 BZR 4027)-stable) date Wed 30 Jul 2014 01:02:49 NZST*
%MOIN*%
G04 Gerber Fmt 3.4, Leading zero omitted, Abs format*
%FSLAX34Y34*%
G01*
G70*
G90*
G04 APERTURE LIST*
%ADD10C,0.00590551*%
%ADD11R,0.0551X0.0236*%
%ADD12R,0.08X0.06*%
%ADD13R,0.062X0.09*%
%ADD14O,0.062X0.09*%
%ADD15R,0.08X0.08*%
%ADD16C,0.08*%
%ADD17O,0.08X0.08*%
%ADD18R,0.0394X0.0315*%
%ADD19R,0.06X0.08*%
%ADD20R,0.055X0.055*%
%ADD21C,0.055*%
%ADD22C,0.06*%
G04 APERTURE END LIST*
G54D10*
G54D11*
X82550Y-63750D03*
X80450Y-63750D03*
X82550Y-63250D03*
X82550Y-62750D03*
X82550Y-62250D03*
X80450Y-63250D03*
X80450Y-62750D03*
X80450Y-62250D03*
G54D12*
X75000Y-63650D03*
X75000Y-62350D03*
X74000Y-63650D03*
X74000Y-62350D03*
X84250Y-63650D03*
X84250Y-62350D03*
X85250Y-63650D03*
X85250Y-62350D03*
G54D13*
X74500Y-57000D03*
G54D14*
X75500Y-57000D03*
X76500Y-57000D03*
X77500Y-57000D03*
X78500Y-57000D03*
X79500Y-57000D03*
X80500Y-57000D03*
X81500Y-57000D03*
X82500Y-57000D03*
X83500Y-57000D03*
X84500Y-57000D03*
X85500Y-57000D03*
X86500Y-57000D03*
X87500Y-57000D03*
X88500Y-57000D03*
X88500Y-51000D03*
X87500Y-51000D03*
X86500Y-51000D03*
X85500Y-51000D03*
X84500Y-51000D03*
X83500Y-51000D03*
X82500Y-51000D03*
X81500Y-51000D03*
X80500Y-51000D03*
X79500Y-51000D03*
X78500Y-51000D03*
X77500Y-51000D03*
X76500Y-51000D03*
X75500Y-51000D03*
X74500Y-51000D03*
G54D15*
X84250Y-47750D03*
G54D16*
X85250Y-47750D03*
G54D17*
X85250Y-44750D03*
X84250Y-44750D03*
G54D15*
X81500Y-47750D03*
G54D16*
X82500Y-47750D03*
G54D17*
X82500Y-44750D03*
X81500Y-44750D03*
G54D15*
X78750Y-47750D03*
G54D16*
X79750Y-47750D03*
G54D17*
X79750Y-44750D03*
X78750Y-44750D03*
G54D18*
X80933Y-53750D03*
X80067Y-53375D03*
X80067Y-54125D03*
G54D19*
X77600Y-53500D03*
X78900Y-53500D03*
G54D12*
X91750Y-55600D03*
X91750Y-56900D03*
X84750Y-54100D03*
X84750Y-55400D03*
X86000Y-54100D03*
X86000Y-55400D03*
X79000Y-63900D03*
X79000Y-62600D03*
X77750Y-64650D03*
X77750Y-63350D03*
G54D20*
X87000Y-43000D03*
G54D21*
X88000Y-43000D03*
X89000Y-43000D03*
X90000Y-43000D03*
G54D20*
X95500Y-55750D03*
G54D21*
X95500Y-56750D03*
X95500Y-57750D03*
X95500Y-58750D03*
G54D20*
X76250Y-65000D03*
G54D21*
X76250Y-64000D03*
X76250Y-63000D03*
X76250Y-62000D03*
G54D20*
X93250Y-65000D03*
G54D21*
X93250Y-64000D03*
X93250Y-63000D03*
X93250Y-62000D03*
G54D20*
X84000Y-59500D03*
G54D21*
X83000Y-59500D03*
X82000Y-59500D03*
X81000Y-59500D03*
G54D20*
X78750Y-43000D03*
G54D21*
X79750Y-43000D03*
G54D20*
X73500Y-59500D03*
G54D21*
X73500Y-60500D03*
G54D20*
X81500Y-43000D03*
G54D21*
X82500Y-43000D03*
G54D20*
X84250Y-43000D03*
G54D21*
X85250Y-43000D03*
G54D22*
X93500Y-54250D03*
X93500Y-58750D03*
X91750Y-54250D03*
X91750Y-58750D03*
X91750Y-47250D03*
X91750Y-51750D03*
X93500Y-47250D03*
X93500Y-51750D03*
M02*
