G04 (created by PCBNEW (22-Jun-2014 BZR 4027)-stable) date Wed 30 Jul 2014 01:02:49 NZST*
%MOIN*%
G04 Gerber Fmt 3.4, Leading zero omitted, Abs format*
%FSLAX34Y34*%
G01*
G70*
G90*
G04 APERTURE LIST*
%ADD10C,0.00590551*%
%ADD11R,0.0551X0.0236*%
%ADD12R,0.0236X0.0551*%
%ADD13R,0.08X0.06*%
%ADD14R,0.06X0.08*%
%ADD15R,0.0315X0.0394*%
%ADD16R,0.0709X0.0629*%
G04 APERTURE END LIST*
G54D10*
G54D11*
X86950Y-63750D03*
X89050Y-63750D03*
X86950Y-63250D03*
X86950Y-62750D03*
X86950Y-62250D03*
X89050Y-63250D03*
X89050Y-62750D03*
X89050Y-62250D03*
G54D12*
X87250Y-44700D03*
X87250Y-46800D03*
X87750Y-44700D03*
X88250Y-44700D03*
X88750Y-44700D03*
X87750Y-46800D03*
X88250Y-46800D03*
X88750Y-46800D03*
G54D11*
X78550Y-59250D03*
X76450Y-59250D03*
X78550Y-59750D03*
X78550Y-60250D03*
X78550Y-60750D03*
X76450Y-59750D03*
X76450Y-60250D03*
X76450Y-60750D03*
G54D13*
X95500Y-63900D03*
X95500Y-62600D03*
X79500Y-59350D03*
X79500Y-60650D03*
G54D14*
X88650Y-48250D03*
X87350Y-48250D03*
X88650Y-49250D03*
X87350Y-49250D03*
G54D13*
X94500Y-63900D03*
X94500Y-62600D03*
X85250Y-63650D03*
X85250Y-62350D03*
X84250Y-63650D03*
X84250Y-62350D03*
G54D15*
X75000Y-60433D03*
X74625Y-59567D03*
X75375Y-59567D03*
G54D14*
X79650Y-49500D03*
X78350Y-49500D03*
X81350Y-49500D03*
X82650Y-49500D03*
X84100Y-49500D03*
X85400Y-49500D03*
X83150Y-61000D03*
X81850Y-61000D03*
G54D13*
X75500Y-49650D03*
X75500Y-48350D03*
X74000Y-49650D03*
X74000Y-48350D03*
X90500Y-63900D03*
X90500Y-62600D03*
X91750Y-64650D03*
X91750Y-63350D03*
G54D14*
X83650Y-58250D03*
X82350Y-58250D03*
G54D16*
X74000Y-47309D03*
X74000Y-46191D03*
X75500Y-47309D03*
X75500Y-46191D03*
M02*
