M48
;DRILL file {Pcbnew (22-Jun-2014 BZR 4027)-stable} date Wed 30 Jul 2014 13:10:02 NZST
;FORMAT={-:-/ absolute / inch / decimal}
FMAT,2
INCH,TZ
T1C0.025
T2C0.030
T3C0.032
T4C0.040
%
G90
G05
M72
T1
X7.8366Y-6.065
T2
X7.875Y-4.475
X7.875Y-4.775
X7.975Y-4.475
X7.975Y-4.775
X8.15Y-4.475
X8.15Y-4.775
X8.25Y-4.475
X8.25Y-4.775
X8.425Y-4.475
X8.425Y-4.775
X8.525Y-4.475
X8.525Y-4.775
T3
X7.35Y-5.95
X7.35Y-6.05
X7.45Y-5.1
X7.45Y-5.7
X7.55Y-5.1
X7.55Y-5.7
X7.625Y-6.2
X7.625Y-6.3
X7.625Y-6.4
X7.625Y-6.5
X7.65Y-5.1
X7.65Y-5.7
X7.75Y-5.1
X7.75Y-5.7
X7.85Y-5.1
X7.85Y-5.7
X7.875Y-4.3
X7.95Y-5.1
X7.95Y-5.7
X7.975Y-4.3
X8.05Y-5.1
X8.05Y-5.7
X8.1Y-5.95
X8.15Y-4.3
X8.15Y-5.1
X8.15Y-5.7
X8.2Y-5.95
X8.25Y-4.3
X8.25Y-5.1
X8.25Y-5.7
X8.3Y-5.95
X8.35Y-5.1
X8.35Y-5.7
X8.4Y-5.95
X8.425Y-4.3
X8.45Y-5.1
X8.45Y-5.7
X8.525Y-4.3
X8.55Y-5.1
X8.55Y-5.7
X8.65Y-5.1
X8.65Y-5.7
X8.7Y-4.3
X8.75Y-5.1
X8.75Y-5.7
X8.8Y-4.3
X8.85Y-5.1
X8.85Y-5.7
X8.9Y-4.3
X9.Y-4.3
X9.325Y-6.2
X9.325Y-6.3
X9.325Y-6.4
X9.325Y-6.5
X9.55Y-5.575
X9.55Y-5.675
X9.55Y-5.775
X9.55Y-5.875
T4
X9.175Y-4.725
X9.175Y-5.175
X9.175Y-5.425
X9.175Y-5.875
X9.35Y-4.725
X9.35Y-5.175
X9.35Y-5.425
X9.35Y-5.875
T0
M30
