G04 (created by PCBNEW (22-Jun-2014 BZR 4027)-stable) date Wed 30 Jul 2014 01:02:49 NZST*
%MOIN*%
G04 Gerber Fmt 3.4, Leading zero omitted, Abs format*
%FSLAX34Y34*%
G01*
G70*
G90*
G04 APERTURE LIST*
%ADD10C,0.00590551*%
%ADD11C,0.005*%
%ADD12C,0.015*%
%ADD13C,0.012*%
%ADD14C,0.0031*%
%ADD15C,0.0026*%
%ADD16C,0.004*%
%ADD17C,0.006*%
%ADD18C,0.00875*%
%ADD19C,0.0047*%
%ADD20C,0.0039*%
%ADD21C,0.0107*%
%ADD22C,0.01*%
%ADD23C,0.0035*%
G04 APERTURE END LIST*
G54D10*
G54D11*
X88700Y-64050D02*
X88750Y-64050D01*
X88750Y-64050D02*
X88750Y-61950D01*
X87250Y-61950D02*
X87250Y-64050D01*
X87250Y-64050D02*
X88700Y-64050D01*
X87800Y-64050D02*
X87800Y-63850D01*
X87800Y-63850D02*
X88200Y-63850D01*
X88200Y-63850D02*
X88200Y-64050D01*
X87250Y-61950D02*
X88750Y-61950D01*
X86950Y-46450D02*
X86950Y-46500D01*
X86950Y-46500D02*
X89050Y-46500D01*
X89050Y-45000D02*
X86950Y-45000D01*
X86950Y-45000D02*
X86950Y-46450D01*
X86950Y-45550D02*
X87150Y-45550D01*
X87150Y-45550D02*
X87150Y-45950D01*
X87150Y-45950D02*
X86950Y-45950D01*
X89050Y-45000D02*
X89050Y-46500D01*
X76800Y-58950D02*
X76750Y-58950D01*
X76750Y-58950D02*
X76750Y-61050D01*
X78250Y-61050D02*
X78250Y-58950D01*
X78250Y-58950D02*
X76800Y-58950D01*
X77700Y-58950D02*
X77700Y-59150D01*
X77700Y-59150D02*
X77300Y-59150D01*
X77300Y-59150D02*
X77300Y-58950D01*
X78250Y-61050D02*
X76750Y-61050D01*
X95050Y-64250D02*
X95950Y-64250D01*
X95950Y-64250D02*
X95950Y-63600D01*
X95050Y-62900D02*
X95050Y-62250D01*
X95050Y-62250D02*
X95950Y-62250D01*
X95950Y-62250D02*
X95950Y-62900D01*
X95050Y-63600D02*
X95050Y-64250D01*
X79950Y-59000D02*
X79050Y-59000D01*
X79050Y-59000D02*
X79050Y-59650D01*
X79950Y-60350D02*
X79950Y-61000D01*
X79950Y-61000D02*
X79050Y-61000D01*
X79050Y-61000D02*
X79050Y-60350D01*
X79950Y-59650D02*
X79950Y-59000D01*
X89000Y-48700D02*
X89000Y-47800D01*
X89000Y-47800D02*
X88350Y-47800D01*
X87650Y-48700D02*
X87000Y-48700D01*
X87000Y-48700D02*
X87000Y-47800D01*
X87000Y-47800D02*
X87650Y-47800D01*
X88350Y-48700D02*
X89000Y-48700D01*
X89000Y-49700D02*
X89000Y-48800D01*
X89000Y-48800D02*
X88350Y-48800D01*
X87650Y-49700D02*
X87000Y-49700D01*
X87000Y-49700D02*
X87000Y-48800D01*
X87000Y-48800D02*
X87650Y-48800D01*
X88350Y-49700D02*
X89000Y-49700D01*
X94050Y-64250D02*
X94950Y-64250D01*
X94950Y-64250D02*
X94950Y-63600D01*
X94050Y-62900D02*
X94050Y-62250D01*
X94050Y-62250D02*
X94950Y-62250D01*
X94950Y-62250D02*
X94950Y-62900D01*
X94050Y-63600D02*
X94050Y-64250D01*
X84800Y-64000D02*
X85700Y-64000D01*
X85700Y-64000D02*
X85700Y-63350D01*
X84800Y-62650D02*
X84800Y-62000D01*
X84800Y-62000D02*
X85700Y-62000D01*
X85700Y-62000D02*
X85700Y-62650D01*
X84800Y-63350D02*
X84800Y-64000D01*
X83800Y-64000D02*
X84700Y-64000D01*
X84700Y-64000D02*
X84700Y-63350D01*
X83800Y-62650D02*
X83800Y-62000D01*
X83800Y-62000D02*
X84700Y-62000D01*
X84700Y-62000D02*
X84700Y-62650D01*
X83800Y-63350D02*
X83800Y-64000D01*
G54D12*
X73000Y-51500D02*
X90000Y-51500D01*
X90000Y-51500D02*
X90000Y-56500D01*
X90000Y-56500D02*
X73000Y-56500D01*
X73000Y-56500D02*
X73000Y-51500D01*
X73000Y-54500D02*
X73500Y-54500D01*
X73500Y-54500D02*
X73500Y-53500D01*
X73500Y-53500D02*
X73000Y-53500D01*
G54D13*
X84000Y-48000D02*
X85500Y-48000D01*
X85500Y-48000D02*
X85500Y-44500D01*
X85500Y-44500D02*
X84000Y-44500D01*
X84000Y-44500D02*
X84000Y-48000D01*
X81250Y-48000D02*
X82750Y-48000D01*
X82750Y-48000D02*
X82750Y-44500D01*
X82750Y-44500D02*
X81250Y-44500D01*
X81250Y-44500D02*
X81250Y-48000D01*
X78500Y-48000D02*
X80000Y-48000D01*
X80000Y-48000D02*
X80000Y-44500D01*
X80000Y-44500D02*
X78500Y-44500D01*
X78500Y-44500D02*
X78500Y-48000D01*
G54D14*
X75525Y-59862D02*
G75*
G03X75525Y-59862I-62J0D01*
G74*
G01*
X74500Y-60200D02*
X74500Y-59800D01*
X75525Y-60200D02*
X75525Y-59800D01*
X74500Y-59800D02*
X75525Y-59800D01*
X75525Y-60200D02*
X74500Y-60200D01*
G54D11*
X80000Y-49950D02*
X80000Y-49050D01*
X80000Y-49050D02*
X79350Y-49050D01*
X78650Y-49950D02*
X78000Y-49950D01*
X78000Y-49950D02*
X78000Y-49050D01*
X78000Y-49050D02*
X78650Y-49050D01*
X79350Y-49950D02*
X80000Y-49950D01*
X81000Y-49050D02*
X81000Y-49950D01*
X81000Y-49950D02*
X81650Y-49950D01*
X82350Y-49050D02*
X83000Y-49050D01*
X83000Y-49050D02*
X83000Y-49950D01*
X83000Y-49950D02*
X82350Y-49950D01*
X81650Y-49050D02*
X81000Y-49050D01*
X83750Y-49050D02*
X83750Y-49950D01*
X83750Y-49950D02*
X84400Y-49950D01*
X85100Y-49050D02*
X85750Y-49050D01*
X85750Y-49050D02*
X85750Y-49950D01*
X85750Y-49950D02*
X85100Y-49950D01*
X84400Y-49050D02*
X83750Y-49050D01*
X83500Y-61450D02*
X83500Y-60550D01*
X83500Y-60550D02*
X82850Y-60550D01*
X82150Y-61450D02*
X81500Y-61450D01*
X81500Y-61450D02*
X81500Y-60550D01*
X81500Y-60550D02*
X82150Y-60550D01*
X82850Y-61450D02*
X83500Y-61450D01*
X75050Y-50000D02*
X75950Y-50000D01*
X75950Y-50000D02*
X75950Y-49350D01*
X75050Y-48650D02*
X75050Y-48000D01*
X75050Y-48000D02*
X75950Y-48000D01*
X75950Y-48000D02*
X75950Y-48650D01*
X75050Y-49350D02*
X75050Y-50000D01*
X73550Y-50000D02*
X74450Y-50000D01*
X74450Y-50000D02*
X74450Y-49350D01*
X73550Y-48650D02*
X73550Y-48000D01*
X73550Y-48000D02*
X74450Y-48000D01*
X74450Y-48000D02*
X74450Y-48650D01*
X73550Y-49350D02*
X73550Y-50000D01*
X90050Y-64250D02*
X90950Y-64250D01*
X90950Y-64250D02*
X90950Y-63600D01*
X90050Y-62900D02*
X90050Y-62250D01*
X90050Y-62250D02*
X90950Y-62250D01*
X90950Y-62250D02*
X90950Y-62900D01*
X90050Y-63600D02*
X90050Y-64250D01*
X91300Y-65000D02*
X92200Y-65000D01*
X92200Y-65000D02*
X92200Y-64350D01*
X91300Y-63650D02*
X91300Y-63000D01*
X91300Y-63000D02*
X92200Y-63000D01*
X92200Y-63000D02*
X92200Y-63650D01*
X91300Y-64350D02*
X91300Y-65000D01*
X84000Y-58700D02*
X84000Y-57800D01*
X84000Y-57800D02*
X83350Y-57800D01*
X82650Y-58700D02*
X82000Y-58700D01*
X82000Y-58700D02*
X82000Y-57800D01*
X82000Y-57800D02*
X82650Y-57800D01*
X83350Y-58700D02*
X84000Y-58700D01*
G54D13*
X86500Y-42500D02*
X86500Y-42500D01*
X86500Y-43500D02*
X86500Y-42500D01*
X86500Y-42500D02*
X86500Y-42500D01*
X86500Y-42500D02*
X90500Y-42500D01*
X90500Y-42500D02*
X90500Y-43500D01*
X90500Y-43500D02*
X86500Y-43500D01*
X87500Y-43500D02*
X87500Y-42500D01*
X96000Y-55250D02*
X96000Y-55250D01*
X95000Y-55250D02*
X96000Y-55250D01*
X96000Y-55250D02*
X96000Y-55250D01*
X96000Y-55250D02*
X96000Y-59250D01*
X96000Y-59250D02*
X95000Y-59250D01*
X95000Y-59250D02*
X95000Y-55250D01*
X95000Y-56250D02*
X96000Y-56250D01*
X75750Y-65500D02*
X75750Y-65500D01*
X76750Y-65500D02*
X75750Y-65500D01*
X75750Y-65500D02*
X75750Y-65500D01*
X75750Y-65500D02*
X75750Y-61500D01*
X75750Y-61500D02*
X76750Y-61500D01*
X76750Y-61500D02*
X76750Y-65500D01*
X76750Y-64500D02*
X75750Y-64500D01*
X92750Y-65500D02*
X92750Y-65500D01*
X93750Y-65500D02*
X92750Y-65500D01*
X92750Y-65500D02*
X92750Y-65500D01*
X92750Y-65500D02*
X92750Y-61500D01*
X92750Y-61500D02*
X93750Y-61500D01*
X93750Y-61500D02*
X93750Y-65500D01*
X93750Y-64500D02*
X92750Y-64500D01*
X84500Y-60000D02*
X84500Y-60000D01*
X84500Y-59000D02*
X84500Y-60000D01*
X84500Y-60000D02*
X84500Y-60000D01*
X84500Y-60000D02*
X80500Y-60000D01*
X80500Y-60000D02*
X80500Y-59000D01*
X80500Y-59000D02*
X84500Y-59000D01*
X83500Y-59000D02*
X83500Y-60000D01*
X78250Y-43500D02*
X78250Y-42500D01*
X78250Y-42500D02*
X80250Y-42500D01*
X80250Y-42500D02*
X80250Y-43500D01*
X80250Y-43500D02*
X78250Y-43500D01*
X73000Y-59000D02*
X74000Y-59000D01*
X74000Y-59000D02*
X74000Y-61000D01*
X74000Y-61000D02*
X73000Y-61000D01*
X73000Y-61000D02*
X73000Y-59000D01*
X81000Y-43500D02*
X81000Y-42500D01*
X81000Y-42500D02*
X83000Y-42500D01*
X83000Y-42500D02*
X83000Y-43500D01*
X83000Y-43500D02*
X81000Y-43500D01*
X83750Y-43500D02*
X83750Y-42500D01*
X83750Y-42500D02*
X85750Y-42500D01*
X85750Y-42500D02*
X85750Y-43500D01*
X85750Y-43500D02*
X83750Y-43500D01*
X94000Y-54750D02*
X93000Y-54750D01*
X93000Y-54750D02*
X93000Y-58250D01*
X93000Y-58250D02*
X94000Y-58250D01*
X94000Y-58250D02*
X94000Y-54750D01*
X93750Y-54750D02*
X94000Y-55000D01*
X93500Y-54750D02*
X93500Y-54250D01*
X93500Y-58250D02*
X93500Y-58750D01*
X92250Y-54750D02*
X91250Y-54750D01*
X91250Y-54750D02*
X91250Y-58250D01*
X91250Y-58250D02*
X92250Y-58250D01*
X92250Y-58250D02*
X92250Y-54750D01*
X92000Y-54750D02*
X92250Y-55000D01*
X91750Y-54750D02*
X91750Y-54250D01*
X91750Y-58250D02*
X91750Y-58750D01*
X92250Y-47750D02*
X91250Y-47750D01*
X91250Y-47750D02*
X91250Y-51250D01*
X91250Y-51250D02*
X92250Y-51250D01*
X92250Y-51250D02*
X92250Y-47750D01*
X92000Y-47750D02*
X92250Y-48000D01*
X91750Y-47750D02*
X91750Y-47250D01*
X91750Y-51250D02*
X91750Y-51750D01*
X94000Y-47750D02*
X93000Y-47750D01*
X93000Y-47750D02*
X93000Y-51250D01*
X93000Y-51250D02*
X94000Y-51250D01*
X94000Y-51250D02*
X94000Y-47750D01*
X93750Y-47750D02*
X94000Y-48000D01*
X93500Y-47750D02*
X93500Y-47250D01*
X93500Y-51250D02*
X93500Y-51750D01*
G54D15*
X74039Y-46789D02*
X74039Y-46711D01*
X74039Y-46711D02*
X73961Y-46711D01*
X73961Y-46789D02*
X73961Y-46711D01*
X74039Y-46789D02*
X73961Y-46789D01*
X74275Y-46573D02*
X74275Y-46436D01*
X74275Y-46436D02*
X74177Y-46436D01*
X74177Y-46573D02*
X74177Y-46436D01*
X74275Y-46573D02*
X74177Y-46573D01*
X74275Y-46436D02*
X74275Y-46396D01*
X74275Y-46396D02*
X73804Y-46396D01*
X73804Y-46436D02*
X73804Y-46396D01*
X74275Y-46436D02*
X73804Y-46436D01*
X73784Y-46436D02*
X73784Y-46396D01*
X73784Y-46396D02*
X73725Y-46396D01*
X73725Y-46436D02*
X73725Y-46396D01*
X73784Y-46436D02*
X73725Y-46436D01*
X74275Y-47104D02*
X74275Y-47064D01*
X74275Y-47064D02*
X73804Y-47064D01*
X73804Y-47104D02*
X73804Y-47064D01*
X74275Y-47104D02*
X73804Y-47104D01*
X73784Y-47104D02*
X73784Y-47064D01*
X73784Y-47064D02*
X73725Y-47064D01*
X73725Y-47104D02*
X73725Y-47064D01*
X73784Y-47104D02*
X73725Y-47104D01*
X74275Y-46573D02*
X74275Y-46514D01*
X74275Y-46514D02*
X74177Y-46514D01*
X74177Y-46573D02*
X74177Y-46514D01*
X74275Y-46573D02*
X74177Y-46573D01*
G54D16*
X74295Y-46140D02*
X74295Y-47360D01*
X74295Y-47360D02*
X73705Y-47360D01*
X73705Y-47360D02*
X73705Y-46140D01*
X73705Y-46140D02*
X74295Y-46140D01*
X74196Y-46965D02*
G75*
G03X74195Y-46533I-196J215D01*
G74*
G01*
X73803Y-46965D02*
G75*
G03X74195Y-46966I196J215D01*
G74*
G01*
X73803Y-46534D02*
G75*
G03X73804Y-46966I196J-215D01*
G74*
G01*
X74196Y-46534D02*
G75*
G03X73804Y-46533I-196J-215D01*
G74*
G01*
G54D15*
X75539Y-46789D02*
X75539Y-46711D01*
X75539Y-46711D02*
X75461Y-46711D01*
X75461Y-46789D02*
X75461Y-46711D01*
X75539Y-46789D02*
X75461Y-46789D01*
X75775Y-46573D02*
X75775Y-46436D01*
X75775Y-46436D02*
X75677Y-46436D01*
X75677Y-46573D02*
X75677Y-46436D01*
X75775Y-46573D02*
X75677Y-46573D01*
X75775Y-46436D02*
X75775Y-46396D01*
X75775Y-46396D02*
X75304Y-46396D01*
X75304Y-46436D02*
X75304Y-46396D01*
X75775Y-46436D02*
X75304Y-46436D01*
X75284Y-46436D02*
X75284Y-46396D01*
X75284Y-46396D02*
X75225Y-46396D01*
X75225Y-46436D02*
X75225Y-46396D01*
X75284Y-46436D02*
X75225Y-46436D01*
X75775Y-47104D02*
X75775Y-47064D01*
X75775Y-47064D02*
X75304Y-47064D01*
X75304Y-47104D02*
X75304Y-47064D01*
X75775Y-47104D02*
X75304Y-47104D01*
X75284Y-47104D02*
X75284Y-47064D01*
X75284Y-47064D02*
X75225Y-47064D01*
X75225Y-47104D02*
X75225Y-47064D01*
X75284Y-47104D02*
X75225Y-47104D01*
X75775Y-46573D02*
X75775Y-46514D01*
X75775Y-46514D02*
X75677Y-46514D01*
X75677Y-46573D02*
X75677Y-46514D01*
X75775Y-46573D02*
X75677Y-46573D01*
G54D16*
X75795Y-46140D02*
X75795Y-47360D01*
X75795Y-47360D02*
X75205Y-47360D01*
X75205Y-47360D02*
X75205Y-46140D01*
X75205Y-46140D02*
X75795Y-46140D01*
X75696Y-46965D02*
G75*
G03X75695Y-46533I-196J215D01*
G74*
G01*
X75303Y-46965D02*
G75*
G03X75695Y-46966I196J215D01*
G74*
G01*
X75303Y-46534D02*
G75*
G03X75304Y-46966I196J-215D01*
G74*
G01*
X75696Y-46534D02*
G75*
G03X75304Y-46533I-196J-215D01*
G74*
G01*
G54D17*
X87200Y-62732D02*
X87200Y-63096D01*
X87221Y-63139D01*
X87242Y-63160D01*
X87285Y-63182D01*
X87371Y-63182D01*
X87414Y-63160D01*
X87435Y-63139D01*
X87457Y-63096D01*
X87457Y-62732D01*
X87671Y-63182D02*
X87671Y-62732D01*
X87864Y-62775D02*
X87885Y-62753D01*
X87928Y-62732D01*
X88035Y-62732D01*
X88078Y-62753D01*
X88100Y-62775D01*
X88121Y-62817D01*
X88121Y-62860D01*
X88100Y-62925D01*
X87842Y-63182D01*
X88121Y-63182D01*
X88525Y-63850D02*
X88541Y-63800D01*
X88541Y-63716D01*
X88525Y-63683D01*
X88508Y-63666D01*
X88475Y-63650D01*
X88441Y-63650D01*
X88408Y-63666D01*
X88391Y-63683D01*
X88375Y-63716D01*
X88358Y-63783D01*
X88341Y-63816D01*
X88325Y-63833D01*
X88291Y-63850D01*
X88258Y-63850D01*
X88225Y-63833D01*
X88208Y-63816D01*
X88191Y-63783D01*
X88191Y-63700D01*
X88208Y-63650D01*
X88541Y-63500D02*
X88191Y-63500D01*
X88341Y-63283D02*
X88325Y-63316D01*
X88308Y-63333D01*
X88275Y-63350D01*
X88258Y-63350D01*
X88225Y-63333D01*
X88208Y-63316D01*
X88191Y-63283D01*
X88191Y-63216D01*
X88208Y-63183D01*
X88225Y-63166D01*
X88258Y-63150D01*
X88275Y-63150D01*
X88308Y-63166D01*
X88325Y-63183D01*
X88341Y-63216D01*
X88341Y-63283D01*
X88358Y-63316D01*
X88375Y-63333D01*
X88408Y-63350D01*
X88475Y-63350D01*
X88508Y-63333D01*
X88525Y-63316D01*
X88541Y-63283D01*
X88541Y-63216D01*
X88525Y-63183D01*
X88508Y-63166D01*
X88475Y-63150D01*
X88408Y-63150D01*
X88375Y-63166D01*
X88358Y-63183D01*
X88341Y-63216D01*
X88308Y-62850D02*
X88541Y-62850D01*
X88175Y-62933D02*
X88425Y-63016D01*
X88425Y-62800D01*
X88191Y-62600D02*
X88191Y-62566D01*
X88208Y-62533D01*
X88225Y-62516D01*
X88258Y-62500D01*
X88325Y-62483D01*
X88408Y-62483D01*
X88475Y-62500D01*
X88508Y-62516D01*
X88525Y-62533D01*
X88541Y-62566D01*
X88541Y-62600D01*
X88525Y-62633D01*
X88508Y-62650D01*
X88475Y-62666D01*
X88408Y-62683D01*
X88325Y-62683D01*
X88258Y-62666D01*
X88225Y-62650D01*
X88208Y-62633D01*
X88191Y-62600D01*
X88191Y-62266D02*
X88191Y-62233D01*
X88208Y-62200D01*
X88225Y-62183D01*
X88258Y-62166D01*
X88325Y-62150D01*
X88408Y-62150D01*
X88475Y-62166D01*
X88508Y-62183D01*
X88525Y-62200D01*
X88541Y-62233D01*
X88541Y-62266D01*
X88525Y-62300D01*
X88508Y-62316D01*
X88475Y-62333D01*
X88408Y-62350D01*
X88325Y-62350D01*
X88258Y-62333D01*
X88225Y-62316D01*
X88208Y-62300D01*
X88191Y-62266D01*
X87325Y-45132D02*
X87325Y-45496D01*
X87346Y-45539D01*
X87367Y-45560D01*
X87410Y-45582D01*
X87496Y-45582D01*
X87539Y-45560D01*
X87560Y-45539D01*
X87582Y-45496D01*
X87582Y-45132D01*
X87796Y-45582D02*
X87796Y-45132D01*
X88267Y-45582D02*
X88117Y-45367D01*
X88010Y-45582D02*
X88010Y-45132D01*
X88182Y-45132D01*
X88225Y-45153D01*
X88246Y-45175D01*
X88267Y-45217D01*
X88267Y-45282D01*
X88246Y-45325D01*
X88225Y-45346D01*
X88182Y-45367D01*
X88010Y-45367D01*
X88696Y-45582D02*
X88439Y-45582D01*
X88567Y-45582D02*
X88567Y-45132D01*
X88525Y-45196D01*
X88482Y-45239D01*
X88439Y-45260D01*
X87149Y-46275D02*
X87199Y-46291D01*
X87283Y-46291D01*
X87316Y-46275D01*
X87333Y-46258D01*
X87349Y-46225D01*
X87349Y-46191D01*
X87333Y-46158D01*
X87316Y-46141D01*
X87283Y-46125D01*
X87216Y-46108D01*
X87183Y-46091D01*
X87166Y-46075D01*
X87149Y-46041D01*
X87149Y-46008D01*
X87166Y-45975D01*
X87183Y-45958D01*
X87216Y-45941D01*
X87299Y-45941D01*
X87349Y-45958D01*
X87500Y-46291D02*
X87500Y-45941D01*
X87716Y-46091D02*
X87683Y-46075D01*
X87666Y-46058D01*
X87649Y-46025D01*
X87649Y-46008D01*
X87666Y-45975D01*
X87683Y-45958D01*
X87716Y-45941D01*
X87783Y-45941D01*
X87816Y-45958D01*
X87833Y-45975D01*
X87849Y-46008D01*
X87849Y-46025D01*
X87833Y-46058D01*
X87816Y-46075D01*
X87783Y-46091D01*
X87716Y-46091D01*
X87683Y-46108D01*
X87666Y-46125D01*
X87649Y-46158D01*
X87649Y-46225D01*
X87666Y-46258D01*
X87683Y-46275D01*
X87716Y-46291D01*
X87783Y-46291D01*
X87816Y-46275D01*
X87833Y-46258D01*
X87849Y-46225D01*
X87849Y-46158D01*
X87833Y-46125D01*
X87816Y-46108D01*
X87783Y-46091D01*
X88150Y-46058D02*
X88150Y-46291D01*
X88066Y-45925D02*
X87983Y-46175D01*
X88200Y-46175D01*
X88400Y-45941D02*
X88433Y-45941D01*
X88466Y-45958D01*
X88483Y-45975D01*
X88500Y-46008D01*
X88516Y-46075D01*
X88516Y-46158D01*
X88500Y-46225D01*
X88483Y-46258D01*
X88466Y-46275D01*
X88433Y-46291D01*
X88400Y-46291D01*
X88366Y-46275D01*
X88350Y-46258D01*
X88333Y-46225D01*
X88316Y-46158D01*
X88316Y-46075D01*
X88333Y-46008D01*
X88350Y-45975D01*
X88366Y-45958D01*
X88400Y-45941D01*
X88733Y-45941D02*
X88766Y-45941D01*
X88800Y-45958D01*
X88816Y-45975D01*
X88833Y-46008D01*
X88850Y-46075D01*
X88850Y-46158D01*
X88833Y-46225D01*
X88816Y-46258D01*
X88800Y-46275D01*
X88766Y-46291D01*
X88733Y-46291D01*
X88700Y-46275D01*
X88683Y-46258D01*
X88666Y-46225D01*
X88650Y-46158D01*
X88650Y-46075D01*
X88666Y-46008D01*
X88683Y-45975D01*
X88700Y-45958D01*
X88733Y-45941D01*
X77582Y-60878D02*
X77946Y-60878D01*
X77989Y-60857D01*
X78010Y-60835D01*
X78032Y-60792D01*
X78032Y-60707D01*
X78010Y-60664D01*
X77989Y-60642D01*
X77946Y-60621D01*
X77582Y-60621D01*
X78032Y-60407D02*
X77582Y-60407D01*
X78032Y-60192D02*
X77582Y-60192D01*
X78032Y-59935D01*
X77582Y-59935D01*
X77903Y-59742D02*
X77903Y-59528D01*
X78032Y-59785D02*
X77582Y-59635D01*
X78032Y-59485D01*
X78032Y-59099D02*
X78032Y-59357D01*
X78032Y-59228D02*
X77582Y-59228D01*
X77646Y-59271D01*
X77689Y-59314D01*
X77710Y-59357D01*
X77141Y-60925D02*
X77141Y-60758D01*
X77241Y-60958D02*
X76891Y-60841D01*
X77241Y-60725D01*
X77241Y-60608D02*
X76891Y-60608D01*
X76891Y-60525D01*
X76908Y-60475D01*
X76941Y-60441D01*
X76975Y-60425D01*
X77041Y-60408D01*
X77091Y-60408D01*
X77158Y-60425D01*
X77191Y-60441D01*
X77225Y-60475D01*
X77241Y-60525D01*
X77241Y-60608D01*
X77041Y-60208D02*
X77025Y-60241D01*
X77008Y-60258D01*
X76975Y-60275D01*
X76958Y-60275D01*
X76925Y-60258D01*
X76908Y-60241D01*
X76891Y-60208D01*
X76891Y-60141D01*
X76908Y-60108D01*
X76925Y-60091D01*
X76958Y-60075D01*
X76975Y-60075D01*
X77008Y-60091D01*
X77025Y-60108D01*
X77041Y-60141D01*
X77041Y-60208D01*
X77058Y-60241D01*
X77075Y-60258D01*
X77108Y-60275D01*
X77175Y-60275D01*
X77208Y-60258D01*
X77225Y-60241D01*
X77241Y-60208D01*
X77241Y-60141D01*
X77225Y-60108D01*
X77208Y-60091D01*
X77175Y-60075D01*
X77108Y-60075D01*
X77075Y-60091D01*
X77058Y-60108D01*
X77041Y-60141D01*
X76925Y-59941D02*
X76908Y-59925D01*
X76891Y-59891D01*
X76891Y-59808D01*
X76908Y-59775D01*
X76925Y-59758D01*
X76958Y-59741D01*
X76991Y-59741D01*
X77041Y-59758D01*
X77241Y-59958D01*
X77241Y-59741D01*
X76891Y-59625D02*
X76891Y-59408D01*
X77025Y-59525D01*
X77025Y-59475D01*
X77041Y-59441D01*
X77058Y-59425D01*
X77091Y-59408D01*
X77175Y-59408D01*
X77208Y-59425D01*
X77225Y-59441D01*
X77241Y-59475D01*
X77241Y-59575D01*
X77225Y-59608D01*
X77208Y-59625D01*
X76891Y-59108D02*
X76891Y-59175D01*
X76908Y-59208D01*
X76925Y-59225D01*
X76975Y-59258D01*
X77041Y-59275D01*
X77175Y-59275D01*
X77208Y-59258D01*
X77225Y-59241D01*
X77241Y-59208D01*
X77241Y-59141D01*
X77225Y-59108D01*
X77208Y-59091D01*
X77175Y-59075D01*
X77091Y-59075D01*
X77058Y-59091D01*
X77041Y-59108D01*
X77025Y-59141D01*
X77025Y-59208D01*
X77041Y-59241D01*
X77058Y-59258D01*
X77091Y-59275D01*
G54D11*
X95592Y-63650D02*
X95607Y-63664D01*
X95621Y-63707D01*
X95621Y-63735D01*
X95607Y-63778D01*
X95578Y-63807D01*
X95550Y-63821D01*
X95492Y-63835D01*
X95450Y-63835D01*
X95392Y-63821D01*
X95364Y-63807D01*
X95335Y-63778D01*
X95321Y-63735D01*
X95321Y-63707D01*
X95335Y-63664D01*
X95350Y-63650D01*
X95621Y-63521D02*
X95321Y-63521D01*
X95350Y-63392D02*
X95335Y-63378D01*
X95321Y-63350D01*
X95321Y-63278D01*
X95335Y-63250D01*
X95350Y-63235D01*
X95378Y-63221D01*
X95407Y-63221D01*
X95450Y-63235D01*
X95621Y-63407D01*
X95621Y-63221D01*
X95621Y-62964D02*
X95321Y-62964D01*
X95607Y-62964D02*
X95621Y-62992D01*
X95621Y-63050D01*
X95607Y-63078D01*
X95592Y-63092D01*
X95564Y-63107D01*
X95478Y-63107D01*
X95450Y-63092D01*
X95435Y-63078D01*
X95421Y-63050D01*
X95421Y-62992D01*
X95435Y-62964D01*
X95621Y-62664D02*
X95621Y-62835D01*
X95621Y-62750D02*
X95321Y-62750D01*
X95364Y-62778D01*
X95392Y-62807D01*
X95407Y-62835D01*
X79592Y-60407D02*
X79607Y-60421D01*
X79621Y-60464D01*
X79621Y-60492D01*
X79607Y-60535D01*
X79578Y-60564D01*
X79550Y-60578D01*
X79492Y-60592D01*
X79450Y-60592D01*
X79392Y-60578D01*
X79364Y-60564D01*
X79335Y-60535D01*
X79321Y-60492D01*
X79321Y-60464D01*
X79335Y-60421D01*
X79350Y-60407D01*
X79621Y-60278D02*
X79321Y-60278D01*
X79621Y-60135D02*
X79321Y-60135D01*
X79621Y-59964D01*
X79321Y-59964D01*
X79535Y-59835D02*
X79535Y-59692D01*
X79621Y-59864D02*
X79321Y-59764D01*
X79621Y-59664D01*
X79621Y-59407D02*
X79621Y-59578D01*
X79621Y-59492D02*
X79321Y-59492D01*
X79364Y-59521D01*
X79392Y-59550D01*
X79407Y-59578D01*
X87600Y-48342D02*
X87585Y-48357D01*
X87542Y-48371D01*
X87514Y-48371D01*
X87471Y-48357D01*
X87442Y-48328D01*
X87428Y-48300D01*
X87414Y-48242D01*
X87414Y-48200D01*
X87428Y-48142D01*
X87442Y-48114D01*
X87471Y-48085D01*
X87514Y-48071D01*
X87542Y-48071D01*
X87585Y-48085D01*
X87600Y-48100D01*
X87728Y-48371D02*
X87728Y-48071D01*
X87842Y-48071D02*
X88028Y-48071D01*
X87928Y-48185D01*
X87971Y-48185D01*
X88000Y-48200D01*
X88014Y-48214D01*
X88028Y-48242D01*
X88028Y-48314D01*
X88014Y-48342D01*
X88000Y-48357D01*
X87971Y-48371D01*
X87885Y-48371D01*
X87857Y-48357D01*
X87842Y-48342D01*
X88157Y-48371D02*
X88157Y-48071D01*
X88157Y-48185D02*
X88185Y-48171D01*
X88242Y-48171D01*
X88271Y-48185D01*
X88285Y-48200D01*
X88300Y-48228D01*
X88300Y-48314D01*
X88285Y-48342D01*
X88271Y-48357D01*
X88242Y-48371D01*
X88185Y-48371D01*
X88157Y-48357D01*
X88585Y-48371D02*
X88414Y-48371D01*
X88500Y-48371D02*
X88500Y-48071D01*
X88471Y-48114D01*
X88442Y-48142D01*
X88414Y-48157D01*
X87600Y-49342D02*
X87585Y-49357D01*
X87542Y-49371D01*
X87514Y-49371D01*
X87471Y-49357D01*
X87442Y-49328D01*
X87428Y-49300D01*
X87414Y-49242D01*
X87414Y-49200D01*
X87428Y-49142D01*
X87442Y-49114D01*
X87471Y-49085D01*
X87514Y-49071D01*
X87542Y-49071D01*
X87585Y-49085D01*
X87600Y-49100D01*
X87728Y-49371D02*
X87728Y-49071D01*
X87842Y-49071D02*
X88028Y-49071D01*
X87928Y-49185D01*
X87971Y-49185D01*
X88000Y-49200D01*
X88014Y-49214D01*
X88028Y-49242D01*
X88028Y-49314D01*
X88014Y-49342D01*
X88000Y-49357D01*
X87971Y-49371D01*
X87885Y-49371D01*
X87857Y-49357D01*
X87842Y-49342D01*
X88285Y-49371D02*
X88285Y-49214D01*
X88271Y-49185D01*
X88242Y-49171D01*
X88185Y-49171D01*
X88157Y-49185D01*
X88285Y-49357D02*
X88257Y-49371D01*
X88185Y-49371D01*
X88157Y-49357D01*
X88142Y-49328D01*
X88142Y-49300D01*
X88157Y-49271D01*
X88185Y-49257D01*
X88257Y-49257D01*
X88285Y-49242D01*
X88585Y-49371D02*
X88414Y-49371D01*
X88500Y-49371D02*
X88500Y-49071D01*
X88471Y-49114D01*
X88442Y-49142D01*
X88414Y-49157D01*
X94592Y-63642D02*
X94607Y-63657D01*
X94621Y-63700D01*
X94621Y-63728D01*
X94607Y-63771D01*
X94578Y-63800D01*
X94550Y-63814D01*
X94492Y-63828D01*
X94450Y-63828D01*
X94392Y-63814D01*
X94364Y-63800D01*
X94335Y-63771D01*
X94321Y-63728D01*
X94321Y-63700D01*
X94335Y-63657D01*
X94350Y-63642D01*
X94621Y-63514D02*
X94321Y-63514D01*
X94350Y-63385D02*
X94335Y-63371D01*
X94321Y-63342D01*
X94321Y-63271D01*
X94335Y-63242D01*
X94350Y-63228D01*
X94378Y-63214D01*
X94407Y-63214D01*
X94450Y-63228D01*
X94621Y-63400D01*
X94621Y-63214D01*
X94607Y-62957D02*
X94621Y-62985D01*
X94621Y-63042D01*
X94607Y-63071D01*
X94592Y-63085D01*
X94564Y-63100D01*
X94478Y-63100D01*
X94450Y-63085D01*
X94435Y-63071D01*
X94421Y-63042D01*
X94421Y-62985D01*
X94435Y-62957D01*
X94621Y-62671D02*
X94621Y-62842D01*
X94621Y-62757D02*
X94321Y-62757D01*
X94364Y-62785D01*
X94392Y-62814D01*
X94407Y-62842D01*
X85342Y-63400D02*
X85357Y-63414D01*
X85371Y-63457D01*
X85371Y-63485D01*
X85357Y-63528D01*
X85328Y-63557D01*
X85300Y-63571D01*
X85242Y-63585D01*
X85200Y-63585D01*
X85142Y-63571D01*
X85114Y-63557D01*
X85085Y-63528D01*
X85071Y-63485D01*
X85071Y-63457D01*
X85085Y-63414D01*
X85100Y-63400D01*
X85371Y-63271D02*
X85071Y-63271D01*
X85100Y-63142D02*
X85085Y-63128D01*
X85071Y-63100D01*
X85071Y-63028D01*
X85085Y-63000D01*
X85100Y-62985D01*
X85128Y-62971D01*
X85157Y-62971D01*
X85200Y-62985D01*
X85371Y-63157D01*
X85371Y-62971D01*
X85371Y-62842D02*
X85071Y-62842D01*
X85185Y-62842D02*
X85171Y-62814D01*
X85171Y-62757D01*
X85185Y-62728D01*
X85200Y-62714D01*
X85228Y-62700D01*
X85314Y-62700D01*
X85342Y-62714D01*
X85357Y-62728D01*
X85371Y-62757D01*
X85371Y-62814D01*
X85357Y-62842D01*
X85371Y-62414D02*
X85371Y-62585D01*
X85371Y-62500D02*
X85071Y-62500D01*
X85114Y-62528D01*
X85142Y-62557D01*
X85157Y-62585D01*
X84342Y-63400D02*
X84357Y-63414D01*
X84371Y-63457D01*
X84371Y-63485D01*
X84357Y-63528D01*
X84328Y-63557D01*
X84300Y-63571D01*
X84242Y-63585D01*
X84200Y-63585D01*
X84142Y-63571D01*
X84114Y-63557D01*
X84085Y-63528D01*
X84071Y-63485D01*
X84071Y-63457D01*
X84085Y-63414D01*
X84100Y-63400D01*
X84371Y-63271D02*
X84071Y-63271D01*
X84100Y-63142D02*
X84085Y-63128D01*
X84071Y-63100D01*
X84071Y-63028D01*
X84085Y-63000D01*
X84100Y-62985D01*
X84128Y-62971D01*
X84157Y-62971D01*
X84200Y-62985D01*
X84371Y-63157D01*
X84371Y-62971D01*
X84371Y-62714D02*
X84214Y-62714D01*
X84185Y-62728D01*
X84171Y-62757D01*
X84171Y-62814D01*
X84185Y-62842D01*
X84357Y-62714D02*
X84371Y-62742D01*
X84371Y-62814D01*
X84357Y-62842D01*
X84328Y-62857D01*
X84300Y-62857D01*
X84271Y-62842D01*
X84257Y-62814D01*
X84257Y-62742D01*
X84242Y-62714D01*
X84371Y-62414D02*
X84371Y-62585D01*
X84371Y-62500D02*
X84071Y-62500D01*
X84114Y-62528D01*
X84142Y-62557D01*
X84157Y-62585D01*
G54D13*
X75300Y-52083D02*
X75300Y-52650D01*
X75333Y-52716D01*
X75366Y-52750D01*
X75433Y-52783D01*
X75566Y-52783D01*
X75633Y-52750D01*
X75666Y-52716D01*
X75700Y-52650D01*
X75700Y-52083D01*
X76333Y-52316D02*
X76333Y-52783D01*
X76033Y-52316D02*
X76033Y-52683D01*
X76066Y-52750D01*
X76133Y-52783D01*
X76233Y-52783D01*
X76300Y-52750D01*
X76333Y-52716D01*
X77066Y-52716D02*
X77033Y-52750D01*
X76933Y-52783D01*
X76866Y-52783D01*
X76766Y-52750D01*
X76700Y-52683D01*
X76666Y-52616D01*
X76633Y-52483D01*
X76633Y-52383D01*
X76666Y-52250D01*
X76700Y-52183D01*
X76766Y-52116D01*
X76866Y-52083D01*
X76933Y-52083D01*
X77033Y-52116D01*
X77066Y-52150D01*
X77733Y-52783D02*
X77333Y-52783D01*
X77533Y-52783D02*
X77533Y-52083D01*
X77466Y-52183D01*
X77400Y-52250D01*
X77333Y-52283D01*
X78033Y-55333D02*
X78366Y-55333D01*
X77966Y-55533D02*
X78199Y-54833D01*
X78433Y-55533D01*
X79066Y-55533D02*
X78833Y-55200D01*
X78666Y-55533D02*
X78666Y-54833D01*
X78933Y-54833D01*
X78999Y-54866D01*
X79033Y-54900D01*
X79066Y-54966D01*
X79066Y-55066D01*
X79033Y-55133D01*
X78999Y-55166D01*
X78933Y-55200D01*
X78666Y-55200D01*
X79366Y-55533D02*
X79366Y-54833D01*
X79533Y-54833D01*
X79633Y-54866D01*
X79699Y-54933D01*
X79733Y-55000D01*
X79766Y-55133D01*
X79766Y-55233D01*
X79733Y-55366D01*
X79699Y-55433D01*
X79633Y-55500D01*
X79533Y-55533D01*
X79366Y-55533D01*
X80066Y-54833D02*
X80066Y-55400D01*
X80099Y-55466D01*
X80133Y-55500D01*
X80199Y-55533D01*
X80333Y-55533D01*
X80399Y-55500D01*
X80433Y-55466D01*
X80466Y-55400D01*
X80466Y-54833D01*
X80799Y-55533D02*
X80799Y-54833D01*
X81133Y-55533D02*
X81133Y-54833D01*
X81533Y-55533D01*
X81533Y-54833D01*
X82000Y-54833D02*
X82133Y-54833D01*
X82200Y-54866D01*
X82266Y-54933D01*
X82300Y-55066D01*
X82300Y-55300D01*
X82266Y-55433D01*
X82200Y-55500D01*
X82133Y-55533D01*
X82000Y-55533D01*
X81933Y-55500D01*
X81866Y-55433D01*
X81833Y-55300D01*
X81833Y-55066D01*
X81866Y-54933D01*
X81933Y-54866D01*
X82000Y-54833D01*
X82433Y-55600D02*
X82966Y-55600D01*
X83133Y-55533D02*
X83133Y-54833D01*
X83533Y-55533D01*
X83533Y-54833D01*
X84166Y-55533D02*
X84166Y-55166D01*
X84133Y-55100D01*
X84066Y-55066D01*
X83933Y-55066D01*
X83866Y-55100D01*
X84166Y-55500D02*
X84100Y-55533D01*
X83933Y-55533D01*
X83866Y-55500D01*
X83833Y-55433D01*
X83833Y-55366D01*
X83866Y-55300D01*
X83933Y-55266D01*
X84100Y-55266D01*
X84166Y-55233D01*
X84500Y-55066D02*
X84500Y-55533D01*
X84500Y-55133D02*
X84533Y-55100D01*
X84600Y-55066D01*
X84700Y-55066D01*
X84766Y-55100D01*
X84800Y-55166D01*
X84800Y-55533D01*
X85233Y-55533D02*
X85166Y-55500D01*
X85133Y-55466D01*
X85100Y-55400D01*
X85100Y-55200D01*
X85133Y-55133D01*
X85166Y-55100D01*
X85233Y-55066D01*
X85333Y-55066D01*
X85400Y-55100D01*
X85433Y-55133D01*
X85466Y-55200D01*
X85466Y-55400D01*
X85433Y-55466D01*
X85400Y-55500D01*
X85333Y-55533D01*
X85233Y-55533D01*
G54D18*
X84041Y-48025D02*
X84041Y-47958D01*
X84058Y-47925D01*
X84091Y-47891D01*
X84158Y-47875D01*
X84275Y-47875D01*
X84341Y-47891D01*
X84375Y-47925D01*
X84391Y-47958D01*
X84391Y-48025D01*
X84375Y-48058D01*
X84341Y-48091D01*
X84275Y-48108D01*
X84158Y-48108D01*
X84091Y-48091D01*
X84058Y-48058D01*
X84041Y-48025D01*
X84358Y-47525D02*
X84375Y-47541D01*
X84391Y-47591D01*
X84391Y-47625D01*
X84375Y-47675D01*
X84341Y-47708D01*
X84308Y-47725D01*
X84241Y-47741D01*
X84191Y-47741D01*
X84125Y-47725D01*
X84091Y-47708D01*
X84058Y-47675D01*
X84041Y-47625D01*
X84041Y-47591D01*
X84058Y-47541D01*
X84075Y-47525D01*
X84391Y-47191D02*
X84391Y-47391D01*
X84391Y-47291D02*
X84041Y-47291D01*
X84091Y-47325D01*
X84125Y-47358D01*
X84141Y-47391D01*
G54D13*
G54D18*
X84391Y-48616D02*
X84041Y-48616D01*
X84041Y-48483D01*
X84058Y-48450D01*
X84075Y-48433D01*
X84108Y-48416D01*
X84158Y-48416D01*
X84191Y-48433D01*
X84208Y-48450D01*
X84225Y-48483D01*
X84225Y-48616D01*
X84358Y-48066D02*
X84375Y-48083D01*
X84391Y-48133D01*
X84391Y-48166D01*
X84375Y-48216D01*
X84341Y-48250D01*
X84308Y-48266D01*
X84241Y-48283D01*
X84191Y-48283D01*
X84125Y-48266D01*
X84091Y-48250D01*
X84058Y-48216D01*
X84041Y-48166D01*
X84041Y-48133D01*
X84058Y-48083D01*
X84075Y-48066D01*
X84191Y-47866D02*
X84175Y-47900D01*
X84158Y-47916D01*
X84125Y-47933D01*
X84108Y-47933D01*
X84075Y-47916D01*
X84058Y-47900D01*
X84041Y-47866D01*
X84041Y-47800D01*
X84058Y-47766D01*
X84075Y-47750D01*
X84108Y-47733D01*
X84125Y-47733D01*
X84158Y-47750D01*
X84175Y-47766D01*
X84191Y-47800D01*
X84191Y-47866D01*
X84208Y-47900D01*
X84225Y-47916D01*
X84258Y-47933D01*
X84325Y-47933D01*
X84358Y-47916D01*
X84375Y-47900D01*
X84391Y-47866D01*
X84391Y-47800D01*
X84375Y-47766D01*
X84358Y-47750D01*
X84325Y-47733D01*
X84258Y-47733D01*
X84225Y-47750D01*
X84208Y-47766D01*
X84191Y-47800D01*
X84391Y-47400D02*
X84391Y-47600D01*
X84391Y-47500D02*
X84041Y-47500D01*
X84091Y-47533D01*
X84125Y-47566D01*
X84141Y-47600D01*
X84041Y-47283D02*
X84041Y-47049D01*
X84391Y-47199D01*
G54D13*
G54D18*
X81291Y-48025D02*
X81291Y-47958D01*
X81308Y-47925D01*
X81341Y-47891D01*
X81408Y-47875D01*
X81525Y-47875D01*
X81591Y-47891D01*
X81625Y-47925D01*
X81641Y-47958D01*
X81641Y-48025D01*
X81625Y-48058D01*
X81591Y-48091D01*
X81525Y-48108D01*
X81408Y-48108D01*
X81341Y-48091D01*
X81308Y-48058D01*
X81291Y-48025D01*
X81608Y-47525D02*
X81625Y-47541D01*
X81641Y-47591D01*
X81641Y-47625D01*
X81625Y-47675D01*
X81591Y-47708D01*
X81558Y-47725D01*
X81491Y-47741D01*
X81441Y-47741D01*
X81375Y-47725D01*
X81341Y-47708D01*
X81308Y-47675D01*
X81291Y-47625D01*
X81291Y-47591D01*
X81308Y-47541D01*
X81325Y-47525D01*
X81325Y-47391D02*
X81308Y-47375D01*
X81291Y-47341D01*
X81291Y-47258D01*
X81308Y-47225D01*
X81325Y-47208D01*
X81358Y-47191D01*
X81391Y-47191D01*
X81441Y-47208D01*
X81641Y-47408D01*
X81641Y-47191D01*
G54D13*
G54D18*
X81641Y-48616D02*
X81291Y-48616D01*
X81291Y-48483D01*
X81308Y-48450D01*
X81325Y-48433D01*
X81358Y-48416D01*
X81408Y-48416D01*
X81441Y-48433D01*
X81458Y-48450D01*
X81475Y-48483D01*
X81475Y-48616D01*
X81608Y-48066D02*
X81625Y-48083D01*
X81641Y-48133D01*
X81641Y-48166D01*
X81625Y-48216D01*
X81591Y-48250D01*
X81558Y-48266D01*
X81491Y-48283D01*
X81441Y-48283D01*
X81375Y-48266D01*
X81341Y-48250D01*
X81308Y-48216D01*
X81291Y-48166D01*
X81291Y-48133D01*
X81308Y-48083D01*
X81325Y-48066D01*
X81441Y-47866D02*
X81425Y-47900D01*
X81408Y-47916D01*
X81375Y-47933D01*
X81358Y-47933D01*
X81325Y-47916D01*
X81308Y-47900D01*
X81291Y-47866D01*
X81291Y-47800D01*
X81308Y-47766D01*
X81325Y-47750D01*
X81358Y-47733D01*
X81375Y-47733D01*
X81408Y-47750D01*
X81425Y-47766D01*
X81441Y-47800D01*
X81441Y-47866D01*
X81458Y-47900D01*
X81475Y-47916D01*
X81508Y-47933D01*
X81575Y-47933D01*
X81608Y-47916D01*
X81625Y-47900D01*
X81641Y-47866D01*
X81641Y-47800D01*
X81625Y-47766D01*
X81608Y-47750D01*
X81575Y-47733D01*
X81508Y-47733D01*
X81475Y-47750D01*
X81458Y-47766D01*
X81441Y-47800D01*
X81641Y-47400D02*
X81641Y-47600D01*
X81641Y-47500D02*
X81291Y-47500D01*
X81341Y-47533D01*
X81375Y-47566D01*
X81391Y-47600D01*
X81291Y-47283D02*
X81291Y-47049D01*
X81641Y-47199D01*
G54D13*
G54D18*
X78541Y-48025D02*
X78541Y-47958D01*
X78558Y-47925D01*
X78591Y-47891D01*
X78658Y-47875D01*
X78775Y-47875D01*
X78841Y-47891D01*
X78875Y-47925D01*
X78891Y-47958D01*
X78891Y-48025D01*
X78875Y-48058D01*
X78841Y-48091D01*
X78775Y-48108D01*
X78658Y-48108D01*
X78591Y-48091D01*
X78558Y-48058D01*
X78541Y-48025D01*
X78858Y-47525D02*
X78875Y-47541D01*
X78891Y-47591D01*
X78891Y-47625D01*
X78875Y-47675D01*
X78841Y-47708D01*
X78808Y-47725D01*
X78741Y-47741D01*
X78691Y-47741D01*
X78625Y-47725D01*
X78591Y-47708D01*
X78558Y-47675D01*
X78541Y-47625D01*
X78541Y-47591D01*
X78558Y-47541D01*
X78575Y-47525D01*
X78541Y-47408D02*
X78541Y-47191D01*
X78675Y-47308D01*
X78675Y-47258D01*
X78691Y-47225D01*
X78708Y-47208D01*
X78741Y-47191D01*
X78825Y-47191D01*
X78858Y-47208D01*
X78875Y-47225D01*
X78891Y-47258D01*
X78891Y-47358D01*
X78875Y-47391D01*
X78858Y-47408D01*
G54D13*
G54D18*
X78891Y-48616D02*
X78541Y-48616D01*
X78541Y-48483D01*
X78558Y-48450D01*
X78575Y-48433D01*
X78608Y-48416D01*
X78658Y-48416D01*
X78691Y-48433D01*
X78708Y-48450D01*
X78725Y-48483D01*
X78725Y-48616D01*
X78858Y-48066D02*
X78875Y-48083D01*
X78891Y-48133D01*
X78891Y-48166D01*
X78875Y-48216D01*
X78841Y-48250D01*
X78808Y-48266D01*
X78741Y-48283D01*
X78691Y-48283D01*
X78625Y-48266D01*
X78591Y-48250D01*
X78558Y-48216D01*
X78541Y-48166D01*
X78541Y-48133D01*
X78558Y-48083D01*
X78575Y-48066D01*
X78691Y-47866D02*
X78675Y-47900D01*
X78658Y-47916D01*
X78625Y-47933D01*
X78608Y-47933D01*
X78575Y-47916D01*
X78558Y-47900D01*
X78541Y-47866D01*
X78541Y-47800D01*
X78558Y-47766D01*
X78575Y-47750D01*
X78608Y-47733D01*
X78625Y-47733D01*
X78658Y-47750D01*
X78675Y-47766D01*
X78691Y-47800D01*
X78691Y-47866D01*
X78708Y-47900D01*
X78725Y-47916D01*
X78758Y-47933D01*
X78825Y-47933D01*
X78858Y-47916D01*
X78875Y-47900D01*
X78891Y-47866D01*
X78891Y-47800D01*
X78875Y-47766D01*
X78858Y-47750D01*
X78825Y-47733D01*
X78758Y-47733D01*
X78725Y-47750D01*
X78708Y-47766D01*
X78691Y-47800D01*
X78891Y-47400D02*
X78891Y-47600D01*
X78891Y-47500D02*
X78541Y-47500D01*
X78591Y-47533D01*
X78625Y-47566D01*
X78641Y-47600D01*
X78541Y-47283D02*
X78541Y-47049D01*
X78891Y-47199D01*
G54D13*
G54D19*
X74334Y-60224D02*
X74191Y-60324D01*
X74334Y-60396D02*
X74034Y-60396D01*
X74034Y-60281D01*
X74048Y-60253D01*
X74063Y-60239D01*
X74091Y-60224D01*
X74134Y-60224D01*
X74163Y-60239D01*
X74177Y-60253D01*
X74191Y-60281D01*
X74191Y-60396D01*
X74134Y-59967D02*
X74377Y-59967D01*
X74405Y-59981D01*
X74420Y-59996D01*
X74434Y-60024D01*
X74434Y-60067D01*
X74420Y-60096D01*
X74320Y-59967D02*
X74334Y-59996D01*
X74334Y-60053D01*
X74320Y-60081D01*
X74305Y-60096D01*
X74277Y-60110D01*
X74191Y-60110D01*
X74163Y-60096D01*
X74148Y-60081D01*
X74134Y-60053D01*
X74134Y-59996D01*
X74148Y-59967D01*
X74334Y-59667D02*
X74334Y-59838D01*
X74334Y-59753D02*
X74034Y-59753D01*
X74077Y-59781D01*
X74105Y-59810D01*
X74120Y-59838D01*
G54D20*
X74942Y-59882D02*
X74848Y-59882D01*
X74838Y-59976D01*
X74848Y-59967D01*
X74867Y-59957D01*
X74914Y-59957D01*
X74932Y-59967D01*
X74942Y-59976D01*
X74951Y-59995D01*
X74951Y-60042D01*
X74942Y-60060D01*
X74932Y-60070D01*
X74914Y-60079D01*
X74867Y-60079D01*
X74848Y-60070D01*
X74838Y-60060D01*
X75035Y-60079D02*
X75035Y-59882D01*
X75054Y-60004D02*
X75111Y-60079D01*
X75111Y-59948D02*
X75035Y-60023D01*
G54D11*
X78457Y-49621D02*
X78357Y-49478D01*
X78285Y-49621D02*
X78285Y-49321D01*
X78399Y-49321D01*
X78428Y-49335D01*
X78442Y-49350D01*
X78457Y-49378D01*
X78457Y-49421D01*
X78442Y-49450D01*
X78428Y-49464D01*
X78399Y-49478D01*
X78285Y-49478D01*
X78628Y-49621D02*
X78599Y-49607D01*
X78585Y-49592D01*
X78571Y-49564D01*
X78571Y-49478D01*
X78585Y-49450D01*
X78599Y-49435D01*
X78628Y-49421D01*
X78671Y-49421D01*
X78699Y-49435D01*
X78714Y-49450D01*
X78728Y-49478D01*
X78728Y-49564D01*
X78714Y-49592D01*
X78699Y-49607D01*
X78671Y-49621D01*
X78628Y-49621D01*
X78857Y-49421D02*
X78857Y-49721D01*
X78857Y-49435D02*
X78885Y-49421D01*
X78942Y-49421D01*
X78971Y-49435D01*
X78985Y-49450D01*
X79000Y-49478D01*
X79000Y-49564D01*
X78985Y-49592D01*
X78971Y-49607D01*
X78942Y-49621D01*
X78885Y-49621D01*
X78857Y-49607D01*
X79085Y-49421D02*
X79200Y-49421D01*
X79128Y-49321D02*
X79128Y-49578D01*
X79142Y-49607D01*
X79171Y-49621D01*
X79200Y-49621D01*
X79342Y-49621D02*
X79314Y-49607D01*
X79300Y-49592D01*
X79285Y-49564D01*
X79285Y-49478D01*
X79300Y-49450D01*
X79314Y-49435D01*
X79342Y-49421D01*
X79385Y-49421D01*
X79414Y-49435D01*
X79428Y-49450D01*
X79442Y-49478D01*
X79442Y-49564D01*
X79428Y-49592D01*
X79414Y-49607D01*
X79385Y-49621D01*
X79342Y-49621D01*
X79542Y-49321D02*
X79728Y-49321D01*
X79628Y-49435D01*
X79671Y-49435D01*
X79700Y-49450D01*
X79714Y-49464D01*
X79728Y-49492D01*
X79728Y-49564D01*
X79714Y-49592D01*
X79700Y-49607D01*
X79671Y-49621D01*
X79585Y-49621D01*
X79557Y-49607D01*
X79542Y-49592D01*
X81457Y-49621D02*
X81357Y-49478D01*
X81285Y-49621D02*
X81285Y-49321D01*
X81399Y-49321D01*
X81428Y-49335D01*
X81442Y-49350D01*
X81457Y-49378D01*
X81457Y-49421D01*
X81442Y-49450D01*
X81428Y-49464D01*
X81399Y-49478D01*
X81285Y-49478D01*
X81628Y-49621D02*
X81599Y-49607D01*
X81585Y-49592D01*
X81571Y-49564D01*
X81571Y-49478D01*
X81585Y-49450D01*
X81599Y-49435D01*
X81628Y-49421D01*
X81671Y-49421D01*
X81699Y-49435D01*
X81714Y-49450D01*
X81728Y-49478D01*
X81728Y-49564D01*
X81714Y-49592D01*
X81699Y-49607D01*
X81671Y-49621D01*
X81628Y-49621D01*
X81857Y-49421D02*
X81857Y-49721D01*
X81857Y-49435D02*
X81885Y-49421D01*
X81942Y-49421D01*
X81971Y-49435D01*
X81985Y-49450D01*
X82000Y-49478D01*
X82000Y-49564D01*
X81985Y-49592D01*
X81971Y-49607D01*
X81942Y-49621D01*
X81885Y-49621D01*
X81857Y-49607D01*
X82085Y-49421D02*
X82200Y-49421D01*
X82128Y-49321D02*
X82128Y-49578D01*
X82142Y-49607D01*
X82171Y-49621D01*
X82200Y-49621D01*
X82342Y-49621D02*
X82314Y-49607D01*
X82300Y-49592D01*
X82285Y-49564D01*
X82285Y-49478D01*
X82300Y-49450D01*
X82314Y-49435D01*
X82342Y-49421D01*
X82385Y-49421D01*
X82414Y-49435D01*
X82428Y-49450D01*
X82442Y-49478D01*
X82442Y-49564D01*
X82428Y-49592D01*
X82414Y-49607D01*
X82385Y-49621D01*
X82342Y-49621D01*
X82557Y-49350D02*
X82571Y-49335D01*
X82600Y-49321D01*
X82671Y-49321D01*
X82700Y-49335D01*
X82714Y-49350D01*
X82728Y-49378D01*
X82728Y-49407D01*
X82714Y-49450D01*
X82542Y-49621D01*
X82728Y-49621D01*
X84207Y-49621D02*
X84107Y-49478D01*
X84035Y-49621D02*
X84035Y-49321D01*
X84149Y-49321D01*
X84178Y-49335D01*
X84192Y-49350D01*
X84207Y-49378D01*
X84207Y-49421D01*
X84192Y-49450D01*
X84178Y-49464D01*
X84149Y-49478D01*
X84035Y-49478D01*
X84378Y-49621D02*
X84349Y-49607D01*
X84335Y-49592D01*
X84321Y-49564D01*
X84321Y-49478D01*
X84335Y-49450D01*
X84349Y-49435D01*
X84378Y-49421D01*
X84421Y-49421D01*
X84449Y-49435D01*
X84464Y-49450D01*
X84478Y-49478D01*
X84478Y-49564D01*
X84464Y-49592D01*
X84449Y-49607D01*
X84421Y-49621D01*
X84378Y-49621D01*
X84607Y-49421D02*
X84607Y-49721D01*
X84607Y-49435D02*
X84635Y-49421D01*
X84692Y-49421D01*
X84721Y-49435D01*
X84735Y-49450D01*
X84750Y-49478D01*
X84750Y-49564D01*
X84735Y-49592D01*
X84721Y-49607D01*
X84692Y-49621D01*
X84635Y-49621D01*
X84607Y-49607D01*
X84835Y-49421D02*
X84950Y-49421D01*
X84878Y-49321D02*
X84878Y-49578D01*
X84892Y-49607D01*
X84921Y-49621D01*
X84950Y-49621D01*
X85092Y-49621D02*
X85064Y-49607D01*
X85050Y-49592D01*
X85035Y-49564D01*
X85035Y-49478D01*
X85050Y-49450D01*
X85064Y-49435D01*
X85092Y-49421D01*
X85135Y-49421D01*
X85164Y-49435D01*
X85178Y-49450D01*
X85192Y-49478D01*
X85192Y-49564D01*
X85178Y-49592D01*
X85164Y-49607D01*
X85135Y-49621D01*
X85092Y-49621D01*
X85478Y-49621D02*
X85307Y-49621D01*
X85392Y-49621D02*
X85392Y-49321D01*
X85364Y-49364D01*
X85335Y-49392D01*
X85307Y-49407D01*
X81692Y-61121D02*
X81592Y-60978D01*
X81521Y-61121D02*
X81521Y-60821D01*
X81635Y-60821D01*
X81664Y-60835D01*
X81678Y-60850D01*
X81692Y-60878D01*
X81692Y-60921D01*
X81678Y-60950D01*
X81664Y-60964D01*
X81635Y-60978D01*
X81521Y-60978D01*
X81821Y-61121D02*
X81821Y-60821D01*
X81950Y-60850D02*
X81964Y-60835D01*
X81992Y-60821D01*
X82064Y-60821D01*
X82092Y-60835D01*
X82107Y-60850D01*
X82121Y-60878D01*
X82121Y-60907D01*
X82107Y-60950D01*
X81935Y-61121D01*
X82121Y-61121D01*
X82421Y-61092D02*
X82407Y-61107D01*
X82364Y-61121D01*
X82335Y-61121D01*
X82292Y-61107D01*
X82264Y-61078D01*
X82250Y-61050D01*
X82235Y-60992D01*
X82235Y-60950D01*
X82250Y-60892D01*
X82264Y-60864D01*
X82292Y-60835D01*
X82335Y-60821D01*
X82364Y-60821D01*
X82407Y-60835D01*
X82421Y-60850D01*
X82535Y-61107D02*
X82564Y-61121D01*
X82621Y-61121D01*
X82650Y-61107D01*
X82664Y-61078D01*
X82664Y-61064D01*
X82650Y-61035D01*
X82621Y-61021D01*
X82578Y-61021D01*
X82550Y-61007D01*
X82535Y-60978D01*
X82535Y-60964D01*
X82550Y-60935D01*
X82578Y-60921D01*
X82621Y-60921D01*
X82650Y-60935D01*
X82921Y-61121D02*
X82921Y-60821D01*
X82921Y-61107D02*
X82892Y-61121D01*
X82835Y-61121D01*
X82807Y-61107D01*
X82792Y-61092D01*
X82778Y-61064D01*
X82778Y-60978D01*
X82792Y-60950D01*
X82807Y-60935D01*
X82835Y-60921D01*
X82892Y-60921D01*
X82921Y-60935D01*
X83192Y-61121D02*
X83192Y-60964D01*
X83178Y-60935D01*
X83150Y-60921D01*
X83092Y-60921D01*
X83064Y-60935D01*
X83192Y-61107D02*
X83164Y-61121D01*
X83092Y-61121D01*
X83064Y-61107D01*
X83050Y-61078D01*
X83050Y-61050D01*
X83064Y-61021D01*
X83092Y-61007D01*
X83164Y-61007D01*
X83192Y-60992D01*
X83492Y-61121D02*
X83321Y-61121D01*
X83407Y-61121D02*
X83407Y-60821D01*
X83378Y-60864D01*
X83350Y-60892D01*
X83321Y-60907D01*
X75621Y-49392D02*
X75478Y-49492D01*
X75621Y-49564D02*
X75321Y-49564D01*
X75321Y-49450D01*
X75335Y-49421D01*
X75350Y-49407D01*
X75378Y-49392D01*
X75421Y-49392D01*
X75450Y-49407D01*
X75464Y-49421D01*
X75478Y-49450D01*
X75478Y-49564D01*
X75621Y-49221D02*
X75607Y-49250D01*
X75578Y-49264D01*
X75321Y-49264D01*
X75607Y-48992D02*
X75621Y-49021D01*
X75621Y-49078D01*
X75607Y-49107D01*
X75578Y-49121D01*
X75464Y-49121D01*
X75435Y-49107D01*
X75421Y-49078D01*
X75421Y-49021D01*
X75435Y-48992D01*
X75464Y-48978D01*
X75492Y-48978D01*
X75521Y-49121D01*
X75621Y-48721D02*
X75321Y-48721D01*
X75607Y-48721D02*
X75621Y-48749D01*
X75621Y-48807D01*
X75607Y-48835D01*
X75592Y-48849D01*
X75564Y-48864D01*
X75478Y-48864D01*
X75450Y-48849D01*
X75435Y-48835D01*
X75421Y-48807D01*
X75421Y-48749D01*
X75435Y-48721D01*
X75621Y-48421D02*
X75621Y-48592D01*
X75621Y-48507D02*
X75321Y-48507D01*
X75364Y-48535D01*
X75392Y-48564D01*
X75407Y-48592D01*
X74121Y-49392D02*
X73978Y-49492D01*
X74121Y-49564D02*
X73821Y-49564D01*
X73821Y-49450D01*
X73835Y-49421D01*
X73850Y-49407D01*
X73878Y-49392D01*
X73921Y-49392D01*
X73950Y-49407D01*
X73964Y-49421D01*
X73978Y-49450D01*
X73978Y-49564D01*
X74121Y-49221D02*
X74107Y-49250D01*
X74078Y-49264D01*
X73821Y-49264D01*
X74107Y-48992D02*
X74121Y-49021D01*
X74121Y-49078D01*
X74107Y-49107D01*
X74078Y-49121D01*
X73964Y-49121D01*
X73935Y-49107D01*
X73921Y-49078D01*
X73921Y-49021D01*
X73935Y-48992D01*
X73964Y-48978D01*
X73992Y-48978D01*
X74021Y-49121D01*
X74121Y-48721D02*
X73821Y-48721D01*
X74107Y-48721D02*
X74121Y-48749D01*
X74121Y-48807D01*
X74107Y-48835D01*
X74092Y-48849D01*
X74064Y-48864D01*
X73978Y-48864D01*
X73950Y-48849D01*
X73935Y-48835D01*
X73921Y-48807D01*
X73921Y-48749D01*
X73935Y-48721D01*
X73850Y-48592D02*
X73835Y-48578D01*
X73821Y-48549D01*
X73821Y-48478D01*
X73835Y-48449D01*
X73850Y-48435D01*
X73878Y-48421D01*
X73907Y-48421D01*
X73950Y-48435D01*
X74121Y-48607D01*
X74121Y-48421D01*
X90621Y-63842D02*
X90478Y-63942D01*
X90621Y-64014D02*
X90321Y-64014D01*
X90321Y-63900D01*
X90335Y-63871D01*
X90350Y-63857D01*
X90378Y-63842D01*
X90421Y-63842D01*
X90450Y-63857D01*
X90464Y-63871D01*
X90478Y-63900D01*
X90478Y-64014D01*
X90621Y-63714D02*
X90321Y-63714D01*
X90350Y-63585D02*
X90335Y-63571D01*
X90321Y-63542D01*
X90321Y-63471D01*
X90335Y-63442D01*
X90350Y-63428D01*
X90378Y-63414D01*
X90407Y-63414D01*
X90450Y-63428D01*
X90621Y-63600D01*
X90621Y-63414D01*
X90607Y-63300D02*
X90621Y-63271D01*
X90621Y-63214D01*
X90607Y-63185D01*
X90578Y-63171D01*
X90564Y-63171D01*
X90535Y-63185D01*
X90521Y-63214D01*
X90521Y-63257D01*
X90507Y-63285D01*
X90478Y-63300D01*
X90464Y-63300D01*
X90435Y-63285D01*
X90421Y-63257D01*
X90421Y-63214D01*
X90435Y-63185D01*
X90607Y-62914D02*
X90621Y-62942D01*
X90621Y-63000D01*
X90607Y-63028D01*
X90592Y-63042D01*
X90564Y-63057D01*
X90478Y-63057D01*
X90450Y-63042D01*
X90435Y-63028D01*
X90421Y-63000D01*
X90421Y-62942D01*
X90435Y-62914D01*
X90621Y-62742D02*
X90607Y-62771D01*
X90578Y-62785D01*
X90321Y-62785D01*
X90621Y-62471D02*
X90621Y-62642D01*
X90621Y-62557D02*
X90321Y-62557D01*
X90364Y-62585D01*
X90392Y-62614D01*
X90407Y-62642D01*
X91871Y-64657D02*
X91728Y-64757D01*
X91871Y-64828D02*
X91571Y-64828D01*
X91571Y-64714D01*
X91585Y-64685D01*
X91600Y-64671D01*
X91628Y-64657D01*
X91671Y-64657D01*
X91700Y-64671D01*
X91714Y-64685D01*
X91728Y-64714D01*
X91728Y-64828D01*
X91871Y-64528D02*
X91571Y-64528D01*
X91600Y-64400D02*
X91585Y-64385D01*
X91571Y-64357D01*
X91571Y-64285D01*
X91585Y-64257D01*
X91600Y-64242D01*
X91628Y-64228D01*
X91657Y-64228D01*
X91700Y-64242D01*
X91871Y-64414D01*
X91871Y-64228D01*
X91857Y-64114D02*
X91871Y-64085D01*
X91871Y-64028D01*
X91857Y-64000D01*
X91828Y-63985D01*
X91814Y-63985D01*
X91785Y-64000D01*
X91771Y-64028D01*
X91771Y-64071D01*
X91757Y-64100D01*
X91728Y-64114D01*
X91714Y-64114D01*
X91685Y-64100D01*
X91671Y-64071D01*
X91671Y-64028D01*
X91685Y-64000D01*
X91871Y-63728D02*
X91571Y-63728D01*
X91857Y-63728D02*
X91871Y-63757D01*
X91871Y-63814D01*
X91857Y-63842D01*
X91842Y-63857D01*
X91814Y-63871D01*
X91728Y-63871D01*
X91700Y-63857D01*
X91685Y-63842D01*
X91671Y-63814D01*
X91671Y-63757D01*
X91685Y-63728D01*
X91871Y-63457D02*
X91714Y-63457D01*
X91685Y-63471D01*
X91671Y-63500D01*
X91671Y-63557D01*
X91685Y-63585D01*
X91857Y-63457D02*
X91871Y-63485D01*
X91871Y-63557D01*
X91857Y-63585D01*
X91828Y-63600D01*
X91800Y-63600D01*
X91771Y-63585D01*
X91757Y-63557D01*
X91757Y-63485D01*
X91742Y-63457D01*
X91871Y-63157D02*
X91871Y-63328D01*
X91871Y-63242D02*
X91571Y-63242D01*
X91614Y-63271D01*
X91642Y-63300D01*
X91657Y-63328D01*
X82257Y-58371D02*
X82157Y-58228D01*
X82085Y-58371D02*
X82085Y-58071D01*
X82200Y-58071D01*
X82228Y-58085D01*
X82242Y-58100D01*
X82257Y-58128D01*
X82257Y-58171D01*
X82242Y-58200D01*
X82228Y-58214D01*
X82200Y-58228D01*
X82085Y-58228D01*
X82385Y-58371D02*
X82385Y-58071D01*
X82514Y-58100D02*
X82528Y-58085D01*
X82557Y-58071D01*
X82628Y-58071D01*
X82657Y-58085D01*
X82671Y-58100D01*
X82685Y-58128D01*
X82685Y-58157D01*
X82671Y-58200D01*
X82500Y-58371D01*
X82685Y-58371D01*
X82985Y-58342D02*
X82971Y-58357D01*
X82928Y-58371D01*
X82900Y-58371D01*
X82857Y-58357D01*
X82828Y-58328D01*
X82814Y-58300D01*
X82800Y-58242D01*
X82800Y-58200D01*
X82814Y-58142D01*
X82828Y-58114D01*
X82857Y-58085D01*
X82900Y-58071D01*
X82928Y-58071D01*
X82971Y-58085D01*
X82985Y-58100D01*
X83100Y-58357D02*
X83128Y-58371D01*
X83185Y-58371D01*
X83214Y-58357D01*
X83228Y-58328D01*
X83228Y-58314D01*
X83214Y-58285D01*
X83185Y-58271D01*
X83142Y-58271D01*
X83114Y-58257D01*
X83100Y-58228D01*
X83100Y-58214D01*
X83114Y-58185D01*
X83142Y-58171D01*
X83185Y-58171D01*
X83214Y-58185D01*
X83485Y-58357D02*
X83457Y-58371D01*
X83400Y-58371D01*
X83371Y-58357D01*
X83357Y-58342D01*
X83342Y-58314D01*
X83342Y-58228D01*
X83357Y-58200D01*
X83371Y-58185D01*
X83400Y-58171D01*
X83457Y-58171D01*
X83485Y-58185D01*
X83657Y-58371D02*
X83628Y-58357D01*
X83614Y-58328D01*
X83614Y-58071D01*
X83928Y-58371D02*
X83757Y-58371D01*
X83842Y-58371D02*
X83842Y-58071D01*
X83814Y-58114D01*
X83785Y-58142D01*
X83757Y-58157D01*
G54D21*
X87256Y-42276D02*
X87256Y-41593D01*
X87419Y-41593D01*
X87460Y-41625D01*
X87480Y-41658D01*
X87501Y-41723D01*
X87501Y-41821D01*
X87480Y-41886D01*
X87460Y-41918D01*
X87419Y-41951D01*
X87256Y-41951D01*
X87684Y-42276D02*
X87684Y-41593D01*
X88133Y-42276D02*
X87990Y-41951D01*
X87888Y-42276D02*
X87888Y-41593D01*
X88051Y-41593D01*
X88092Y-41625D01*
X88112Y-41658D01*
X88133Y-41723D01*
X88133Y-41821D01*
X88112Y-41886D01*
X88092Y-41918D01*
X88051Y-41951D01*
X87888Y-41951D01*
X88296Y-42243D02*
X88357Y-42276D01*
X88459Y-42276D01*
X88500Y-42243D01*
X88520Y-42211D01*
X88540Y-42146D01*
X88540Y-42081D01*
X88520Y-42016D01*
X88500Y-41983D01*
X88459Y-41951D01*
X88377Y-41918D01*
X88336Y-41886D01*
X88316Y-41853D01*
X88296Y-41788D01*
X88296Y-41723D01*
X88316Y-41658D01*
X88336Y-41625D01*
X88377Y-41593D01*
X88479Y-41593D01*
X88540Y-41625D01*
X88703Y-41658D02*
X88724Y-41625D01*
X88764Y-41593D01*
X88866Y-41593D01*
X88907Y-41625D01*
X88928Y-41658D01*
X88948Y-41723D01*
X88948Y-41788D01*
X88928Y-41886D01*
X88683Y-42276D01*
X88948Y-42276D01*
X89091Y-41593D02*
X89356Y-41593D01*
X89213Y-41853D01*
X89274Y-41853D01*
X89315Y-41886D01*
X89335Y-41918D01*
X89356Y-41983D01*
X89356Y-42146D01*
X89335Y-42211D01*
X89315Y-42243D01*
X89274Y-42276D01*
X89152Y-42276D01*
X89111Y-42243D01*
X89091Y-42211D01*
X89519Y-41658D02*
X89539Y-41625D01*
X89580Y-41593D01*
X89682Y-41593D01*
X89722Y-41625D01*
X89743Y-41658D01*
X89763Y-41723D01*
X89763Y-41788D01*
X89743Y-41886D01*
X89498Y-42276D01*
X89763Y-42276D01*
G54D13*
G54D21*
X96776Y-58156D02*
X96093Y-58156D01*
X96093Y-57993D01*
X96125Y-57953D01*
X96158Y-57932D01*
X96223Y-57912D01*
X96321Y-57912D01*
X96386Y-57932D01*
X96418Y-57953D01*
X96451Y-57993D01*
X96451Y-58156D01*
X96321Y-57769D02*
X96776Y-57667D01*
X96321Y-57565D01*
X96776Y-57341D02*
X96743Y-57382D01*
X96711Y-57402D01*
X96646Y-57423D01*
X96451Y-57423D01*
X96386Y-57402D01*
X96353Y-57382D01*
X96321Y-57341D01*
X96321Y-57280D01*
X96353Y-57239D01*
X96386Y-57219D01*
X96451Y-57199D01*
X96646Y-57199D01*
X96711Y-57219D01*
X96743Y-57239D01*
X96776Y-57280D01*
X96776Y-57341D01*
X96776Y-56954D02*
X96743Y-56995D01*
X96678Y-57015D01*
X96093Y-57015D01*
X96321Y-56852D02*
X96321Y-56689D01*
X96093Y-56791D02*
X96678Y-56791D01*
X96743Y-56771D01*
X96776Y-56730D01*
X96776Y-56689D01*
X96776Y-56322D02*
X96776Y-56567D01*
X96776Y-56444D02*
X96093Y-56444D01*
X96191Y-56485D01*
X96256Y-56526D01*
X96288Y-56567D01*
G54D13*
G54D21*
X75526Y-63917D02*
X74843Y-63917D01*
X74843Y-63754D01*
X74875Y-63714D01*
X74908Y-63693D01*
X74973Y-63673D01*
X75071Y-63673D01*
X75136Y-63693D01*
X75168Y-63714D01*
X75201Y-63754D01*
X75201Y-63917D01*
X75526Y-63489D02*
X74843Y-63489D01*
X75526Y-63061D02*
X75526Y-63306D01*
X75526Y-63184D02*
X74843Y-63184D01*
X74941Y-63224D01*
X75006Y-63265D01*
X75038Y-63306D01*
G54D13*
G54D21*
X92526Y-63917D02*
X91843Y-63917D01*
X91843Y-63754D01*
X91875Y-63714D01*
X91908Y-63693D01*
X91973Y-63673D01*
X92071Y-63673D01*
X92136Y-63693D01*
X92168Y-63714D01*
X92201Y-63754D01*
X92201Y-63917D01*
X92526Y-63489D02*
X91843Y-63489D01*
X91908Y-63306D02*
X91875Y-63286D01*
X91843Y-63245D01*
X91843Y-63143D01*
X91875Y-63102D01*
X91908Y-63082D01*
X91973Y-63061D01*
X92038Y-63061D01*
X92136Y-63082D01*
X92526Y-63326D01*
X92526Y-63061D01*
G54D13*
G54D21*
X81664Y-60776D02*
X81664Y-60093D01*
X81827Y-60093D01*
X81868Y-60125D01*
X81888Y-60158D01*
X81908Y-60223D01*
X81908Y-60321D01*
X81888Y-60386D01*
X81868Y-60418D01*
X81827Y-60451D01*
X81664Y-60451D01*
X82092Y-60776D02*
X82092Y-60093D01*
X82275Y-60158D02*
X82296Y-60125D01*
X82336Y-60093D01*
X82438Y-60093D01*
X82479Y-60125D01*
X82500Y-60158D01*
X82520Y-60223D01*
X82520Y-60288D01*
X82500Y-60386D01*
X82255Y-60776D01*
X82520Y-60776D01*
X82948Y-60711D02*
X82928Y-60743D01*
X82866Y-60776D01*
X82826Y-60776D01*
X82764Y-60743D01*
X82724Y-60678D01*
X82703Y-60613D01*
X82683Y-60483D01*
X82683Y-60386D01*
X82703Y-60256D01*
X82724Y-60191D01*
X82764Y-60125D01*
X82826Y-60093D01*
X82866Y-60093D01*
X82928Y-60125D01*
X82948Y-60158D01*
X83356Y-60776D02*
X83111Y-60776D01*
X83233Y-60776D02*
X83233Y-60093D01*
X83192Y-60191D01*
X83152Y-60256D01*
X83111Y-60288D01*
G54D13*
G54D21*
X78230Y-42275D02*
X78230Y-41594D01*
X78394Y-41594D01*
X78434Y-41627D01*
X78455Y-41659D01*
X78475Y-41724D01*
X78475Y-41821D01*
X78455Y-41886D01*
X78434Y-41918D01*
X78394Y-41951D01*
X78230Y-41951D01*
X78720Y-42275D02*
X78679Y-42243D01*
X78658Y-42210D01*
X78638Y-42145D01*
X78638Y-41951D01*
X78658Y-41886D01*
X78679Y-41854D01*
X78720Y-41821D01*
X78781Y-41821D01*
X78822Y-41854D01*
X78842Y-41886D01*
X78862Y-41951D01*
X78862Y-42145D01*
X78842Y-42210D01*
X78822Y-42243D01*
X78781Y-42275D01*
X78720Y-42275D01*
X79046Y-41821D02*
X79046Y-42502D01*
X79046Y-41854D02*
X79086Y-41821D01*
X79168Y-41821D01*
X79209Y-41854D01*
X79229Y-41886D01*
X79250Y-41951D01*
X79250Y-42145D01*
X79229Y-42210D01*
X79209Y-42243D01*
X79168Y-42275D01*
X79086Y-42275D01*
X79046Y-42243D01*
X79372Y-41821D02*
X79535Y-41821D01*
X79433Y-41594D02*
X79433Y-42178D01*
X79453Y-42243D01*
X79494Y-42275D01*
X79535Y-42275D01*
X79739Y-42275D02*
X79698Y-42243D01*
X79678Y-42210D01*
X79657Y-42145D01*
X79657Y-41951D01*
X79678Y-41886D01*
X79698Y-41854D01*
X79739Y-41821D01*
X79800Y-41821D01*
X79841Y-41854D01*
X79861Y-41886D01*
X79881Y-41951D01*
X79881Y-42145D01*
X79861Y-42210D01*
X79841Y-42243D01*
X79800Y-42275D01*
X79739Y-42275D01*
X80024Y-41594D02*
X80289Y-41594D01*
X80146Y-41854D01*
X80207Y-41854D01*
X80248Y-41886D01*
X80269Y-41918D01*
X80289Y-41983D01*
X80289Y-42145D01*
X80269Y-42210D01*
X80248Y-42243D01*
X80207Y-42275D01*
X80085Y-42275D01*
X80044Y-42243D01*
X80024Y-42210D01*
G54D13*
G54D21*
X74775Y-61192D02*
X74094Y-61192D01*
X74094Y-61029D01*
X74127Y-60988D01*
X74159Y-60968D01*
X74224Y-60947D01*
X74321Y-60947D01*
X74386Y-60968D01*
X74418Y-60988D01*
X74451Y-61029D01*
X74451Y-61192D01*
X74743Y-60784D02*
X74775Y-60743D01*
X74775Y-60662D01*
X74743Y-60621D01*
X74678Y-60601D01*
X74645Y-60601D01*
X74581Y-60621D01*
X74548Y-60662D01*
X74548Y-60723D01*
X74516Y-60764D01*
X74451Y-60784D01*
X74418Y-60784D01*
X74354Y-60764D01*
X74321Y-60723D01*
X74321Y-60662D01*
X74354Y-60621D01*
X74775Y-60417D02*
X74094Y-60417D01*
X74775Y-60234D02*
X74418Y-60234D01*
X74354Y-60254D01*
X74321Y-60295D01*
X74321Y-60356D01*
X74354Y-60397D01*
X74386Y-60417D01*
X74321Y-59847D02*
X74775Y-59847D01*
X74321Y-60030D02*
X74678Y-60030D01*
X74743Y-60010D01*
X74775Y-59969D01*
X74775Y-59908D01*
X74743Y-59867D01*
X74710Y-59847D01*
X74321Y-59643D02*
X74775Y-59643D01*
X74386Y-59643D02*
X74354Y-59622D01*
X74321Y-59582D01*
X74321Y-59521D01*
X74354Y-59480D01*
X74418Y-59459D01*
X74775Y-59459D01*
X74321Y-59317D02*
X74321Y-59154D01*
X74094Y-59256D02*
X74678Y-59256D01*
X74743Y-59235D01*
X74775Y-59194D01*
X74775Y-59154D01*
X74775Y-58787D02*
X74775Y-59031D01*
X74775Y-58909D02*
X74094Y-58909D01*
X74191Y-58950D01*
X74256Y-58991D01*
X74289Y-59031D01*
G54D13*
G54D21*
X80980Y-42275D02*
X80980Y-41594D01*
X81144Y-41594D01*
X81184Y-41627D01*
X81205Y-41659D01*
X81225Y-41724D01*
X81225Y-41821D01*
X81205Y-41886D01*
X81184Y-41918D01*
X81144Y-41951D01*
X80980Y-41951D01*
X81470Y-42275D02*
X81429Y-42243D01*
X81408Y-42210D01*
X81388Y-42145D01*
X81388Y-41951D01*
X81408Y-41886D01*
X81429Y-41854D01*
X81470Y-41821D01*
X81531Y-41821D01*
X81572Y-41854D01*
X81592Y-41886D01*
X81612Y-41951D01*
X81612Y-42145D01*
X81592Y-42210D01*
X81572Y-42243D01*
X81531Y-42275D01*
X81470Y-42275D01*
X81796Y-41821D02*
X81796Y-42502D01*
X81796Y-41854D02*
X81836Y-41821D01*
X81918Y-41821D01*
X81959Y-41854D01*
X81979Y-41886D01*
X82000Y-41951D01*
X82000Y-42145D01*
X81979Y-42210D01*
X81959Y-42243D01*
X81918Y-42275D01*
X81836Y-42275D01*
X81796Y-42243D01*
X82122Y-41821D02*
X82285Y-41821D01*
X82183Y-41594D02*
X82183Y-42178D01*
X82203Y-42243D01*
X82244Y-42275D01*
X82285Y-42275D01*
X82489Y-42275D02*
X82448Y-42243D01*
X82428Y-42210D01*
X82407Y-42145D01*
X82407Y-41951D01*
X82428Y-41886D01*
X82448Y-41854D01*
X82489Y-41821D01*
X82550Y-41821D01*
X82591Y-41854D01*
X82611Y-41886D01*
X82631Y-41951D01*
X82631Y-42145D01*
X82611Y-42210D01*
X82591Y-42243D01*
X82550Y-42275D01*
X82489Y-42275D01*
X82794Y-41659D02*
X82815Y-41627D01*
X82856Y-41594D01*
X82957Y-41594D01*
X82998Y-41627D01*
X83019Y-41659D01*
X83039Y-41724D01*
X83039Y-41789D01*
X83019Y-41886D01*
X82774Y-42275D01*
X83039Y-42275D01*
G54D13*
G54D21*
X83730Y-42275D02*
X83730Y-41594D01*
X83894Y-41594D01*
X83934Y-41627D01*
X83955Y-41659D01*
X83975Y-41724D01*
X83975Y-41821D01*
X83955Y-41886D01*
X83934Y-41918D01*
X83894Y-41951D01*
X83730Y-41951D01*
X84220Y-42275D02*
X84179Y-42243D01*
X84158Y-42210D01*
X84138Y-42145D01*
X84138Y-41951D01*
X84158Y-41886D01*
X84179Y-41854D01*
X84220Y-41821D01*
X84281Y-41821D01*
X84322Y-41854D01*
X84342Y-41886D01*
X84362Y-41951D01*
X84362Y-42145D01*
X84342Y-42210D01*
X84322Y-42243D01*
X84281Y-42275D01*
X84220Y-42275D01*
X84546Y-41821D02*
X84546Y-42502D01*
X84546Y-41854D02*
X84586Y-41821D01*
X84668Y-41821D01*
X84709Y-41854D01*
X84729Y-41886D01*
X84750Y-41951D01*
X84750Y-42145D01*
X84729Y-42210D01*
X84709Y-42243D01*
X84668Y-42275D01*
X84586Y-42275D01*
X84546Y-42243D01*
X84872Y-41821D02*
X85035Y-41821D01*
X84933Y-41594D02*
X84933Y-42178D01*
X84953Y-42243D01*
X84994Y-42275D01*
X85035Y-42275D01*
X85239Y-42275D02*
X85198Y-42243D01*
X85178Y-42210D01*
X85157Y-42145D01*
X85157Y-41951D01*
X85178Y-41886D01*
X85198Y-41854D01*
X85239Y-41821D01*
X85300Y-41821D01*
X85341Y-41854D01*
X85361Y-41886D01*
X85381Y-41951D01*
X85381Y-42145D01*
X85361Y-42210D01*
X85341Y-42243D01*
X85300Y-42275D01*
X85239Y-42275D01*
X85789Y-42275D02*
X85544Y-42275D01*
X85667Y-42275D02*
X85667Y-41594D01*
X85626Y-41691D01*
X85585Y-41756D01*
X85544Y-41789D01*
G54D13*
G54D22*
X93742Y-57309D02*
X93457Y-57442D01*
X93742Y-57538D02*
X93142Y-57538D01*
X93142Y-57385D01*
X93171Y-57347D01*
X93200Y-57328D01*
X93257Y-57309D01*
X93342Y-57309D01*
X93400Y-57328D01*
X93428Y-57347D01*
X93457Y-57385D01*
X93457Y-57538D01*
X93142Y-57195D02*
X93742Y-57061D01*
X93142Y-56928D01*
X93742Y-56566D02*
X93457Y-56699D01*
X93742Y-56795D02*
X93142Y-56795D01*
X93142Y-56642D01*
X93171Y-56604D01*
X93200Y-56585D01*
X93257Y-56566D01*
X93342Y-56566D01*
X93400Y-56585D01*
X93428Y-56604D01*
X93457Y-56642D01*
X93457Y-56795D01*
X93200Y-56414D02*
X93171Y-56395D01*
X93142Y-56357D01*
X93142Y-56261D01*
X93171Y-56223D01*
X93200Y-56204D01*
X93257Y-56185D01*
X93314Y-56185D01*
X93400Y-56204D01*
X93742Y-56433D01*
X93742Y-56185D01*
X93742Y-56014D02*
X93142Y-56014D01*
X93371Y-56014D02*
X93342Y-55976D01*
X93342Y-55900D01*
X93371Y-55861D01*
X93400Y-55842D01*
X93457Y-55823D01*
X93628Y-55823D01*
X93685Y-55842D01*
X93714Y-55861D01*
X93742Y-55900D01*
X93742Y-55976D01*
X93714Y-56014D01*
X93742Y-55442D02*
X93742Y-55671D01*
X93742Y-55557D02*
X93142Y-55557D01*
X93228Y-55595D01*
X93285Y-55633D01*
X93314Y-55671D01*
G54D13*
G54D22*
X91992Y-57309D02*
X91707Y-57442D01*
X91992Y-57538D02*
X91392Y-57538D01*
X91392Y-57385D01*
X91421Y-57347D01*
X91450Y-57328D01*
X91507Y-57309D01*
X91592Y-57309D01*
X91650Y-57328D01*
X91678Y-57347D01*
X91707Y-57385D01*
X91707Y-57538D01*
X91392Y-57195D02*
X91992Y-57061D01*
X91392Y-56928D01*
X91992Y-56566D02*
X91707Y-56699D01*
X91992Y-56795D02*
X91392Y-56795D01*
X91392Y-56642D01*
X91421Y-56604D01*
X91450Y-56585D01*
X91507Y-56566D01*
X91592Y-56566D01*
X91650Y-56585D01*
X91678Y-56604D01*
X91707Y-56642D01*
X91707Y-56795D01*
X91450Y-56414D02*
X91421Y-56395D01*
X91392Y-56357D01*
X91392Y-56261D01*
X91421Y-56223D01*
X91450Y-56204D01*
X91507Y-56185D01*
X91564Y-56185D01*
X91650Y-56204D01*
X91992Y-56433D01*
X91992Y-56185D01*
X91992Y-55842D02*
X91678Y-55842D01*
X91621Y-55861D01*
X91592Y-55900D01*
X91592Y-55976D01*
X91621Y-56014D01*
X91964Y-55842D02*
X91992Y-55880D01*
X91992Y-55976D01*
X91964Y-56014D01*
X91907Y-56033D01*
X91850Y-56033D01*
X91792Y-56014D01*
X91764Y-55976D01*
X91764Y-55880D01*
X91735Y-55842D01*
X91992Y-55442D02*
X91992Y-55671D01*
X91992Y-55557D02*
X91392Y-55557D01*
X91478Y-55595D01*
X91535Y-55633D01*
X91564Y-55671D01*
G54D13*
G54D22*
X91992Y-50309D02*
X91707Y-50442D01*
X91992Y-50538D02*
X91392Y-50538D01*
X91392Y-50385D01*
X91421Y-50347D01*
X91450Y-50328D01*
X91507Y-50309D01*
X91592Y-50309D01*
X91650Y-50328D01*
X91678Y-50347D01*
X91707Y-50385D01*
X91707Y-50538D01*
X91392Y-50195D02*
X91992Y-50061D01*
X91392Y-49928D01*
X91992Y-49566D02*
X91707Y-49699D01*
X91992Y-49795D02*
X91392Y-49795D01*
X91392Y-49642D01*
X91421Y-49604D01*
X91450Y-49585D01*
X91507Y-49566D01*
X91592Y-49566D01*
X91650Y-49585D01*
X91678Y-49604D01*
X91707Y-49642D01*
X91707Y-49795D01*
X91992Y-49185D02*
X91992Y-49414D01*
X91992Y-49299D02*
X91392Y-49299D01*
X91478Y-49338D01*
X91535Y-49376D01*
X91564Y-49414D01*
X91992Y-49014D02*
X91392Y-49014D01*
X91621Y-49014D02*
X91592Y-48976D01*
X91592Y-48900D01*
X91621Y-48861D01*
X91650Y-48842D01*
X91707Y-48823D01*
X91878Y-48823D01*
X91935Y-48842D01*
X91964Y-48861D01*
X91992Y-48900D01*
X91992Y-48976D01*
X91964Y-49014D01*
X91992Y-48442D02*
X91992Y-48671D01*
X91992Y-48557D02*
X91392Y-48557D01*
X91478Y-48595D01*
X91535Y-48633D01*
X91564Y-48671D01*
G54D13*
G54D22*
X93742Y-50309D02*
X93457Y-50442D01*
X93742Y-50538D02*
X93142Y-50538D01*
X93142Y-50385D01*
X93171Y-50347D01*
X93200Y-50328D01*
X93257Y-50309D01*
X93342Y-50309D01*
X93400Y-50328D01*
X93428Y-50347D01*
X93457Y-50385D01*
X93457Y-50538D01*
X93142Y-50195D02*
X93742Y-50061D01*
X93142Y-49928D01*
X93742Y-49566D02*
X93457Y-49699D01*
X93742Y-49795D02*
X93142Y-49795D01*
X93142Y-49642D01*
X93171Y-49604D01*
X93200Y-49585D01*
X93257Y-49566D01*
X93342Y-49566D01*
X93400Y-49585D01*
X93428Y-49604D01*
X93457Y-49642D01*
X93457Y-49795D01*
X93742Y-49185D02*
X93742Y-49414D01*
X93742Y-49299D02*
X93142Y-49299D01*
X93228Y-49338D01*
X93285Y-49376D01*
X93314Y-49414D01*
X93742Y-48842D02*
X93428Y-48842D01*
X93371Y-48861D01*
X93342Y-48900D01*
X93342Y-48976D01*
X93371Y-49014D01*
X93714Y-48842D02*
X93742Y-48880D01*
X93742Y-48976D01*
X93714Y-49014D01*
X93657Y-49033D01*
X93600Y-49033D01*
X93542Y-49014D01*
X93514Y-48976D01*
X93514Y-48880D01*
X93485Y-48842D01*
X93742Y-48442D02*
X93742Y-48671D01*
X93742Y-48557D02*
X93142Y-48557D01*
X93228Y-48595D01*
X93285Y-48633D01*
X93314Y-48671D01*
G54D13*
G54D23*
X73521Y-47214D02*
X73221Y-47214D01*
X73221Y-47142D01*
X73235Y-47100D01*
X73264Y-47071D01*
X73292Y-47057D01*
X73350Y-47042D01*
X73392Y-47042D01*
X73450Y-47057D01*
X73478Y-47071D01*
X73507Y-47100D01*
X73521Y-47142D01*
X73521Y-47214D01*
X73521Y-46871D02*
X73507Y-46900D01*
X73478Y-46914D01*
X73221Y-46914D01*
X73507Y-46642D02*
X73521Y-46671D01*
X73521Y-46728D01*
X73507Y-46757D01*
X73478Y-46771D01*
X73364Y-46771D01*
X73335Y-46757D01*
X73321Y-46728D01*
X73321Y-46671D01*
X73335Y-46642D01*
X73364Y-46628D01*
X73392Y-46628D01*
X73421Y-46771D01*
X73521Y-46371D02*
X73221Y-46371D01*
X73507Y-46371D02*
X73521Y-46399D01*
X73521Y-46457D01*
X73507Y-46485D01*
X73492Y-46499D01*
X73464Y-46514D01*
X73378Y-46514D01*
X73350Y-46499D01*
X73335Y-46485D01*
X73321Y-46457D01*
X73321Y-46399D01*
X73335Y-46371D01*
X73250Y-46242D02*
X73235Y-46228D01*
X73221Y-46199D01*
X73221Y-46128D01*
X73235Y-46099D01*
X73250Y-46085D01*
X73278Y-46071D01*
X73307Y-46071D01*
X73350Y-46085D01*
X73521Y-46257D01*
X73521Y-46071D01*
X74721Y-46942D02*
X74721Y-47085D01*
X74421Y-47085D01*
X74564Y-46842D02*
X74564Y-46742D01*
X74721Y-46700D02*
X74721Y-46842D01*
X74421Y-46842D01*
X74421Y-46700D01*
X74721Y-46571D02*
X74421Y-46571D01*
X74421Y-46500D01*
X74435Y-46457D01*
X74464Y-46428D01*
X74492Y-46414D01*
X74550Y-46400D01*
X74592Y-46400D01*
X74650Y-46414D01*
X74678Y-46428D01*
X74707Y-46457D01*
X74721Y-46500D01*
X74721Y-46571D01*
X75021Y-47214D02*
X74721Y-47214D01*
X74721Y-47142D01*
X74735Y-47100D01*
X74764Y-47071D01*
X74792Y-47057D01*
X74850Y-47042D01*
X74892Y-47042D01*
X74950Y-47057D01*
X74978Y-47071D01*
X75007Y-47100D01*
X75021Y-47142D01*
X75021Y-47214D01*
X75021Y-46871D02*
X75007Y-46900D01*
X74978Y-46914D01*
X74721Y-46914D01*
X75007Y-46642D02*
X75021Y-46671D01*
X75021Y-46728D01*
X75007Y-46757D01*
X74978Y-46771D01*
X74864Y-46771D01*
X74835Y-46757D01*
X74821Y-46728D01*
X74821Y-46671D01*
X74835Y-46642D01*
X74864Y-46628D01*
X74892Y-46628D01*
X74921Y-46771D01*
X75021Y-46371D02*
X74721Y-46371D01*
X75007Y-46371D02*
X75021Y-46399D01*
X75021Y-46457D01*
X75007Y-46485D01*
X74992Y-46499D01*
X74964Y-46514D01*
X74878Y-46514D01*
X74850Y-46499D01*
X74835Y-46485D01*
X74821Y-46457D01*
X74821Y-46399D01*
X74835Y-46371D01*
X75021Y-46071D02*
X75021Y-46242D01*
X75021Y-46157D02*
X74721Y-46157D01*
X74764Y-46185D01*
X74792Y-46214D01*
X74807Y-46242D01*
X76221Y-46942D02*
X76221Y-47085D01*
X75921Y-47085D01*
X76064Y-46842D02*
X76064Y-46742D01*
X76221Y-46700D02*
X76221Y-46842D01*
X75921Y-46842D01*
X75921Y-46700D01*
X76221Y-46571D02*
X75921Y-46571D01*
X75921Y-46500D01*
X75935Y-46457D01*
X75964Y-46428D01*
X75992Y-46414D01*
X76050Y-46400D01*
X76092Y-46400D01*
X76150Y-46414D01*
X76178Y-46428D01*
X76207Y-46457D01*
X76221Y-46500D01*
X76221Y-46571D01*
M02*
