G04 (created by PCBNEW (22-Jun-2014 BZR 4027)-stable) date Wed 30 Jul 2014 01:02:49 NZST*
%MOIN*%
G04 Gerber Fmt 3.4, Leading zero omitted, Abs format*
%FSLAX34Y34*%
G01*
G70*
G90*
G04 APERTURE LIST*
%ADD10C,0.00590551*%
%ADD11C,0.005*%
%ADD12C,0.0031*%
%ADD13C,0.006*%
%ADD14C,0.0047*%
%ADD15C,0.0039*%
G04 APERTURE END LIST*
G54D10*
G54D11*
X80800Y-64050D02*
X80750Y-64050D01*
X80750Y-64050D02*
X80750Y-61950D01*
X82250Y-61950D02*
X82250Y-64050D01*
X82250Y-64050D02*
X80800Y-64050D01*
X81700Y-64050D02*
X81700Y-63850D01*
X81700Y-63850D02*
X81300Y-63850D01*
X81300Y-63850D02*
X81300Y-64050D01*
X82250Y-61950D02*
X80750Y-61950D01*
X75450Y-64000D02*
X74550Y-64000D01*
X74550Y-64000D02*
X74550Y-63350D01*
X75450Y-62650D02*
X75450Y-62000D01*
X75450Y-62000D02*
X74550Y-62000D01*
X74550Y-62000D02*
X74550Y-62650D01*
X75450Y-63350D02*
X75450Y-64000D01*
X74450Y-64000D02*
X73550Y-64000D01*
X73550Y-64000D02*
X73550Y-63350D01*
X74450Y-62650D02*
X74450Y-62000D01*
X74450Y-62000D02*
X73550Y-62000D01*
X73550Y-62000D02*
X73550Y-62650D01*
X74450Y-63350D02*
X74450Y-64000D01*
X84700Y-64000D02*
X83800Y-64000D01*
X83800Y-64000D02*
X83800Y-63350D01*
X84700Y-62650D02*
X84700Y-62000D01*
X84700Y-62000D02*
X83800Y-62000D01*
X83800Y-62000D02*
X83800Y-62650D01*
X84700Y-63350D02*
X84700Y-64000D01*
X85700Y-64000D02*
X84800Y-64000D01*
X84800Y-64000D02*
X84800Y-63350D01*
X85700Y-62650D02*
X85700Y-62000D01*
X85700Y-62000D02*
X84800Y-62000D01*
X84800Y-62000D02*
X84800Y-62650D01*
X85700Y-63350D02*
X85700Y-64000D01*
G54D12*
X80424Y-54213D02*
G75*
G03X80424Y-54213I-62J0D01*
G74*
G01*
X80700Y-53250D02*
X80300Y-53250D01*
X80700Y-54275D02*
X80300Y-54275D01*
X80300Y-53250D02*
X80300Y-54275D01*
X80700Y-54275D02*
X80700Y-53250D01*
G54D11*
X77250Y-53950D02*
X77250Y-53050D01*
X77250Y-53050D02*
X77900Y-53050D01*
X78600Y-53950D02*
X79250Y-53950D01*
X79250Y-53950D02*
X79250Y-53050D01*
X79250Y-53050D02*
X78600Y-53050D01*
X77900Y-53950D02*
X77250Y-53950D01*
X91300Y-55250D02*
X92200Y-55250D01*
X92200Y-55250D02*
X92200Y-55900D01*
X91300Y-56600D02*
X91300Y-57250D01*
X91300Y-57250D02*
X92200Y-57250D01*
X92200Y-57250D02*
X92200Y-56600D01*
X91300Y-55900D02*
X91300Y-55250D01*
X84300Y-53750D02*
X85200Y-53750D01*
X85200Y-53750D02*
X85200Y-54400D01*
X84300Y-55100D02*
X84300Y-55750D01*
X84300Y-55750D02*
X85200Y-55750D01*
X85200Y-55750D02*
X85200Y-55100D01*
X84300Y-54400D02*
X84300Y-53750D01*
X85550Y-53750D02*
X86450Y-53750D01*
X86450Y-53750D02*
X86450Y-54400D01*
X85550Y-55100D02*
X85550Y-55750D01*
X85550Y-55750D02*
X86450Y-55750D01*
X86450Y-55750D02*
X86450Y-55100D01*
X85550Y-54400D02*
X85550Y-53750D01*
X79450Y-64250D02*
X78550Y-64250D01*
X78550Y-64250D02*
X78550Y-63600D01*
X79450Y-62900D02*
X79450Y-62250D01*
X79450Y-62250D02*
X78550Y-62250D01*
X78550Y-62250D02*
X78550Y-62900D01*
X79450Y-63600D02*
X79450Y-64250D01*
X78200Y-65000D02*
X77300Y-65000D01*
X77300Y-65000D02*
X77300Y-64350D01*
X78200Y-63650D02*
X78200Y-63000D01*
X78200Y-63000D02*
X77300Y-63000D01*
X77300Y-63000D02*
X77300Y-63650D01*
X78200Y-64350D02*
X78200Y-65000D01*
G54D13*
X81582Y-62550D02*
X81946Y-62550D01*
X81989Y-62571D01*
X82010Y-62592D01*
X82032Y-62635D01*
X82032Y-62721D01*
X82010Y-62764D01*
X81989Y-62785D01*
X81946Y-62807D01*
X81582Y-62807D01*
X82032Y-63021D02*
X81582Y-63021D01*
X82032Y-63471D02*
X82032Y-63214D01*
X82032Y-63342D02*
X81582Y-63342D01*
X81646Y-63300D01*
X81689Y-63257D01*
X81710Y-63214D01*
X81225Y-62149D02*
X81241Y-62199D01*
X81241Y-62283D01*
X81225Y-62316D01*
X81208Y-62333D01*
X81175Y-62349D01*
X81141Y-62349D01*
X81108Y-62333D01*
X81091Y-62316D01*
X81075Y-62283D01*
X81058Y-62216D01*
X81041Y-62183D01*
X81025Y-62166D01*
X80991Y-62149D01*
X80958Y-62149D01*
X80925Y-62166D01*
X80908Y-62183D01*
X80891Y-62216D01*
X80891Y-62299D01*
X80908Y-62349D01*
X81241Y-62500D02*
X80891Y-62500D01*
X81041Y-62716D02*
X81025Y-62683D01*
X81008Y-62666D01*
X80975Y-62649D01*
X80958Y-62649D01*
X80925Y-62666D01*
X80908Y-62683D01*
X80891Y-62716D01*
X80891Y-62783D01*
X80908Y-62816D01*
X80925Y-62833D01*
X80958Y-62849D01*
X80975Y-62849D01*
X81008Y-62833D01*
X81025Y-62816D01*
X81041Y-62783D01*
X81041Y-62716D01*
X81058Y-62683D01*
X81075Y-62666D01*
X81108Y-62649D01*
X81175Y-62649D01*
X81208Y-62666D01*
X81225Y-62683D01*
X81241Y-62716D01*
X81241Y-62783D01*
X81225Y-62816D01*
X81208Y-62833D01*
X81175Y-62849D01*
X81108Y-62849D01*
X81075Y-62833D01*
X81058Y-62816D01*
X81041Y-62783D01*
X81008Y-63150D02*
X81241Y-63150D01*
X80875Y-63066D02*
X81125Y-62983D01*
X81125Y-63200D01*
X80891Y-63400D02*
X80891Y-63433D01*
X80908Y-63466D01*
X80925Y-63483D01*
X80958Y-63500D01*
X81025Y-63516D01*
X81108Y-63516D01*
X81175Y-63500D01*
X81208Y-63483D01*
X81225Y-63466D01*
X81241Y-63433D01*
X81241Y-63400D01*
X81225Y-63366D01*
X81208Y-63350D01*
X81175Y-63333D01*
X81108Y-63316D01*
X81025Y-63316D01*
X80958Y-63333D01*
X80925Y-63350D01*
X80908Y-63366D01*
X80891Y-63400D01*
X80891Y-63733D02*
X80891Y-63766D01*
X80908Y-63800D01*
X80925Y-63816D01*
X80958Y-63833D01*
X81025Y-63850D01*
X81108Y-63850D01*
X81175Y-63833D01*
X81208Y-63816D01*
X81225Y-63800D01*
X81241Y-63766D01*
X81241Y-63733D01*
X81225Y-63700D01*
X81208Y-63683D01*
X81175Y-63666D01*
X81108Y-63650D01*
X81025Y-63650D01*
X80958Y-63666D01*
X80925Y-63683D01*
X80908Y-63700D01*
X80891Y-63733D01*
G54D11*
X75092Y-62600D02*
X75107Y-62585D01*
X75121Y-62542D01*
X75121Y-62514D01*
X75107Y-62471D01*
X75078Y-62442D01*
X75050Y-62428D01*
X74992Y-62414D01*
X74950Y-62414D01*
X74892Y-62428D01*
X74864Y-62442D01*
X74835Y-62471D01*
X74821Y-62514D01*
X74821Y-62542D01*
X74835Y-62585D01*
X74850Y-62600D01*
X75121Y-62728D02*
X74821Y-62728D01*
X75121Y-63028D02*
X75121Y-62857D01*
X75121Y-62942D02*
X74821Y-62942D01*
X74864Y-62914D01*
X74892Y-62885D01*
X74907Y-62857D01*
X75121Y-63285D02*
X74821Y-63285D01*
X75107Y-63285D02*
X75121Y-63257D01*
X75121Y-63200D01*
X75107Y-63171D01*
X75092Y-63157D01*
X75064Y-63142D01*
X74978Y-63142D01*
X74950Y-63157D01*
X74935Y-63171D01*
X74921Y-63200D01*
X74921Y-63257D01*
X74935Y-63285D01*
X75121Y-63585D02*
X75121Y-63414D01*
X75121Y-63500D02*
X74821Y-63500D01*
X74864Y-63471D01*
X74892Y-63442D01*
X74907Y-63414D01*
X74092Y-62607D02*
X74107Y-62592D01*
X74121Y-62550D01*
X74121Y-62521D01*
X74107Y-62478D01*
X74078Y-62450D01*
X74050Y-62435D01*
X73992Y-62421D01*
X73950Y-62421D01*
X73892Y-62435D01*
X73864Y-62450D01*
X73835Y-62478D01*
X73821Y-62521D01*
X73821Y-62550D01*
X73835Y-62592D01*
X73850Y-62607D01*
X74121Y-62735D02*
X73821Y-62735D01*
X74121Y-63035D02*
X74121Y-62864D01*
X74121Y-62950D02*
X73821Y-62950D01*
X73864Y-62921D01*
X73892Y-62892D01*
X73907Y-62864D01*
X74107Y-63292D02*
X74121Y-63264D01*
X74121Y-63207D01*
X74107Y-63178D01*
X74092Y-63164D01*
X74064Y-63150D01*
X73978Y-63150D01*
X73950Y-63164D01*
X73935Y-63178D01*
X73921Y-63207D01*
X73921Y-63264D01*
X73935Y-63292D01*
X74121Y-63578D02*
X74121Y-63407D01*
X74121Y-63492D02*
X73821Y-63492D01*
X73864Y-63464D01*
X73892Y-63435D01*
X73907Y-63407D01*
X84342Y-62600D02*
X84357Y-62585D01*
X84371Y-62542D01*
X84371Y-62514D01*
X84357Y-62471D01*
X84328Y-62442D01*
X84300Y-62428D01*
X84242Y-62414D01*
X84200Y-62414D01*
X84142Y-62428D01*
X84114Y-62442D01*
X84085Y-62471D01*
X84071Y-62514D01*
X84071Y-62542D01*
X84085Y-62585D01*
X84100Y-62600D01*
X84371Y-62728D02*
X84071Y-62728D01*
X84371Y-63028D02*
X84371Y-62857D01*
X84371Y-62942D02*
X84071Y-62942D01*
X84114Y-62914D01*
X84142Y-62885D01*
X84157Y-62857D01*
X84371Y-63157D02*
X84071Y-63157D01*
X84185Y-63157D02*
X84171Y-63185D01*
X84171Y-63242D01*
X84185Y-63271D01*
X84200Y-63285D01*
X84228Y-63300D01*
X84314Y-63300D01*
X84342Y-63285D01*
X84357Y-63271D01*
X84371Y-63242D01*
X84371Y-63185D01*
X84357Y-63157D01*
X84371Y-63585D02*
X84371Y-63414D01*
X84371Y-63500D02*
X84071Y-63500D01*
X84114Y-63471D01*
X84142Y-63442D01*
X84157Y-63414D01*
X85342Y-62600D02*
X85357Y-62585D01*
X85371Y-62542D01*
X85371Y-62514D01*
X85357Y-62471D01*
X85328Y-62442D01*
X85300Y-62428D01*
X85242Y-62414D01*
X85200Y-62414D01*
X85142Y-62428D01*
X85114Y-62442D01*
X85085Y-62471D01*
X85071Y-62514D01*
X85071Y-62542D01*
X85085Y-62585D01*
X85100Y-62600D01*
X85371Y-62728D02*
X85071Y-62728D01*
X85371Y-63028D02*
X85371Y-62857D01*
X85371Y-62942D02*
X85071Y-62942D01*
X85114Y-62914D01*
X85142Y-62885D01*
X85157Y-62857D01*
X85371Y-63285D02*
X85214Y-63285D01*
X85185Y-63271D01*
X85171Y-63242D01*
X85171Y-63185D01*
X85185Y-63157D01*
X85357Y-63285D02*
X85371Y-63257D01*
X85371Y-63185D01*
X85357Y-63157D01*
X85328Y-63142D01*
X85300Y-63142D01*
X85271Y-63157D01*
X85257Y-63185D01*
X85257Y-63257D01*
X85242Y-63285D01*
X85371Y-63585D02*
X85371Y-63414D01*
X85371Y-63500D02*
X85071Y-63500D01*
X85114Y-63471D01*
X85142Y-63442D01*
X85157Y-63414D01*
G54D14*
X80974Y-53113D02*
X81003Y-53098D01*
X81031Y-53070D01*
X81074Y-53027D01*
X81103Y-53013D01*
X81131Y-53013D01*
X81117Y-53084D02*
X81146Y-53070D01*
X81174Y-53041D01*
X81189Y-52984D01*
X81189Y-52884D01*
X81174Y-52827D01*
X81146Y-52798D01*
X81117Y-52784D01*
X81060Y-52784D01*
X81031Y-52798D01*
X81003Y-52827D01*
X80989Y-52884D01*
X80989Y-52984D01*
X81003Y-53041D01*
X81031Y-53070D01*
X81060Y-53084D01*
X81117Y-53084D01*
X80860Y-52884D02*
X80860Y-53184D01*
X80860Y-52898D02*
X80831Y-52884D01*
X80774Y-52884D01*
X80746Y-52898D01*
X80731Y-52913D01*
X80717Y-52941D01*
X80717Y-53027D01*
X80731Y-53055D01*
X80746Y-53070D01*
X80774Y-53084D01*
X80831Y-53084D01*
X80860Y-53070D01*
X80588Y-52884D02*
X80588Y-53084D01*
X80588Y-52913D02*
X80574Y-52898D01*
X80546Y-52884D01*
X80503Y-52884D01*
X80474Y-52898D01*
X80460Y-52927D01*
X80460Y-53084D01*
X80317Y-52884D02*
X80317Y-53184D01*
X80317Y-52898D02*
X80288Y-52884D01*
X80231Y-52884D01*
X80203Y-52898D01*
X80188Y-52913D01*
X80174Y-52941D01*
X80174Y-53027D01*
X80188Y-53055D01*
X80203Y-53070D01*
X80231Y-53084D01*
X80288Y-53084D01*
X80317Y-53070D01*
X79888Y-53084D02*
X80060Y-53084D01*
X79974Y-53084D02*
X79974Y-52784D01*
X80003Y-52827D01*
X80031Y-52855D01*
X80060Y-52870D01*
G54D15*
X80579Y-53467D02*
X80382Y-53467D01*
X80579Y-53579D01*
X80382Y-53579D01*
X80579Y-53673D02*
X80382Y-53673D01*
X80382Y-53748D01*
X80392Y-53767D01*
X80401Y-53776D01*
X80420Y-53785D01*
X80448Y-53785D01*
X80467Y-53776D01*
X80476Y-53767D01*
X80485Y-53748D01*
X80485Y-53673D01*
X80579Y-53870D02*
X80382Y-53870D01*
X80579Y-53982D01*
X80382Y-53982D01*
G54D11*
X79150Y-53621D02*
X79250Y-53478D01*
X79321Y-53621D02*
X79321Y-53321D01*
X79207Y-53321D01*
X79178Y-53335D01*
X79164Y-53350D01*
X79150Y-53378D01*
X79150Y-53421D01*
X79164Y-53450D01*
X79178Y-53464D01*
X79207Y-53478D01*
X79321Y-53478D01*
X79021Y-53421D02*
X79021Y-53721D01*
X79021Y-53435D02*
X78992Y-53421D01*
X78935Y-53421D01*
X78907Y-53435D01*
X78892Y-53450D01*
X78878Y-53478D01*
X78878Y-53564D01*
X78892Y-53592D01*
X78907Y-53607D01*
X78935Y-53621D01*
X78992Y-53621D01*
X79021Y-53607D01*
X78778Y-53421D02*
X78721Y-53621D01*
X78664Y-53478D01*
X78607Y-53621D01*
X78549Y-53421D01*
X78435Y-53621D02*
X78435Y-53421D01*
X78435Y-53450D02*
X78421Y-53435D01*
X78392Y-53421D01*
X78349Y-53421D01*
X78321Y-53435D01*
X78307Y-53464D01*
X78307Y-53621D01*
X78307Y-53464D02*
X78292Y-53435D01*
X78264Y-53421D01*
X78221Y-53421D01*
X78192Y-53435D01*
X78178Y-53464D01*
X78178Y-53621D01*
X78035Y-53621D02*
X78035Y-53321D01*
X77964Y-53321D01*
X77921Y-53335D01*
X77892Y-53364D01*
X77878Y-53392D01*
X77864Y-53450D01*
X77864Y-53492D01*
X77878Y-53550D01*
X77892Y-53578D01*
X77921Y-53607D01*
X77964Y-53621D01*
X78035Y-53621D01*
X77735Y-53621D02*
X77735Y-53421D01*
X77735Y-53478D02*
X77721Y-53450D01*
X77707Y-53435D01*
X77678Y-53421D01*
X77649Y-53421D01*
X77578Y-53421D02*
X77507Y-53621D01*
X77435Y-53421D01*
X77164Y-53621D02*
X77335Y-53621D01*
X77250Y-53621D02*
X77250Y-53321D01*
X77278Y-53364D01*
X77307Y-53392D01*
X77335Y-53407D01*
X91842Y-56071D02*
X91857Y-56057D01*
X91871Y-56014D01*
X91871Y-55985D01*
X91857Y-55942D01*
X91828Y-55914D01*
X91800Y-55900D01*
X91742Y-55885D01*
X91700Y-55885D01*
X91642Y-55900D01*
X91614Y-55914D01*
X91585Y-55942D01*
X91571Y-55985D01*
X91571Y-56014D01*
X91585Y-56057D01*
X91600Y-56071D01*
X91571Y-56157D02*
X91871Y-56257D01*
X91571Y-56357D01*
X91871Y-56614D02*
X91871Y-56442D01*
X91871Y-56528D02*
X91571Y-56528D01*
X91614Y-56500D01*
X91642Y-56471D01*
X91657Y-56442D01*
X84842Y-54207D02*
X84857Y-54192D01*
X84871Y-54150D01*
X84871Y-54121D01*
X84857Y-54078D01*
X84828Y-54050D01*
X84800Y-54035D01*
X84742Y-54021D01*
X84700Y-54021D01*
X84642Y-54035D01*
X84614Y-54050D01*
X84585Y-54078D01*
X84571Y-54121D01*
X84571Y-54150D01*
X84585Y-54192D01*
X84600Y-54207D01*
X84671Y-54335D02*
X84971Y-54335D01*
X84685Y-54335D02*
X84671Y-54364D01*
X84671Y-54421D01*
X84685Y-54450D01*
X84700Y-54464D01*
X84728Y-54478D01*
X84814Y-54478D01*
X84842Y-54464D01*
X84857Y-54450D01*
X84871Y-54421D01*
X84871Y-54364D01*
X84857Y-54335D01*
X84671Y-54578D02*
X84871Y-54635D01*
X84728Y-54692D01*
X84871Y-54750D01*
X84671Y-54807D01*
X84871Y-54921D02*
X84671Y-54921D01*
X84700Y-54921D02*
X84685Y-54935D01*
X84671Y-54964D01*
X84671Y-55007D01*
X84685Y-55035D01*
X84714Y-55050D01*
X84871Y-55050D01*
X84714Y-55050D02*
X84685Y-55064D01*
X84671Y-55092D01*
X84671Y-55135D01*
X84685Y-55164D01*
X84714Y-55178D01*
X84871Y-55178D01*
X84871Y-55478D02*
X84871Y-55307D01*
X84871Y-55392D02*
X84571Y-55392D01*
X84614Y-55364D01*
X84642Y-55335D01*
X84657Y-55307D01*
X86121Y-54207D02*
X85978Y-54107D01*
X86121Y-54035D02*
X85821Y-54035D01*
X85821Y-54150D01*
X85835Y-54178D01*
X85850Y-54192D01*
X85878Y-54207D01*
X85921Y-54207D01*
X85950Y-54192D01*
X85964Y-54178D01*
X85978Y-54150D01*
X85978Y-54035D01*
X85921Y-54335D02*
X86221Y-54335D01*
X85935Y-54335D02*
X85921Y-54364D01*
X85921Y-54421D01*
X85935Y-54450D01*
X85950Y-54464D01*
X85978Y-54478D01*
X86064Y-54478D01*
X86092Y-54464D01*
X86107Y-54450D01*
X86121Y-54421D01*
X86121Y-54364D01*
X86107Y-54335D01*
X85921Y-54578D02*
X86121Y-54635D01*
X85978Y-54692D01*
X86121Y-54750D01*
X85921Y-54807D01*
X86121Y-54921D02*
X85921Y-54921D01*
X85950Y-54921D02*
X85935Y-54935D01*
X85921Y-54964D01*
X85921Y-55007D01*
X85935Y-55035D01*
X85964Y-55050D01*
X86121Y-55050D01*
X85964Y-55050D02*
X85935Y-55064D01*
X85921Y-55092D01*
X85921Y-55135D01*
X85935Y-55164D01*
X85964Y-55178D01*
X86121Y-55178D01*
X86121Y-55478D02*
X86121Y-55307D01*
X86121Y-55392D02*
X85821Y-55392D01*
X85864Y-55364D01*
X85892Y-55335D01*
X85907Y-55307D01*
X79121Y-62657D02*
X78978Y-62557D01*
X79121Y-62485D02*
X78821Y-62485D01*
X78821Y-62600D01*
X78835Y-62628D01*
X78850Y-62642D01*
X78878Y-62657D01*
X78921Y-62657D01*
X78950Y-62642D01*
X78964Y-62628D01*
X78978Y-62600D01*
X78978Y-62485D01*
X79121Y-62785D02*
X78821Y-62785D01*
X79121Y-63085D02*
X79121Y-62914D01*
X79121Y-63000D02*
X78821Y-63000D01*
X78864Y-62971D01*
X78892Y-62942D01*
X78907Y-62914D01*
X79107Y-63200D02*
X79121Y-63228D01*
X79121Y-63285D01*
X79107Y-63314D01*
X79078Y-63328D01*
X79064Y-63328D01*
X79035Y-63314D01*
X79021Y-63285D01*
X79021Y-63242D01*
X79007Y-63214D01*
X78978Y-63200D01*
X78964Y-63200D01*
X78935Y-63214D01*
X78921Y-63242D01*
X78921Y-63285D01*
X78935Y-63314D01*
X79107Y-63585D02*
X79121Y-63557D01*
X79121Y-63500D01*
X79107Y-63471D01*
X79092Y-63457D01*
X79064Y-63442D01*
X78978Y-63442D01*
X78950Y-63457D01*
X78935Y-63471D01*
X78921Y-63500D01*
X78921Y-63557D01*
X78935Y-63585D01*
X79121Y-63757D02*
X79107Y-63728D01*
X79078Y-63714D01*
X78821Y-63714D01*
X79121Y-64028D02*
X79121Y-63857D01*
X79121Y-63942D02*
X78821Y-63942D01*
X78864Y-63914D01*
X78892Y-63885D01*
X78907Y-63857D01*
X77871Y-63342D02*
X77728Y-63242D01*
X77871Y-63171D02*
X77571Y-63171D01*
X77571Y-63285D01*
X77585Y-63314D01*
X77600Y-63328D01*
X77628Y-63342D01*
X77671Y-63342D01*
X77700Y-63328D01*
X77714Y-63314D01*
X77728Y-63285D01*
X77728Y-63171D01*
X77871Y-63471D02*
X77571Y-63471D01*
X77871Y-63771D02*
X77871Y-63600D01*
X77871Y-63685D02*
X77571Y-63685D01*
X77614Y-63657D01*
X77642Y-63628D01*
X77657Y-63600D01*
X77857Y-63885D02*
X77871Y-63914D01*
X77871Y-63971D01*
X77857Y-64000D01*
X77828Y-64014D01*
X77814Y-64014D01*
X77785Y-64000D01*
X77771Y-63971D01*
X77771Y-63928D01*
X77757Y-63900D01*
X77728Y-63885D01*
X77714Y-63885D01*
X77685Y-63900D01*
X77671Y-63928D01*
X77671Y-63971D01*
X77685Y-64000D01*
X77871Y-64271D02*
X77571Y-64271D01*
X77857Y-64271D02*
X77871Y-64242D01*
X77871Y-64185D01*
X77857Y-64157D01*
X77842Y-64142D01*
X77814Y-64128D01*
X77728Y-64128D01*
X77700Y-64142D01*
X77685Y-64157D01*
X77671Y-64185D01*
X77671Y-64242D01*
X77685Y-64271D01*
X77871Y-64542D02*
X77714Y-64542D01*
X77685Y-64528D01*
X77671Y-64500D01*
X77671Y-64442D01*
X77685Y-64414D01*
X77857Y-64542D02*
X77871Y-64514D01*
X77871Y-64442D01*
X77857Y-64414D01*
X77828Y-64400D01*
X77800Y-64400D01*
X77771Y-64414D01*
X77757Y-64442D01*
X77757Y-64514D01*
X77742Y-64542D01*
X77871Y-64842D02*
X77871Y-64671D01*
X77871Y-64757D02*
X77571Y-64757D01*
X77614Y-64728D01*
X77642Y-64700D01*
X77657Y-64671D01*
M02*
