G04 (created by PCBNEW (22-Jun-2014 BZR 4027)-stable) date Wed 30 Jul 2014 00:04:27 NZST*
%MOIN*%
G04 Gerber Fmt 3.4, Leading zero omitted, Abs format*
%FSLAX34Y34*%
G01*
G70*
G90*
G04 APERTURE LIST*
%ADD10C,0.00590551*%
%ADD11C,0.005*%
%ADD12C,0.015*%
%ADD13C,0.012*%
%ADD14C,0.0031*%
%ADD15C,0.0026*%
%ADD16C,0.004*%
%ADD17C,0.006*%
%ADD18C,0.00875*%
%ADD19C,0.0047*%
%ADD20C,0.0039*%
%ADD21C,0.0107*%
%ADD22C,0.01*%
%ADD23C,0.0035*%
G04 APERTURE END LIST*
G54D10*
G54D11*
X88700Y-64050D02*
X88750Y-64050D01*
X88750Y-64050D02*
X88750Y-61950D01*
X87250Y-61950D02*
X87250Y-64050D01*
X87250Y-64050D02*
X88700Y-64050D01*
X87800Y-64050D02*
X87800Y-63850D01*
X87800Y-63850D02*
X88200Y-63850D01*
X88200Y-63850D02*
X88200Y-64050D01*
X87250Y-61950D02*
X88750Y-61950D01*
X88200Y-45200D02*
X88200Y-45250D01*
X88200Y-45250D02*
X90300Y-45250D01*
X90300Y-43750D02*
X88200Y-43750D01*
X88200Y-43750D02*
X88200Y-45200D01*
X88200Y-44300D02*
X88400Y-44300D01*
X88400Y-44300D02*
X88400Y-44700D01*
X88400Y-44700D02*
X88200Y-44700D01*
X90300Y-43750D02*
X90300Y-45250D01*
X75550Y-58950D02*
X75500Y-58950D01*
X75500Y-58950D02*
X75500Y-61050D01*
X77000Y-61050D02*
X77000Y-58950D01*
X77000Y-58950D02*
X75550Y-58950D01*
X76450Y-58950D02*
X76450Y-59150D01*
X76450Y-59150D02*
X76050Y-59150D01*
X76050Y-59150D02*
X76050Y-58950D01*
X77000Y-61050D02*
X75500Y-61050D01*
X95050Y-64250D02*
X95950Y-64250D01*
X95950Y-64250D02*
X95950Y-63600D01*
X95050Y-62900D02*
X95050Y-62250D01*
X95050Y-62250D02*
X95950Y-62250D01*
X95950Y-62250D02*
X95950Y-62900D01*
X95050Y-63600D02*
X95050Y-64250D01*
X78950Y-58750D02*
X78050Y-58750D01*
X78050Y-58750D02*
X78050Y-59400D01*
X78950Y-60100D02*
X78950Y-60750D01*
X78950Y-60750D02*
X78050Y-60750D01*
X78050Y-60750D02*
X78050Y-60100D01*
X78950Y-59400D02*
X78950Y-58750D01*
X90250Y-47450D02*
X90250Y-46550D01*
X90250Y-46550D02*
X89600Y-46550D01*
X88900Y-47450D02*
X88250Y-47450D01*
X88250Y-47450D02*
X88250Y-46550D01*
X88250Y-46550D02*
X88900Y-46550D01*
X89600Y-47450D02*
X90250Y-47450D01*
X90250Y-48450D02*
X90250Y-47550D01*
X90250Y-47550D02*
X89600Y-47550D01*
X88900Y-48450D02*
X88250Y-48450D01*
X88250Y-48450D02*
X88250Y-47550D01*
X88250Y-47550D02*
X88900Y-47550D01*
X89600Y-48450D02*
X90250Y-48450D01*
X94050Y-64250D02*
X94950Y-64250D01*
X94950Y-64250D02*
X94950Y-63600D01*
X94050Y-62900D02*
X94050Y-62250D01*
X94050Y-62250D02*
X94950Y-62250D01*
X94950Y-62250D02*
X94950Y-62900D01*
X94050Y-63600D02*
X94050Y-64250D01*
X84800Y-64000D02*
X85700Y-64000D01*
X85700Y-64000D02*
X85700Y-63350D01*
X84800Y-62650D02*
X84800Y-62000D01*
X84800Y-62000D02*
X85700Y-62000D01*
X85700Y-62000D02*
X85700Y-62650D01*
X84800Y-63350D02*
X84800Y-64000D01*
X83800Y-64000D02*
X84700Y-64000D01*
X84700Y-64000D02*
X84700Y-63350D01*
X83800Y-62650D02*
X83800Y-62000D01*
X83800Y-62000D02*
X84700Y-62000D01*
X84700Y-62000D02*
X84700Y-62650D01*
X83800Y-63350D02*
X83800Y-64000D01*
G54D12*
X73000Y-51500D02*
X90000Y-51500D01*
X90000Y-51500D02*
X90000Y-56500D01*
X90000Y-56500D02*
X73000Y-56500D01*
X73000Y-56500D02*
X73000Y-51500D01*
X73000Y-54500D02*
X73500Y-54500D01*
X73500Y-54500D02*
X73500Y-53500D01*
X73500Y-53500D02*
X73000Y-53500D01*
G54D13*
X84250Y-46750D02*
X85750Y-46750D01*
X85750Y-46750D02*
X85750Y-43250D01*
X85750Y-43250D02*
X84250Y-43250D01*
X84250Y-43250D02*
X84250Y-46750D01*
X81500Y-46750D02*
X83000Y-46750D01*
X83000Y-46750D02*
X83000Y-43250D01*
X83000Y-43250D02*
X81500Y-43250D01*
X81500Y-43250D02*
X81500Y-46750D01*
X78750Y-46750D02*
X80250Y-46750D01*
X80250Y-46750D02*
X80250Y-43250D01*
X80250Y-43250D02*
X78750Y-43250D01*
X78750Y-43250D02*
X78750Y-46750D01*
G54D14*
X76599Y-44388D02*
G75*
G03X76599Y-44388I-62J0D01*
G74*
G01*
X77500Y-44050D02*
X77500Y-44450D01*
X76475Y-44050D02*
X76475Y-44450D01*
X77500Y-44450D02*
X76475Y-44450D01*
X76475Y-44050D02*
X77500Y-44050D01*
X74025Y-59862D02*
G75*
G03X74025Y-59862I-62J0D01*
G74*
G01*
X73000Y-60200D02*
X73000Y-59800D01*
X74025Y-60200D02*
X74025Y-59800D01*
X73000Y-59800D02*
X74025Y-59800D01*
X74025Y-60200D02*
X73000Y-60200D01*
G54D11*
X80050Y-50000D02*
X80950Y-50000D01*
X80950Y-50000D02*
X80950Y-49350D01*
X80050Y-48650D02*
X80050Y-48000D01*
X80050Y-48000D02*
X80950Y-48000D01*
X80950Y-48000D02*
X80950Y-48650D01*
X80050Y-49350D02*
X80050Y-50000D01*
X81550Y-50000D02*
X82450Y-50000D01*
X82450Y-50000D02*
X82450Y-49350D01*
X81550Y-48650D02*
X81550Y-48000D01*
X81550Y-48000D02*
X82450Y-48000D01*
X82450Y-48000D02*
X82450Y-48650D01*
X81550Y-49350D02*
X81550Y-50000D01*
X83050Y-50000D02*
X83950Y-50000D01*
X83950Y-50000D02*
X83950Y-49350D01*
X83050Y-48650D02*
X83050Y-48000D01*
X83050Y-48000D02*
X83950Y-48000D01*
X83950Y-48000D02*
X83950Y-48650D01*
X83050Y-49350D02*
X83050Y-50000D01*
X77050Y-47250D02*
X77950Y-47250D01*
X77950Y-47250D02*
X77950Y-46600D01*
X77050Y-45900D02*
X77050Y-45250D01*
X77050Y-45250D02*
X77950Y-45250D01*
X77950Y-45250D02*
X77950Y-45900D01*
X77050Y-46600D02*
X77050Y-47250D01*
X83500Y-61450D02*
X83500Y-60550D01*
X83500Y-60550D02*
X82850Y-60550D01*
X82150Y-61450D02*
X81500Y-61450D01*
X81500Y-61450D02*
X81500Y-60550D01*
X81500Y-60550D02*
X82150Y-60550D01*
X82850Y-61450D02*
X83500Y-61450D01*
X75700Y-43000D02*
X74800Y-43000D01*
X74800Y-43000D02*
X74800Y-43650D01*
X75700Y-44350D02*
X75700Y-45000D01*
X75700Y-45000D02*
X74800Y-45000D01*
X74800Y-45000D02*
X74800Y-44350D01*
X75700Y-43650D02*
X75700Y-43000D01*
X76550Y-43000D02*
X77450Y-43000D01*
X77450Y-43000D02*
X77450Y-42350D01*
X76550Y-41650D02*
X76550Y-41000D01*
X76550Y-41000D02*
X77450Y-41000D01*
X77450Y-41000D02*
X77450Y-41650D01*
X76550Y-42350D02*
X76550Y-43000D01*
X75050Y-50000D02*
X75950Y-50000D01*
X75950Y-50000D02*
X75950Y-49350D01*
X75050Y-48650D02*
X75050Y-48000D01*
X75050Y-48000D02*
X75950Y-48000D01*
X75950Y-48000D02*
X75950Y-48650D01*
X75050Y-49350D02*
X75050Y-50000D01*
X73550Y-50000D02*
X74450Y-50000D01*
X74450Y-50000D02*
X74450Y-49350D01*
X73550Y-48650D02*
X73550Y-48000D01*
X73550Y-48000D02*
X74450Y-48000D01*
X74450Y-48000D02*
X74450Y-48650D01*
X73550Y-49350D02*
X73550Y-50000D01*
X90050Y-64250D02*
X90950Y-64250D01*
X90950Y-64250D02*
X90950Y-63600D01*
X90050Y-62900D02*
X90050Y-62250D01*
X90050Y-62250D02*
X90950Y-62250D01*
X90950Y-62250D02*
X90950Y-62900D01*
X90050Y-63600D02*
X90050Y-64250D01*
X91300Y-65000D02*
X92200Y-65000D01*
X92200Y-65000D02*
X92200Y-64350D01*
X91300Y-63650D02*
X91300Y-63000D01*
X91300Y-63000D02*
X92200Y-63000D01*
X92200Y-63000D02*
X92200Y-63650D01*
X91300Y-64350D02*
X91300Y-65000D01*
X84000Y-58700D02*
X84000Y-57800D01*
X84000Y-57800D02*
X83350Y-57800D01*
X82650Y-58700D02*
X82000Y-58700D01*
X82000Y-58700D02*
X82000Y-57800D01*
X82000Y-57800D02*
X82650Y-57800D01*
X83350Y-58700D02*
X84000Y-58700D01*
G54D13*
X87250Y-41250D02*
X87250Y-41250D01*
X87250Y-42250D02*
X87250Y-41250D01*
X87250Y-41250D02*
X87250Y-41250D01*
X87250Y-41250D02*
X91250Y-41250D01*
X91250Y-41250D02*
X91250Y-42250D01*
X91250Y-42250D02*
X87250Y-42250D01*
X88250Y-42250D02*
X88250Y-41250D01*
X96000Y-55250D02*
X96000Y-55250D01*
X95000Y-55250D02*
X96000Y-55250D01*
X96000Y-55250D02*
X96000Y-55250D01*
X96000Y-55250D02*
X96000Y-59250D01*
X96000Y-59250D02*
X95000Y-59250D01*
X95000Y-59250D02*
X95000Y-55250D01*
X95000Y-56250D02*
X96000Y-56250D01*
X75750Y-65500D02*
X75750Y-65500D01*
X76750Y-65500D02*
X75750Y-65500D01*
X75750Y-65500D02*
X75750Y-65500D01*
X75750Y-65500D02*
X75750Y-61500D01*
X75750Y-61500D02*
X76750Y-61500D01*
X76750Y-61500D02*
X76750Y-65500D01*
X76750Y-64500D02*
X75750Y-64500D01*
X92750Y-65500D02*
X92750Y-65500D01*
X93750Y-65500D02*
X92750Y-65500D01*
X92750Y-65500D02*
X92750Y-65500D01*
X92750Y-65500D02*
X92750Y-61500D01*
X92750Y-61500D02*
X93750Y-61500D01*
X93750Y-61500D02*
X93750Y-65500D01*
X93750Y-64500D02*
X92750Y-64500D01*
X84000Y-60000D02*
X84000Y-60000D01*
X84000Y-59000D02*
X84000Y-60000D01*
X84000Y-60000D02*
X84000Y-60000D01*
X84000Y-60000D02*
X80000Y-60000D01*
X80000Y-60000D02*
X80000Y-59000D01*
X80000Y-59000D02*
X84000Y-59000D01*
X83000Y-59000D02*
X83000Y-60000D01*
X78500Y-42250D02*
X78500Y-41250D01*
X78500Y-41250D02*
X80500Y-41250D01*
X80500Y-41250D02*
X80500Y-42250D01*
X80500Y-42250D02*
X78500Y-42250D01*
X71500Y-59000D02*
X72500Y-59000D01*
X72500Y-59000D02*
X72500Y-61000D01*
X72500Y-61000D02*
X71500Y-61000D01*
X71500Y-61000D02*
X71500Y-59000D01*
X81250Y-42250D02*
X81250Y-41250D01*
X81250Y-41250D02*
X83250Y-41250D01*
X83250Y-41250D02*
X83250Y-42250D01*
X83250Y-42250D02*
X81250Y-42250D01*
X84000Y-42250D02*
X84000Y-41250D01*
X84000Y-41250D02*
X86000Y-41250D01*
X86000Y-41250D02*
X86000Y-42250D01*
X86000Y-42250D02*
X84000Y-42250D01*
X94000Y-54750D02*
X93000Y-54750D01*
X93000Y-54750D02*
X93000Y-58250D01*
X93000Y-58250D02*
X94000Y-58250D01*
X94000Y-58250D02*
X94000Y-54750D01*
X93750Y-54750D02*
X94000Y-55000D01*
X93500Y-54750D02*
X93500Y-54250D01*
X93500Y-58250D02*
X93500Y-58750D01*
X92250Y-54750D02*
X91250Y-54750D01*
X91250Y-54750D02*
X91250Y-58250D01*
X91250Y-58250D02*
X92250Y-58250D01*
X92250Y-58250D02*
X92250Y-54750D01*
X92000Y-54750D02*
X92250Y-55000D01*
X91750Y-54750D02*
X91750Y-54250D01*
X91750Y-58250D02*
X91750Y-58750D01*
X92250Y-49250D02*
X91250Y-49250D01*
X91250Y-49250D02*
X91250Y-52750D01*
X91250Y-52750D02*
X92250Y-52750D01*
X92250Y-52750D02*
X92250Y-49250D01*
X92000Y-49250D02*
X92250Y-49500D01*
X91750Y-49250D02*
X91750Y-48750D01*
X91750Y-52750D02*
X91750Y-53250D01*
X94000Y-49250D02*
X93000Y-49250D01*
X93000Y-49250D02*
X93000Y-52750D01*
X93000Y-52750D02*
X94000Y-52750D01*
X94000Y-52750D02*
X94000Y-49250D01*
X93750Y-49250D02*
X94000Y-49500D01*
X93500Y-49250D02*
X93500Y-48750D01*
X93500Y-52750D02*
X93500Y-53250D01*
G54D15*
X74039Y-46789D02*
X74039Y-46711D01*
X74039Y-46711D02*
X73961Y-46711D01*
X73961Y-46789D02*
X73961Y-46711D01*
X74039Y-46789D02*
X73961Y-46789D01*
X74275Y-46573D02*
X74275Y-46436D01*
X74275Y-46436D02*
X74177Y-46436D01*
X74177Y-46573D02*
X74177Y-46436D01*
X74275Y-46573D02*
X74177Y-46573D01*
X74275Y-46436D02*
X74275Y-46396D01*
X74275Y-46396D02*
X73804Y-46396D01*
X73804Y-46436D02*
X73804Y-46396D01*
X74275Y-46436D02*
X73804Y-46436D01*
X73784Y-46436D02*
X73784Y-46396D01*
X73784Y-46396D02*
X73725Y-46396D01*
X73725Y-46436D02*
X73725Y-46396D01*
X73784Y-46436D02*
X73725Y-46436D01*
X74275Y-47104D02*
X74275Y-47064D01*
X74275Y-47064D02*
X73804Y-47064D01*
X73804Y-47104D02*
X73804Y-47064D01*
X74275Y-47104D02*
X73804Y-47104D01*
X73784Y-47104D02*
X73784Y-47064D01*
X73784Y-47064D02*
X73725Y-47064D01*
X73725Y-47104D02*
X73725Y-47064D01*
X73784Y-47104D02*
X73725Y-47104D01*
X74275Y-46573D02*
X74275Y-46514D01*
X74275Y-46514D02*
X74177Y-46514D01*
X74177Y-46573D02*
X74177Y-46514D01*
X74275Y-46573D02*
X74177Y-46573D01*
G54D16*
X74295Y-46140D02*
X74295Y-47360D01*
X74295Y-47360D02*
X73705Y-47360D01*
X73705Y-47360D02*
X73705Y-46140D01*
X73705Y-46140D02*
X74295Y-46140D01*
X74196Y-46965D02*
G75*
G03X74195Y-46533I-196J215D01*
G74*
G01*
X73803Y-46965D02*
G75*
G03X74195Y-46966I196J215D01*
G74*
G01*
X73803Y-46534D02*
G75*
G03X73804Y-46966I196J-215D01*
G74*
G01*
X74196Y-46534D02*
G75*
G03X73804Y-46533I-196J-215D01*
G74*
G01*
G54D15*
X75539Y-46789D02*
X75539Y-46711D01*
X75539Y-46711D02*
X75461Y-46711D01*
X75461Y-46789D02*
X75461Y-46711D01*
X75539Y-46789D02*
X75461Y-46789D01*
X75775Y-46573D02*
X75775Y-46436D01*
X75775Y-46436D02*
X75677Y-46436D01*
X75677Y-46573D02*
X75677Y-46436D01*
X75775Y-46573D02*
X75677Y-46573D01*
X75775Y-46436D02*
X75775Y-46396D01*
X75775Y-46396D02*
X75304Y-46396D01*
X75304Y-46436D02*
X75304Y-46396D01*
X75775Y-46436D02*
X75304Y-46436D01*
X75284Y-46436D02*
X75284Y-46396D01*
X75284Y-46396D02*
X75225Y-46396D01*
X75225Y-46436D02*
X75225Y-46396D01*
X75284Y-46436D02*
X75225Y-46436D01*
X75775Y-47104D02*
X75775Y-47064D01*
X75775Y-47064D02*
X75304Y-47064D01*
X75304Y-47104D02*
X75304Y-47064D01*
X75775Y-47104D02*
X75304Y-47104D01*
X75284Y-47104D02*
X75284Y-47064D01*
X75284Y-47064D02*
X75225Y-47064D01*
X75225Y-47104D02*
X75225Y-47064D01*
X75284Y-47104D02*
X75225Y-47104D01*
X75775Y-46573D02*
X75775Y-46514D01*
X75775Y-46514D02*
X75677Y-46514D01*
X75677Y-46573D02*
X75677Y-46514D01*
X75775Y-46573D02*
X75677Y-46573D01*
G54D16*
X75795Y-46140D02*
X75795Y-47360D01*
X75795Y-47360D02*
X75205Y-47360D01*
X75205Y-47360D02*
X75205Y-46140D01*
X75205Y-46140D02*
X75795Y-46140D01*
X75696Y-46965D02*
G75*
G03X75695Y-46533I-196J215D01*
G74*
G01*
X75303Y-46965D02*
G75*
G03X75695Y-46966I196J215D01*
G74*
G01*
X75303Y-46534D02*
G75*
G03X75304Y-46966I196J-215D01*
G74*
G01*
X75696Y-46534D02*
G75*
G03X75304Y-46533I-196J-215D01*
G74*
G01*
G54D17*
X87200Y-62732D02*
X87200Y-63096D01*
X87221Y-63139D01*
X87242Y-63160D01*
X87285Y-63182D01*
X87371Y-63182D01*
X87414Y-63160D01*
X87435Y-63139D01*
X87457Y-63096D01*
X87457Y-62732D01*
X87671Y-63182D02*
X87671Y-62732D01*
X87864Y-62775D02*
X87885Y-62753D01*
X87928Y-62732D01*
X88035Y-62732D01*
X88078Y-62753D01*
X88100Y-62775D01*
X88121Y-62817D01*
X88121Y-62860D01*
X88100Y-62925D01*
X87842Y-63182D01*
X88121Y-63182D01*
X88525Y-63850D02*
X88541Y-63800D01*
X88541Y-63716D01*
X88525Y-63683D01*
X88508Y-63666D01*
X88475Y-63650D01*
X88441Y-63650D01*
X88408Y-63666D01*
X88391Y-63683D01*
X88375Y-63716D01*
X88358Y-63783D01*
X88341Y-63816D01*
X88325Y-63833D01*
X88291Y-63850D01*
X88258Y-63850D01*
X88225Y-63833D01*
X88208Y-63816D01*
X88191Y-63783D01*
X88191Y-63700D01*
X88208Y-63650D01*
X88541Y-63500D02*
X88191Y-63500D01*
X88341Y-63283D02*
X88325Y-63316D01*
X88308Y-63333D01*
X88275Y-63350D01*
X88258Y-63350D01*
X88225Y-63333D01*
X88208Y-63316D01*
X88191Y-63283D01*
X88191Y-63216D01*
X88208Y-63183D01*
X88225Y-63166D01*
X88258Y-63150D01*
X88275Y-63150D01*
X88308Y-63166D01*
X88325Y-63183D01*
X88341Y-63216D01*
X88341Y-63283D01*
X88358Y-63316D01*
X88375Y-63333D01*
X88408Y-63350D01*
X88475Y-63350D01*
X88508Y-63333D01*
X88525Y-63316D01*
X88541Y-63283D01*
X88541Y-63216D01*
X88525Y-63183D01*
X88508Y-63166D01*
X88475Y-63150D01*
X88408Y-63150D01*
X88375Y-63166D01*
X88358Y-63183D01*
X88341Y-63216D01*
X88308Y-62850D02*
X88541Y-62850D01*
X88175Y-62933D02*
X88425Y-63016D01*
X88425Y-62800D01*
X88191Y-62600D02*
X88191Y-62566D01*
X88208Y-62533D01*
X88225Y-62516D01*
X88258Y-62500D01*
X88325Y-62483D01*
X88408Y-62483D01*
X88475Y-62500D01*
X88508Y-62516D01*
X88525Y-62533D01*
X88541Y-62566D01*
X88541Y-62600D01*
X88525Y-62633D01*
X88508Y-62650D01*
X88475Y-62666D01*
X88408Y-62683D01*
X88325Y-62683D01*
X88258Y-62666D01*
X88225Y-62650D01*
X88208Y-62633D01*
X88191Y-62600D01*
X88191Y-62266D02*
X88191Y-62233D01*
X88208Y-62200D01*
X88225Y-62183D01*
X88258Y-62166D01*
X88325Y-62150D01*
X88408Y-62150D01*
X88475Y-62166D01*
X88508Y-62183D01*
X88525Y-62200D01*
X88541Y-62233D01*
X88541Y-62266D01*
X88525Y-62300D01*
X88508Y-62316D01*
X88475Y-62333D01*
X88408Y-62350D01*
X88325Y-62350D01*
X88258Y-62333D01*
X88225Y-62316D01*
X88208Y-62300D01*
X88191Y-62266D01*
X88575Y-43882D02*
X88575Y-44246D01*
X88596Y-44289D01*
X88617Y-44310D01*
X88660Y-44332D01*
X88746Y-44332D01*
X88789Y-44310D01*
X88810Y-44289D01*
X88832Y-44246D01*
X88832Y-43882D01*
X89046Y-44332D02*
X89046Y-43882D01*
X89517Y-44332D02*
X89367Y-44117D01*
X89260Y-44332D02*
X89260Y-43882D01*
X89432Y-43882D01*
X89475Y-43903D01*
X89496Y-43925D01*
X89517Y-43967D01*
X89517Y-44032D01*
X89496Y-44075D01*
X89475Y-44096D01*
X89432Y-44117D01*
X89260Y-44117D01*
X89946Y-44332D02*
X89689Y-44332D01*
X89817Y-44332D02*
X89817Y-43882D01*
X89775Y-43946D01*
X89732Y-43989D01*
X89689Y-44010D01*
X88399Y-45025D02*
X88449Y-45041D01*
X88533Y-45041D01*
X88566Y-45025D01*
X88583Y-45008D01*
X88599Y-44975D01*
X88599Y-44941D01*
X88583Y-44908D01*
X88566Y-44891D01*
X88533Y-44875D01*
X88466Y-44858D01*
X88433Y-44841D01*
X88416Y-44825D01*
X88399Y-44791D01*
X88399Y-44758D01*
X88416Y-44725D01*
X88433Y-44708D01*
X88466Y-44691D01*
X88549Y-44691D01*
X88599Y-44708D01*
X88750Y-45041D02*
X88750Y-44691D01*
X88966Y-44841D02*
X88933Y-44825D01*
X88916Y-44808D01*
X88899Y-44775D01*
X88899Y-44758D01*
X88916Y-44725D01*
X88933Y-44708D01*
X88966Y-44691D01*
X89033Y-44691D01*
X89066Y-44708D01*
X89083Y-44725D01*
X89099Y-44758D01*
X89099Y-44775D01*
X89083Y-44808D01*
X89066Y-44825D01*
X89033Y-44841D01*
X88966Y-44841D01*
X88933Y-44858D01*
X88916Y-44875D01*
X88899Y-44908D01*
X88899Y-44975D01*
X88916Y-45008D01*
X88933Y-45025D01*
X88966Y-45041D01*
X89033Y-45041D01*
X89066Y-45025D01*
X89083Y-45008D01*
X89099Y-44975D01*
X89099Y-44908D01*
X89083Y-44875D01*
X89066Y-44858D01*
X89033Y-44841D01*
X89400Y-44808D02*
X89400Y-45041D01*
X89316Y-44675D02*
X89233Y-44925D01*
X89450Y-44925D01*
X89650Y-44691D02*
X89683Y-44691D01*
X89716Y-44708D01*
X89733Y-44725D01*
X89750Y-44758D01*
X89766Y-44825D01*
X89766Y-44908D01*
X89750Y-44975D01*
X89733Y-45008D01*
X89716Y-45025D01*
X89683Y-45041D01*
X89650Y-45041D01*
X89616Y-45025D01*
X89600Y-45008D01*
X89583Y-44975D01*
X89566Y-44908D01*
X89566Y-44825D01*
X89583Y-44758D01*
X89600Y-44725D01*
X89616Y-44708D01*
X89650Y-44691D01*
X89983Y-44691D02*
X90016Y-44691D01*
X90050Y-44708D01*
X90066Y-44725D01*
X90083Y-44758D01*
X90100Y-44825D01*
X90100Y-44908D01*
X90083Y-44975D01*
X90066Y-45008D01*
X90050Y-45025D01*
X90016Y-45041D01*
X89983Y-45041D01*
X89950Y-45025D01*
X89933Y-45008D01*
X89916Y-44975D01*
X89900Y-44908D01*
X89900Y-44825D01*
X89916Y-44758D01*
X89933Y-44725D01*
X89950Y-44708D01*
X89983Y-44691D01*
X76332Y-60878D02*
X76696Y-60878D01*
X76739Y-60857D01*
X76760Y-60835D01*
X76782Y-60792D01*
X76782Y-60707D01*
X76760Y-60664D01*
X76739Y-60642D01*
X76696Y-60621D01*
X76332Y-60621D01*
X76782Y-60407D02*
X76332Y-60407D01*
X76782Y-60192D02*
X76332Y-60192D01*
X76782Y-59935D01*
X76332Y-59935D01*
X76653Y-59742D02*
X76653Y-59528D01*
X76782Y-59785D02*
X76332Y-59635D01*
X76782Y-59485D01*
X76782Y-59099D02*
X76782Y-59357D01*
X76782Y-59228D02*
X76332Y-59228D01*
X76396Y-59271D01*
X76439Y-59314D01*
X76460Y-59357D01*
X75891Y-60925D02*
X75891Y-60758D01*
X75991Y-60958D02*
X75641Y-60841D01*
X75991Y-60725D01*
X75991Y-60608D02*
X75641Y-60608D01*
X75641Y-60525D01*
X75658Y-60475D01*
X75691Y-60441D01*
X75725Y-60425D01*
X75791Y-60408D01*
X75841Y-60408D01*
X75908Y-60425D01*
X75941Y-60441D01*
X75975Y-60475D01*
X75991Y-60525D01*
X75991Y-60608D01*
X75791Y-60208D02*
X75775Y-60241D01*
X75758Y-60258D01*
X75725Y-60275D01*
X75708Y-60275D01*
X75675Y-60258D01*
X75658Y-60241D01*
X75641Y-60208D01*
X75641Y-60141D01*
X75658Y-60108D01*
X75675Y-60091D01*
X75708Y-60075D01*
X75725Y-60075D01*
X75758Y-60091D01*
X75775Y-60108D01*
X75791Y-60141D01*
X75791Y-60208D01*
X75808Y-60241D01*
X75825Y-60258D01*
X75858Y-60275D01*
X75925Y-60275D01*
X75958Y-60258D01*
X75975Y-60241D01*
X75991Y-60208D01*
X75991Y-60141D01*
X75975Y-60108D01*
X75958Y-60091D01*
X75925Y-60075D01*
X75858Y-60075D01*
X75825Y-60091D01*
X75808Y-60108D01*
X75791Y-60141D01*
X75675Y-59941D02*
X75658Y-59925D01*
X75641Y-59891D01*
X75641Y-59808D01*
X75658Y-59775D01*
X75675Y-59758D01*
X75708Y-59741D01*
X75741Y-59741D01*
X75791Y-59758D01*
X75991Y-59958D01*
X75991Y-59741D01*
X75641Y-59625D02*
X75641Y-59408D01*
X75775Y-59525D01*
X75775Y-59475D01*
X75791Y-59441D01*
X75808Y-59425D01*
X75841Y-59408D01*
X75925Y-59408D01*
X75958Y-59425D01*
X75975Y-59441D01*
X75991Y-59475D01*
X75991Y-59575D01*
X75975Y-59608D01*
X75958Y-59625D01*
X75641Y-59108D02*
X75641Y-59175D01*
X75658Y-59208D01*
X75675Y-59225D01*
X75725Y-59258D01*
X75791Y-59275D01*
X75925Y-59275D01*
X75958Y-59258D01*
X75975Y-59241D01*
X75991Y-59208D01*
X75991Y-59141D01*
X75975Y-59108D01*
X75958Y-59091D01*
X75925Y-59075D01*
X75841Y-59075D01*
X75808Y-59091D01*
X75791Y-59108D01*
X75775Y-59141D01*
X75775Y-59208D01*
X75791Y-59241D01*
X75808Y-59258D01*
X75841Y-59275D01*
G54D11*
X95592Y-63650D02*
X95607Y-63664D01*
X95621Y-63707D01*
X95621Y-63735D01*
X95607Y-63778D01*
X95578Y-63807D01*
X95550Y-63821D01*
X95492Y-63835D01*
X95450Y-63835D01*
X95392Y-63821D01*
X95364Y-63807D01*
X95335Y-63778D01*
X95321Y-63735D01*
X95321Y-63707D01*
X95335Y-63664D01*
X95350Y-63650D01*
X95621Y-63521D02*
X95321Y-63521D01*
X95350Y-63392D02*
X95335Y-63378D01*
X95321Y-63350D01*
X95321Y-63278D01*
X95335Y-63250D01*
X95350Y-63235D01*
X95378Y-63221D01*
X95407Y-63221D01*
X95450Y-63235D01*
X95621Y-63407D01*
X95621Y-63221D01*
X95621Y-62964D02*
X95321Y-62964D01*
X95607Y-62964D02*
X95621Y-62992D01*
X95621Y-63050D01*
X95607Y-63078D01*
X95592Y-63092D01*
X95564Y-63107D01*
X95478Y-63107D01*
X95450Y-63092D01*
X95435Y-63078D01*
X95421Y-63050D01*
X95421Y-62992D01*
X95435Y-62964D01*
X95621Y-62664D02*
X95621Y-62835D01*
X95621Y-62750D02*
X95321Y-62750D01*
X95364Y-62778D01*
X95392Y-62807D01*
X95407Y-62835D01*
X78592Y-60157D02*
X78607Y-60171D01*
X78621Y-60214D01*
X78621Y-60242D01*
X78607Y-60285D01*
X78578Y-60314D01*
X78550Y-60328D01*
X78492Y-60342D01*
X78450Y-60342D01*
X78392Y-60328D01*
X78364Y-60314D01*
X78335Y-60285D01*
X78321Y-60242D01*
X78321Y-60214D01*
X78335Y-60171D01*
X78350Y-60157D01*
X78621Y-60028D02*
X78321Y-60028D01*
X78621Y-59885D02*
X78321Y-59885D01*
X78621Y-59714D01*
X78321Y-59714D01*
X78535Y-59585D02*
X78535Y-59442D01*
X78621Y-59614D02*
X78321Y-59514D01*
X78621Y-59414D01*
X78621Y-59157D02*
X78621Y-59328D01*
X78621Y-59242D02*
X78321Y-59242D01*
X78364Y-59271D01*
X78392Y-59300D01*
X78407Y-59328D01*
X88850Y-47092D02*
X88835Y-47107D01*
X88792Y-47121D01*
X88764Y-47121D01*
X88721Y-47107D01*
X88692Y-47078D01*
X88678Y-47050D01*
X88664Y-46992D01*
X88664Y-46950D01*
X88678Y-46892D01*
X88692Y-46864D01*
X88721Y-46835D01*
X88764Y-46821D01*
X88792Y-46821D01*
X88835Y-46835D01*
X88850Y-46850D01*
X88978Y-47121D02*
X88978Y-46821D01*
X89092Y-46821D02*
X89278Y-46821D01*
X89178Y-46935D01*
X89221Y-46935D01*
X89250Y-46950D01*
X89264Y-46964D01*
X89278Y-46992D01*
X89278Y-47064D01*
X89264Y-47092D01*
X89250Y-47107D01*
X89221Y-47121D01*
X89135Y-47121D01*
X89107Y-47107D01*
X89092Y-47092D01*
X89407Y-47121D02*
X89407Y-46821D01*
X89407Y-46935D02*
X89435Y-46921D01*
X89492Y-46921D01*
X89521Y-46935D01*
X89535Y-46950D01*
X89550Y-46978D01*
X89550Y-47064D01*
X89535Y-47092D01*
X89521Y-47107D01*
X89492Y-47121D01*
X89435Y-47121D01*
X89407Y-47107D01*
X89835Y-47121D02*
X89664Y-47121D01*
X89750Y-47121D02*
X89750Y-46821D01*
X89721Y-46864D01*
X89692Y-46892D01*
X89664Y-46907D01*
X88850Y-48092D02*
X88835Y-48107D01*
X88792Y-48121D01*
X88764Y-48121D01*
X88721Y-48107D01*
X88692Y-48078D01*
X88678Y-48050D01*
X88664Y-47992D01*
X88664Y-47950D01*
X88678Y-47892D01*
X88692Y-47864D01*
X88721Y-47835D01*
X88764Y-47821D01*
X88792Y-47821D01*
X88835Y-47835D01*
X88850Y-47850D01*
X88978Y-48121D02*
X88978Y-47821D01*
X89092Y-47821D02*
X89278Y-47821D01*
X89178Y-47935D01*
X89221Y-47935D01*
X89250Y-47950D01*
X89264Y-47964D01*
X89278Y-47992D01*
X89278Y-48064D01*
X89264Y-48092D01*
X89250Y-48107D01*
X89221Y-48121D01*
X89135Y-48121D01*
X89107Y-48107D01*
X89092Y-48092D01*
X89535Y-48121D02*
X89535Y-47964D01*
X89521Y-47935D01*
X89492Y-47921D01*
X89435Y-47921D01*
X89407Y-47935D01*
X89535Y-48107D02*
X89507Y-48121D01*
X89435Y-48121D01*
X89407Y-48107D01*
X89392Y-48078D01*
X89392Y-48050D01*
X89407Y-48021D01*
X89435Y-48007D01*
X89507Y-48007D01*
X89535Y-47992D01*
X89835Y-48121D02*
X89664Y-48121D01*
X89750Y-48121D02*
X89750Y-47821D01*
X89721Y-47864D01*
X89692Y-47892D01*
X89664Y-47907D01*
X94592Y-63642D02*
X94607Y-63657D01*
X94621Y-63700D01*
X94621Y-63728D01*
X94607Y-63771D01*
X94578Y-63800D01*
X94550Y-63814D01*
X94492Y-63828D01*
X94450Y-63828D01*
X94392Y-63814D01*
X94364Y-63800D01*
X94335Y-63771D01*
X94321Y-63728D01*
X94321Y-63700D01*
X94335Y-63657D01*
X94350Y-63642D01*
X94621Y-63514D02*
X94321Y-63514D01*
X94350Y-63385D02*
X94335Y-63371D01*
X94321Y-63342D01*
X94321Y-63271D01*
X94335Y-63242D01*
X94350Y-63228D01*
X94378Y-63214D01*
X94407Y-63214D01*
X94450Y-63228D01*
X94621Y-63400D01*
X94621Y-63214D01*
X94607Y-62957D02*
X94621Y-62985D01*
X94621Y-63042D01*
X94607Y-63071D01*
X94592Y-63085D01*
X94564Y-63100D01*
X94478Y-63100D01*
X94450Y-63085D01*
X94435Y-63071D01*
X94421Y-63042D01*
X94421Y-62985D01*
X94435Y-62957D01*
X94621Y-62671D02*
X94621Y-62842D01*
X94621Y-62757D02*
X94321Y-62757D01*
X94364Y-62785D01*
X94392Y-62814D01*
X94407Y-62842D01*
X85342Y-63400D02*
X85357Y-63414D01*
X85371Y-63457D01*
X85371Y-63485D01*
X85357Y-63528D01*
X85328Y-63557D01*
X85300Y-63571D01*
X85242Y-63585D01*
X85200Y-63585D01*
X85142Y-63571D01*
X85114Y-63557D01*
X85085Y-63528D01*
X85071Y-63485D01*
X85071Y-63457D01*
X85085Y-63414D01*
X85100Y-63400D01*
X85371Y-63271D02*
X85071Y-63271D01*
X85100Y-63142D02*
X85085Y-63128D01*
X85071Y-63100D01*
X85071Y-63028D01*
X85085Y-63000D01*
X85100Y-62985D01*
X85128Y-62971D01*
X85157Y-62971D01*
X85200Y-62985D01*
X85371Y-63157D01*
X85371Y-62971D01*
X85371Y-62842D02*
X85071Y-62842D01*
X85185Y-62842D02*
X85171Y-62814D01*
X85171Y-62757D01*
X85185Y-62728D01*
X85200Y-62714D01*
X85228Y-62700D01*
X85314Y-62700D01*
X85342Y-62714D01*
X85357Y-62728D01*
X85371Y-62757D01*
X85371Y-62814D01*
X85357Y-62842D01*
X85371Y-62414D02*
X85371Y-62585D01*
X85371Y-62500D02*
X85071Y-62500D01*
X85114Y-62528D01*
X85142Y-62557D01*
X85157Y-62585D01*
X84342Y-63400D02*
X84357Y-63414D01*
X84371Y-63457D01*
X84371Y-63485D01*
X84357Y-63528D01*
X84328Y-63557D01*
X84300Y-63571D01*
X84242Y-63585D01*
X84200Y-63585D01*
X84142Y-63571D01*
X84114Y-63557D01*
X84085Y-63528D01*
X84071Y-63485D01*
X84071Y-63457D01*
X84085Y-63414D01*
X84100Y-63400D01*
X84371Y-63271D02*
X84071Y-63271D01*
X84100Y-63142D02*
X84085Y-63128D01*
X84071Y-63100D01*
X84071Y-63028D01*
X84085Y-63000D01*
X84100Y-62985D01*
X84128Y-62971D01*
X84157Y-62971D01*
X84200Y-62985D01*
X84371Y-63157D01*
X84371Y-62971D01*
X84371Y-62714D02*
X84214Y-62714D01*
X84185Y-62728D01*
X84171Y-62757D01*
X84171Y-62814D01*
X84185Y-62842D01*
X84357Y-62714D02*
X84371Y-62742D01*
X84371Y-62814D01*
X84357Y-62842D01*
X84328Y-62857D01*
X84300Y-62857D01*
X84271Y-62842D01*
X84257Y-62814D01*
X84257Y-62742D01*
X84242Y-62714D01*
X84371Y-62414D02*
X84371Y-62585D01*
X84371Y-62500D02*
X84071Y-62500D01*
X84114Y-62528D01*
X84142Y-62557D01*
X84157Y-62585D01*
G54D13*
X75300Y-52083D02*
X75300Y-52650D01*
X75333Y-52716D01*
X75366Y-52750D01*
X75433Y-52783D01*
X75566Y-52783D01*
X75633Y-52750D01*
X75666Y-52716D01*
X75700Y-52650D01*
X75700Y-52083D01*
X76333Y-52316D02*
X76333Y-52783D01*
X76033Y-52316D02*
X76033Y-52683D01*
X76066Y-52750D01*
X76133Y-52783D01*
X76233Y-52783D01*
X76300Y-52750D01*
X76333Y-52716D01*
X77066Y-52716D02*
X77033Y-52750D01*
X76933Y-52783D01*
X76866Y-52783D01*
X76766Y-52750D01*
X76700Y-52683D01*
X76666Y-52616D01*
X76633Y-52483D01*
X76633Y-52383D01*
X76666Y-52250D01*
X76700Y-52183D01*
X76766Y-52116D01*
X76866Y-52083D01*
X76933Y-52083D01*
X77033Y-52116D01*
X77066Y-52150D01*
X77733Y-52783D02*
X77333Y-52783D01*
X77533Y-52783D02*
X77533Y-52083D01*
X77466Y-52183D01*
X77400Y-52250D01*
X77333Y-52283D01*
X78033Y-55333D02*
X78366Y-55333D01*
X77966Y-55533D02*
X78199Y-54833D01*
X78433Y-55533D01*
X79066Y-55533D02*
X78833Y-55200D01*
X78666Y-55533D02*
X78666Y-54833D01*
X78933Y-54833D01*
X78999Y-54866D01*
X79033Y-54900D01*
X79066Y-54966D01*
X79066Y-55066D01*
X79033Y-55133D01*
X78999Y-55166D01*
X78933Y-55200D01*
X78666Y-55200D01*
X79366Y-55533D02*
X79366Y-54833D01*
X79533Y-54833D01*
X79633Y-54866D01*
X79699Y-54933D01*
X79733Y-55000D01*
X79766Y-55133D01*
X79766Y-55233D01*
X79733Y-55366D01*
X79699Y-55433D01*
X79633Y-55500D01*
X79533Y-55533D01*
X79366Y-55533D01*
X80066Y-54833D02*
X80066Y-55400D01*
X80099Y-55466D01*
X80133Y-55500D01*
X80199Y-55533D01*
X80333Y-55533D01*
X80399Y-55500D01*
X80433Y-55466D01*
X80466Y-55400D01*
X80466Y-54833D01*
X80799Y-55533D02*
X80799Y-54833D01*
X81133Y-55533D02*
X81133Y-54833D01*
X81533Y-55533D01*
X81533Y-54833D01*
X82000Y-54833D02*
X82133Y-54833D01*
X82200Y-54866D01*
X82266Y-54933D01*
X82300Y-55066D01*
X82300Y-55300D01*
X82266Y-55433D01*
X82200Y-55500D01*
X82133Y-55533D01*
X82000Y-55533D01*
X81933Y-55500D01*
X81866Y-55433D01*
X81833Y-55300D01*
X81833Y-55066D01*
X81866Y-54933D01*
X81933Y-54866D01*
X82000Y-54833D01*
X82433Y-55600D02*
X82966Y-55600D01*
X83133Y-55533D02*
X83133Y-54833D01*
X83533Y-55533D01*
X83533Y-54833D01*
X84166Y-55533D02*
X84166Y-55166D01*
X84133Y-55100D01*
X84066Y-55066D01*
X83933Y-55066D01*
X83866Y-55100D01*
X84166Y-55500D02*
X84100Y-55533D01*
X83933Y-55533D01*
X83866Y-55500D01*
X83833Y-55433D01*
X83833Y-55366D01*
X83866Y-55300D01*
X83933Y-55266D01*
X84100Y-55266D01*
X84166Y-55233D01*
X84500Y-55066D02*
X84500Y-55533D01*
X84500Y-55133D02*
X84533Y-55100D01*
X84600Y-55066D01*
X84700Y-55066D01*
X84766Y-55100D01*
X84800Y-55166D01*
X84800Y-55533D01*
X85233Y-55533D02*
X85166Y-55500D01*
X85133Y-55466D01*
X85100Y-55400D01*
X85100Y-55200D01*
X85133Y-55133D01*
X85166Y-55100D01*
X85233Y-55066D01*
X85333Y-55066D01*
X85400Y-55100D01*
X85433Y-55133D01*
X85466Y-55200D01*
X85466Y-55400D01*
X85433Y-55466D01*
X85400Y-55500D01*
X85333Y-55533D01*
X85233Y-55533D01*
G54D18*
X84291Y-46775D02*
X84291Y-46708D01*
X84308Y-46675D01*
X84341Y-46641D01*
X84408Y-46625D01*
X84525Y-46625D01*
X84591Y-46641D01*
X84625Y-46675D01*
X84641Y-46708D01*
X84641Y-46775D01*
X84625Y-46808D01*
X84591Y-46841D01*
X84525Y-46858D01*
X84408Y-46858D01*
X84341Y-46841D01*
X84308Y-46808D01*
X84291Y-46775D01*
X84608Y-46275D02*
X84625Y-46291D01*
X84641Y-46341D01*
X84641Y-46375D01*
X84625Y-46425D01*
X84591Y-46458D01*
X84558Y-46475D01*
X84491Y-46491D01*
X84441Y-46491D01*
X84375Y-46475D01*
X84341Y-46458D01*
X84308Y-46425D01*
X84291Y-46375D01*
X84291Y-46341D01*
X84308Y-46291D01*
X84325Y-46275D01*
X84641Y-45941D02*
X84641Y-46141D01*
X84641Y-46041D02*
X84291Y-46041D01*
X84341Y-46075D01*
X84375Y-46108D01*
X84391Y-46141D01*
G54D13*
G54D18*
X84641Y-47366D02*
X84291Y-47366D01*
X84291Y-47233D01*
X84308Y-47200D01*
X84325Y-47183D01*
X84358Y-47166D01*
X84408Y-47166D01*
X84441Y-47183D01*
X84458Y-47200D01*
X84475Y-47233D01*
X84475Y-47366D01*
X84608Y-46816D02*
X84625Y-46833D01*
X84641Y-46883D01*
X84641Y-46916D01*
X84625Y-46966D01*
X84591Y-47000D01*
X84558Y-47016D01*
X84491Y-47033D01*
X84441Y-47033D01*
X84375Y-47016D01*
X84341Y-47000D01*
X84308Y-46966D01*
X84291Y-46916D01*
X84291Y-46883D01*
X84308Y-46833D01*
X84325Y-46816D01*
X84441Y-46616D02*
X84425Y-46650D01*
X84408Y-46666D01*
X84375Y-46683D01*
X84358Y-46683D01*
X84325Y-46666D01*
X84308Y-46650D01*
X84291Y-46616D01*
X84291Y-46550D01*
X84308Y-46516D01*
X84325Y-46500D01*
X84358Y-46483D01*
X84375Y-46483D01*
X84408Y-46500D01*
X84425Y-46516D01*
X84441Y-46550D01*
X84441Y-46616D01*
X84458Y-46650D01*
X84475Y-46666D01*
X84508Y-46683D01*
X84575Y-46683D01*
X84608Y-46666D01*
X84625Y-46650D01*
X84641Y-46616D01*
X84641Y-46550D01*
X84625Y-46516D01*
X84608Y-46500D01*
X84575Y-46483D01*
X84508Y-46483D01*
X84475Y-46500D01*
X84458Y-46516D01*
X84441Y-46550D01*
X84641Y-46150D02*
X84641Y-46350D01*
X84641Y-46250D02*
X84291Y-46250D01*
X84341Y-46283D01*
X84375Y-46316D01*
X84391Y-46350D01*
X84291Y-46033D02*
X84291Y-45799D01*
X84641Y-45949D01*
G54D13*
G54D18*
X81541Y-46775D02*
X81541Y-46708D01*
X81558Y-46675D01*
X81591Y-46641D01*
X81658Y-46625D01*
X81775Y-46625D01*
X81841Y-46641D01*
X81875Y-46675D01*
X81891Y-46708D01*
X81891Y-46775D01*
X81875Y-46808D01*
X81841Y-46841D01*
X81775Y-46858D01*
X81658Y-46858D01*
X81591Y-46841D01*
X81558Y-46808D01*
X81541Y-46775D01*
X81858Y-46275D02*
X81875Y-46291D01*
X81891Y-46341D01*
X81891Y-46375D01*
X81875Y-46425D01*
X81841Y-46458D01*
X81808Y-46475D01*
X81741Y-46491D01*
X81691Y-46491D01*
X81625Y-46475D01*
X81591Y-46458D01*
X81558Y-46425D01*
X81541Y-46375D01*
X81541Y-46341D01*
X81558Y-46291D01*
X81575Y-46275D01*
X81575Y-46141D02*
X81558Y-46125D01*
X81541Y-46091D01*
X81541Y-46008D01*
X81558Y-45975D01*
X81575Y-45958D01*
X81608Y-45941D01*
X81641Y-45941D01*
X81691Y-45958D01*
X81891Y-46158D01*
X81891Y-45941D01*
G54D13*
G54D18*
X81891Y-47366D02*
X81541Y-47366D01*
X81541Y-47233D01*
X81558Y-47200D01*
X81575Y-47183D01*
X81608Y-47166D01*
X81658Y-47166D01*
X81691Y-47183D01*
X81708Y-47200D01*
X81725Y-47233D01*
X81725Y-47366D01*
X81858Y-46816D02*
X81875Y-46833D01*
X81891Y-46883D01*
X81891Y-46916D01*
X81875Y-46966D01*
X81841Y-47000D01*
X81808Y-47016D01*
X81741Y-47033D01*
X81691Y-47033D01*
X81625Y-47016D01*
X81591Y-47000D01*
X81558Y-46966D01*
X81541Y-46916D01*
X81541Y-46883D01*
X81558Y-46833D01*
X81575Y-46816D01*
X81691Y-46616D02*
X81675Y-46650D01*
X81658Y-46666D01*
X81625Y-46683D01*
X81608Y-46683D01*
X81575Y-46666D01*
X81558Y-46650D01*
X81541Y-46616D01*
X81541Y-46550D01*
X81558Y-46516D01*
X81575Y-46500D01*
X81608Y-46483D01*
X81625Y-46483D01*
X81658Y-46500D01*
X81675Y-46516D01*
X81691Y-46550D01*
X81691Y-46616D01*
X81708Y-46650D01*
X81725Y-46666D01*
X81758Y-46683D01*
X81825Y-46683D01*
X81858Y-46666D01*
X81875Y-46650D01*
X81891Y-46616D01*
X81891Y-46550D01*
X81875Y-46516D01*
X81858Y-46500D01*
X81825Y-46483D01*
X81758Y-46483D01*
X81725Y-46500D01*
X81708Y-46516D01*
X81691Y-46550D01*
X81891Y-46150D02*
X81891Y-46350D01*
X81891Y-46250D02*
X81541Y-46250D01*
X81591Y-46283D01*
X81625Y-46316D01*
X81641Y-46350D01*
X81541Y-46033D02*
X81541Y-45799D01*
X81891Y-45949D01*
G54D13*
G54D18*
X78791Y-46775D02*
X78791Y-46708D01*
X78808Y-46675D01*
X78841Y-46641D01*
X78908Y-46625D01*
X79025Y-46625D01*
X79091Y-46641D01*
X79125Y-46675D01*
X79141Y-46708D01*
X79141Y-46775D01*
X79125Y-46808D01*
X79091Y-46841D01*
X79025Y-46858D01*
X78908Y-46858D01*
X78841Y-46841D01*
X78808Y-46808D01*
X78791Y-46775D01*
X79108Y-46275D02*
X79125Y-46291D01*
X79141Y-46341D01*
X79141Y-46375D01*
X79125Y-46425D01*
X79091Y-46458D01*
X79058Y-46475D01*
X78991Y-46491D01*
X78941Y-46491D01*
X78875Y-46475D01*
X78841Y-46458D01*
X78808Y-46425D01*
X78791Y-46375D01*
X78791Y-46341D01*
X78808Y-46291D01*
X78825Y-46275D01*
X78791Y-46158D02*
X78791Y-45941D01*
X78925Y-46058D01*
X78925Y-46008D01*
X78941Y-45975D01*
X78958Y-45958D01*
X78991Y-45941D01*
X79075Y-45941D01*
X79108Y-45958D01*
X79125Y-45975D01*
X79141Y-46008D01*
X79141Y-46108D01*
X79125Y-46141D01*
X79108Y-46158D01*
G54D13*
G54D18*
X79141Y-47366D02*
X78791Y-47366D01*
X78791Y-47233D01*
X78808Y-47200D01*
X78825Y-47183D01*
X78858Y-47166D01*
X78908Y-47166D01*
X78941Y-47183D01*
X78958Y-47200D01*
X78975Y-47233D01*
X78975Y-47366D01*
X79108Y-46816D02*
X79125Y-46833D01*
X79141Y-46883D01*
X79141Y-46916D01*
X79125Y-46966D01*
X79091Y-47000D01*
X79058Y-47016D01*
X78991Y-47033D01*
X78941Y-47033D01*
X78875Y-47016D01*
X78841Y-47000D01*
X78808Y-46966D01*
X78791Y-46916D01*
X78791Y-46883D01*
X78808Y-46833D01*
X78825Y-46816D01*
X78941Y-46616D02*
X78925Y-46650D01*
X78908Y-46666D01*
X78875Y-46683D01*
X78858Y-46683D01*
X78825Y-46666D01*
X78808Y-46650D01*
X78791Y-46616D01*
X78791Y-46550D01*
X78808Y-46516D01*
X78825Y-46500D01*
X78858Y-46483D01*
X78875Y-46483D01*
X78908Y-46500D01*
X78925Y-46516D01*
X78941Y-46550D01*
X78941Y-46616D01*
X78958Y-46650D01*
X78975Y-46666D01*
X79008Y-46683D01*
X79075Y-46683D01*
X79108Y-46666D01*
X79125Y-46650D01*
X79141Y-46616D01*
X79141Y-46550D01*
X79125Y-46516D01*
X79108Y-46500D01*
X79075Y-46483D01*
X79008Y-46483D01*
X78975Y-46500D01*
X78958Y-46516D01*
X78941Y-46550D01*
X79141Y-46150D02*
X79141Y-46350D01*
X79141Y-46250D02*
X78791Y-46250D01*
X78841Y-46283D01*
X78875Y-46316D01*
X78891Y-46350D01*
X78791Y-46033D02*
X78791Y-45799D01*
X79141Y-45949D01*
G54D13*
G54D19*
X77937Y-44646D02*
X77922Y-44675D01*
X77894Y-44703D01*
X77851Y-44746D01*
X77837Y-44775D01*
X77837Y-44803D01*
X77908Y-44789D02*
X77894Y-44818D01*
X77865Y-44846D01*
X77808Y-44861D01*
X77708Y-44861D01*
X77651Y-44846D01*
X77622Y-44818D01*
X77608Y-44789D01*
X77608Y-44732D01*
X77622Y-44703D01*
X77651Y-44675D01*
X77708Y-44661D01*
X77808Y-44661D01*
X77865Y-44675D01*
X77894Y-44703D01*
X77908Y-44732D01*
X77908Y-44789D01*
X77708Y-44532D02*
X78008Y-44532D01*
X77722Y-44532D02*
X77708Y-44503D01*
X77708Y-44446D01*
X77722Y-44418D01*
X77737Y-44403D01*
X77765Y-44389D01*
X77851Y-44389D01*
X77879Y-44403D01*
X77894Y-44418D01*
X77908Y-44446D01*
X77908Y-44503D01*
X77894Y-44532D01*
X77708Y-44260D02*
X77908Y-44260D01*
X77737Y-44260D02*
X77722Y-44246D01*
X77708Y-44218D01*
X77708Y-44175D01*
X77722Y-44146D01*
X77751Y-44132D01*
X77908Y-44132D01*
X77708Y-43989D02*
X78008Y-43989D01*
X77722Y-43989D02*
X77708Y-43960D01*
X77708Y-43903D01*
X77722Y-43875D01*
X77737Y-43860D01*
X77765Y-43846D01*
X77851Y-43846D01*
X77879Y-43860D01*
X77894Y-43875D01*
X77908Y-43903D01*
X77908Y-43960D01*
X77894Y-43989D01*
X77908Y-43560D02*
X77908Y-43732D01*
X77908Y-43646D02*
X77608Y-43646D01*
X77651Y-43675D01*
X77679Y-43703D01*
X77694Y-43732D01*
G54D20*
X76767Y-44329D02*
X76767Y-44132D01*
X76879Y-44329D01*
X76879Y-44132D01*
X76973Y-44329D02*
X76973Y-44132D01*
X77048Y-44132D01*
X77067Y-44142D01*
X77076Y-44151D01*
X77085Y-44170D01*
X77085Y-44198D01*
X77076Y-44217D01*
X77067Y-44226D01*
X77048Y-44235D01*
X76973Y-44235D01*
X77170Y-44329D02*
X77170Y-44132D01*
X77282Y-44329D01*
X77282Y-44132D01*
G54D19*
X72834Y-60224D02*
X72691Y-60324D01*
X72834Y-60396D02*
X72534Y-60396D01*
X72534Y-60281D01*
X72548Y-60253D01*
X72563Y-60239D01*
X72591Y-60224D01*
X72634Y-60224D01*
X72663Y-60239D01*
X72677Y-60253D01*
X72691Y-60281D01*
X72691Y-60396D01*
X72634Y-59967D02*
X72877Y-59967D01*
X72905Y-59981D01*
X72920Y-59996D01*
X72934Y-60024D01*
X72934Y-60067D01*
X72920Y-60096D01*
X72820Y-59967D02*
X72834Y-59996D01*
X72834Y-60053D01*
X72820Y-60081D01*
X72805Y-60096D01*
X72777Y-60110D01*
X72691Y-60110D01*
X72663Y-60096D01*
X72648Y-60081D01*
X72634Y-60053D01*
X72634Y-59996D01*
X72648Y-59967D01*
X72834Y-59667D02*
X72834Y-59838D01*
X72834Y-59753D02*
X72534Y-59753D01*
X72577Y-59781D01*
X72605Y-59810D01*
X72620Y-59838D01*
G54D20*
X73442Y-59882D02*
X73348Y-59882D01*
X73338Y-59976D01*
X73348Y-59967D01*
X73367Y-59957D01*
X73414Y-59957D01*
X73432Y-59967D01*
X73442Y-59976D01*
X73451Y-59995D01*
X73451Y-60042D01*
X73442Y-60060D01*
X73432Y-60070D01*
X73414Y-60079D01*
X73367Y-60079D01*
X73348Y-60070D01*
X73338Y-60060D01*
X73535Y-60079D02*
X73535Y-59882D01*
X73554Y-60004D02*
X73611Y-60079D01*
X73611Y-59948D02*
X73535Y-60023D01*
G54D11*
X80621Y-49542D02*
X80478Y-49642D01*
X80621Y-49714D02*
X80321Y-49714D01*
X80321Y-49600D01*
X80335Y-49571D01*
X80350Y-49557D01*
X80378Y-49542D01*
X80421Y-49542D01*
X80450Y-49557D01*
X80464Y-49571D01*
X80478Y-49600D01*
X80478Y-49714D01*
X80621Y-49371D02*
X80607Y-49400D01*
X80592Y-49414D01*
X80564Y-49428D01*
X80478Y-49428D01*
X80450Y-49414D01*
X80435Y-49400D01*
X80421Y-49371D01*
X80421Y-49328D01*
X80435Y-49300D01*
X80450Y-49285D01*
X80478Y-49271D01*
X80564Y-49271D01*
X80592Y-49285D01*
X80607Y-49300D01*
X80621Y-49328D01*
X80621Y-49371D01*
X80421Y-49142D02*
X80721Y-49142D01*
X80435Y-49142D02*
X80421Y-49114D01*
X80421Y-49057D01*
X80435Y-49028D01*
X80450Y-49014D01*
X80478Y-49000D01*
X80564Y-49000D01*
X80592Y-49014D01*
X80607Y-49028D01*
X80621Y-49057D01*
X80621Y-49114D01*
X80607Y-49142D01*
X80421Y-48914D02*
X80421Y-48800D01*
X80321Y-48871D02*
X80578Y-48871D01*
X80607Y-48857D01*
X80621Y-48828D01*
X80621Y-48800D01*
X80621Y-48657D02*
X80607Y-48685D01*
X80592Y-48699D01*
X80564Y-48714D01*
X80478Y-48714D01*
X80450Y-48699D01*
X80435Y-48685D01*
X80421Y-48657D01*
X80421Y-48614D01*
X80435Y-48585D01*
X80450Y-48571D01*
X80478Y-48557D01*
X80564Y-48557D01*
X80592Y-48571D01*
X80607Y-48585D01*
X80621Y-48614D01*
X80621Y-48657D01*
X80321Y-48457D02*
X80321Y-48271D01*
X80435Y-48371D01*
X80435Y-48328D01*
X80450Y-48299D01*
X80464Y-48285D01*
X80492Y-48271D01*
X80564Y-48271D01*
X80592Y-48285D01*
X80607Y-48299D01*
X80621Y-48328D01*
X80621Y-48414D01*
X80607Y-48442D01*
X80592Y-48457D01*
X82121Y-49542D02*
X81978Y-49642D01*
X82121Y-49714D02*
X81821Y-49714D01*
X81821Y-49600D01*
X81835Y-49571D01*
X81850Y-49557D01*
X81878Y-49542D01*
X81921Y-49542D01*
X81950Y-49557D01*
X81964Y-49571D01*
X81978Y-49600D01*
X81978Y-49714D01*
X82121Y-49371D02*
X82107Y-49400D01*
X82092Y-49414D01*
X82064Y-49428D01*
X81978Y-49428D01*
X81950Y-49414D01*
X81935Y-49400D01*
X81921Y-49371D01*
X81921Y-49328D01*
X81935Y-49300D01*
X81950Y-49285D01*
X81978Y-49271D01*
X82064Y-49271D01*
X82092Y-49285D01*
X82107Y-49300D01*
X82121Y-49328D01*
X82121Y-49371D01*
X81921Y-49142D02*
X82221Y-49142D01*
X81935Y-49142D02*
X81921Y-49114D01*
X81921Y-49057D01*
X81935Y-49028D01*
X81950Y-49014D01*
X81978Y-49000D01*
X82064Y-49000D01*
X82092Y-49014D01*
X82107Y-49028D01*
X82121Y-49057D01*
X82121Y-49114D01*
X82107Y-49142D01*
X81921Y-48914D02*
X81921Y-48800D01*
X81821Y-48871D02*
X82078Y-48871D01*
X82107Y-48857D01*
X82121Y-48828D01*
X82121Y-48800D01*
X82121Y-48657D02*
X82107Y-48685D01*
X82092Y-48699D01*
X82064Y-48714D01*
X81978Y-48714D01*
X81950Y-48699D01*
X81935Y-48685D01*
X81921Y-48657D01*
X81921Y-48614D01*
X81935Y-48585D01*
X81950Y-48571D01*
X81978Y-48557D01*
X82064Y-48557D01*
X82092Y-48571D01*
X82107Y-48585D01*
X82121Y-48614D01*
X82121Y-48657D01*
X81850Y-48442D02*
X81835Y-48428D01*
X81821Y-48399D01*
X81821Y-48328D01*
X81835Y-48299D01*
X81850Y-48285D01*
X81878Y-48271D01*
X81907Y-48271D01*
X81950Y-48285D01*
X82121Y-48457D01*
X82121Y-48271D01*
X83621Y-49542D02*
X83478Y-49642D01*
X83621Y-49714D02*
X83321Y-49714D01*
X83321Y-49600D01*
X83335Y-49571D01*
X83350Y-49557D01*
X83378Y-49542D01*
X83421Y-49542D01*
X83450Y-49557D01*
X83464Y-49571D01*
X83478Y-49600D01*
X83478Y-49714D01*
X83621Y-49371D02*
X83607Y-49400D01*
X83592Y-49414D01*
X83564Y-49428D01*
X83478Y-49428D01*
X83450Y-49414D01*
X83435Y-49400D01*
X83421Y-49371D01*
X83421Y-49328D01*
X83435Y-49300D01*
X83450Y-49285D01*
X83478Y-49271D01*
X83564Y-49271D01*
X83592Y-49285D01*
X83607Y-49300D01*
X83621Y-49328D01*
X83621Y-49371D01*
X83421Y-49142D02*
X83721Y-49142D01*
X83435Y-49142D02*
X83421Y-49114D01*
X83421Y-49057D01*
X83435Y-49028D01*
X83450Y-49014D01*
X83478Y-49000D01*
X83564Y-49000D01*
X83592Y-49014D01*
X83607Y-49028D01*
X83621Y-49057D01*
X83621Y-49114D01*
X83607Y-49142D01*
X83421Y-48914D02*
X83421Y-48800D01*
X83321Y-48871D02*
X83578Y-48871D01*
X83607Y-48857D01*
X83621Y-48828D01*
X83621Y-48800D01*
X83621Y-48657D02*
X83607Y-48685D01*
X83592Y-48699D01*
X83564Y-48714D01*
X83478Y-48714D01*
X83450Y-48699D01*
X83435Y-48685D01*
X83421Y-48657D01*
X83421Y-48614D01*
X83435Y-48585D01*
X83450Y-48571D01*
X83478Y-48557D01*
X83564Y-48557D01*
X83592Y-48571D01*
X83607Y-48585D01*
X83621Y-48614D01*
X83621Y-48657D01*
X83621Y-48271D02*
X83621Y-48442D01*
X83621Y-48357D02*
X83321Y-48357D01*
X83364Y-48385D01*
X83392Y-48414D01*
X83407Y-48442D01*
X77621Y-47150D02*
X77478Y-47250D01*
X77621Y-47321D02*
X77321Y-47321D01*
X77321Y-47207D01*
X77335Y-47178D01*
X77350Y-47164D01*
X77378Y-47150D01*
X77421Y-47150D01*
X77450Y-47164D01*
X77464Y-47178D01*
X77478Y-47207D01*
X77478Y-47321D01*
X77421Y-47021D02*
X77721Y-47021D01*
X77435Y-47021D02*
X77421Y-46992D01*
X77421Y-46935D01*
X77435Y-46907D01*
X77450Y-46892D01*
X77478Y-46878D01*
X77564Y-46878D01*
X77592Y-46892D01*
X77607Y-46907D01*
X77621Y-46935D01*
X77621Y-46992D01*
X77607Y-47021D01*
X77421Y-46778D02*
X77621Y-46721D01*
X77478Y-46664D01*
X77621Y-46607D01*
X77421Y-46549D01*
X77621Y-46435D02*
X77421Y-46435D01*
X77450Y-46435D02*
X77435Y-46421D01*
X77421Y-46392D01*
X77421Y-46349D01*
X77435Y-46321D01*
X77464Y-46307D01*
X77621Y-46307D01*
X77464Y-46307D02*
X77435Y-46292D01*
X77421Y-46264D01*
X77421Y-46221D01*
X77435Y-46192D01*
X77464Y-46178D01*
X77621Y-46178D01*
X77621Y-46035D02*
X77321Y-46035D01*
X77321Y-45964D01*
X77335Y-45921D01*
X77364Y-45892D01*
X77392Y-45878D01*
X77450Y-45864D01*
X77492Y-45864D01*
X77550Y-45878D01*
X77578Y-45892D01*
X77607Y-45921D01*
X77621Y-45964D01*
X77621Y-46035D01*
X77621Y-45735D02*
X77421Y-45735D01*
X77478Y-45735D02*
X77450Y-45721D01*
X77435Y-45707D01*
X77421Y-45678D01*
X77421Y-45649D01*
X77421Y-45578D02*
X77621Y-45507D01*
X77421Y-45435D01*
X77621Y-45164D02*
X77621Y-45335D01*
X77621Y-45250D02*
X77321Y-45250D01*
X77364Y-45278D01*
X77392Y-45307D01*
X77407Y-45335D01*
X81692Y-61121D02*
X81592Y-60978D01*
X81521Y-61121D02*
X81521Y-60821D01*
X81635Y-60821D01*
X81664Y-60835D01*
X81678Y-60850D01*
X81692Y-60878D01*
X81692Y-60921D01*
X81678Y-60950D01*
X81664Y-60964D01*
X81635Y-60978D01*
X81521Y-60978D01*
X81821Y-61121D02*
X81821Y-60821D01*
X81950Y-60850D02*
X81964Y-60835D01*
X81992Y-60821D01*
X82064Y-60821D01*
X82092Y-60835D01*
X82107Y-60850D01*
X82121Y-60878D01*
X82121Y-60907D01*
X82107Y-60950D01*
X81935Y-61121D01*
X82121Y-61121D01*
X82421Y-61092D02*
X82407Y-61107D01*
X82364Y-61121D01*
X82335Y-61121D01*
X82292Y-61107D01*
X82264Y-61078D01*
X82250Y-61050D01*
X82235Y-60992D01*
X82235Y-60950D01*
X82250Y-60892D01*
X82264Y-60864D01*
X82292Y-60835D01*
X82335Y-60821D01*
X82364Y-60821D01*
X82407Y-60835D01*
X82421Y-60850D01*
X82535Y-61107D02*
X82564Y-61121D01*
X82621Y-61121D01*
X82650Y-61107D01*
X82664Y-61078D01*
X82664Y-61064D01*
X82650Y-61035D01*
X82621Y-61021D01*
X82578Y-61021D01*
X82550Y-61007D01*
X82535Y-60978D01*
X82535Y-60964D01*
X82550Y-60935D01*
X82578Y-60921D01*
X82621Y-60921D01*
X82650Y-60935D01*
X82921Y-61121D02*
X82921Y-60821D01*
X82921Y-61107D02*
X82892Y-61121D01*
X82835Y-61121D01*
X82807Y-61107D01*
X82792Y-61092D01*
X82778Y-61064D01*
X82778Y-60978D01*
X82792Y-60950D01*
X82807Y-60935D01*
X82835Y-60921D01*
X82892Y-60921D01*
X82921Y-60935D01*
X83192Y-61121D02*
X83192Y-60964D01*
X83178Y-60935D01*
X83150Y-60921D01*
X83092Y-60921D01*
X83064Y-60935D01*
X83192Y-61107D02*
X83164Y-61121D01*
X83092Y-61121D01*
X83064Y-61107D01*
X83050Y-61078D01*
X83050Y-61050D01*
X83064Y-61021D01*
X83092Y-61007D01*
X83164Y-61007D01*
X83192Y-60992D01*
X83492Y-61121D02*
X83321Y-61121D01*
X83407Y-61121D02*
X83407Y-60821D01*
X83378Y-60864D01*
X83350Y-60892D01*
X83321Y-60907D01*
X75342Y-44542D02*
X75357Y-44557D01*
X75371Y-44600D01*
X75371Y-44628D01*
X75357Y-44671D01*
X75328Y-44700D01*
X75300Y-44714D01*
X75242Y-44728D01*
X75200Y-44728D01*
X75142Y-44714D01*
X75114Y-44700D01*
X75085Y-44671D01*
X75071Y-44628D01*
X75071Y-44600D01*
X75085Y-44557D01*
X75100Y-44542D01*
X75171Y-44414D02*
X75471Y-44414D01*
X75185Y-44414D02*
X75171Y-44385D01*
X75171Y-44328D01*
X75185Y-44300D01*
X75200Y-44285D01*
X75228Y-44271D01*
X75314Y-44271D01*
X75342Y-44285D01*
X75357Y-44300D01*
X75371Y-44328D01*
X75371Y-44385D01*
X75357Y-44414D01*
X75171Y-44171D02*
X75371Y-44114D01*
X75228Y-44057D01*
X75371Y-43999D01*
X75171Y-43942D01*
X75371Y-43828D02*
X75171Y-43828D01*
X75200Y-43828D02*
X75185Y-43814D01*
X75171Y-43785D01*
X75171Y-43742D01*
X75185Y-43714D01*
X75214Y-43699D01*
X75371Y-43699D01*
X75214Y-43699D02*
X75185Y-43685D01*
X75171Y-43657D01*
X75171Y-43614D01*
X75185Y-43585D01*
X75214Y-43571D01*
X75371Y-43571D01*
X75371Y-43271D02*
X75371Y-43442D01*
X75371Y-43357D02*
X75071Y-43357D01*
X75114Y-43385D01*
X75142Y-43414D01*
X75157Y-43442D01*
X77121Y-42542D02*
X76978Y-42642D01*
X77121Y-42714D02*
X76821Y-42714D01*
X76821Y-42600D01*
X76835Y-42571D01*
X76850Y-42557D01*
X76878Y-42542D01*
X76921Y-42542D01*
X76950Y-42557D01*
X76964Y-42571D01*
X76978Y-42600D01*
X76978Y-42714D01*
X76921Y-42414D02*
X77221Y-42414D01*
X76935Y-42414D02*
X76921Y-42385D01*
X76921Y-42328D01*
X76935Y-42300D01*
X76950Y-42285D01*
X76978Y-42271D01*
X77064Y-42271D01*
X77092Y-42285D01*
X77107Y-42300D01*
X77121Y-42328D01*
X77121Y-42385D01*
X77107Y-42414D01*
X76921Y-42171D02*
X77121Y-42114D01*
X76978Y-42057D01*
X77121Y-41999D01*
X76921Y-41942D01*
X77121Y-41828D02*
X76921Y-41828D01*
X76950Y-41828D02*
X76935Y-41814D01*
X76921Y-41785D01*
X76921Y-41742D01*
X76935Y-41714D01*
X76964Y-41699D01*
X77121Y-41699D01*
X76964Y-41699D02*
X76935Y-41685D01*
X76921Y-41657D01*
X76921Y-41614D01*
X76935Y-41585D01*
X76964Y-41571D01*
X77121Y-41571D01*
X77121Y-41271D02*
X77121Y-41442D01*
X77121Y-41357D02*
X76821Y-41357D01*
X76864Y-41385D01*
X76892Y-41414D01*
X76907Y-41442D01*
X75621Y-49392D02*
X75478Y-49492D01*
X75621Y-49564D02*
X75321Y-49564D01*
X75321Y-49450D01*
X75335Y-49421D01*
X75350Y-49407D01*
X75378Y-49392D01*
X75421Y-49392D01*
X75450Y-49407D01*
X75464Y-49421D01*
X75478Y-49450D01*
X75478Y-49564D01*
X75621Y-49221D02*
X75607Y-49250D01*
X75578Y-49264D01*
X75321Y-49264D01*
X75607Y-48992D02*
X75621Y-49021D01*
X75621Y-49078D01*
X75607Y-49107D01*
X75578Y-49121D01*
X75464Y-49121D01*
X75435Y-49107D01*
X75421Y-49078D01*
X75421Y-49021D01*
X75435Y-48992D01*
X75464Y-48978D01*
X75492Y-48978D01*
X75521Y-49121D01*
X75621Y-48721D02*
X75321Y-48721D01*
X75607Y-48721D02*
X75621Y-48749D01*
X75621Y-48807D01*
X75607Y-48835D01*
X75592Y-48849D01*
X75564Y-48864D01*
X75478Y-48864D01*
X75450Y-48849D01*
X75435Y-48835D01*
X75421Y-48807D01*
X75421Y-48749D01*
X75435Y-48721D01*
X75621Y-48421D02*
X75621Y-48592D01*
X75621Y-48507D02*
X75321Y-48507D01*
X75364Y-48535D01*
X75392Y-48564D01*
X75407Y-48592D01*
X74121Y-49392D02*
X73978Y-49492D01*
X74121Y-49564D02*
X73821Y-49564D01*
X73821Y-49450D01*
X73835Y-49421D01*
X73850Y-49407D01*
X73878Y-49392D01*
X73921Y-49392D01*
X73950Y-49407D01*
X73964Y-49421D01*
X73978Y-49450D01*
X73978Y-49564D01*
X74121Y-49221D02*
X74107Y-49250D01*
X74078Y-49264D01*
X73821Y-49264D01*
X74107Y-48992D02*
X74121Y-49021D01*
X74121Y-49078D01*
X74107Y-49107D01*
X74078Y-49121D01*
X73964Y-49121D01*
X73935Y-49107D01*
X73921Y-49078D01*
X73921Y-49021D01*
X73935Y-48992D01*
X73964Y-48978D01*
X73992Y-48978D01*
X74021Y-49121D01*
X74121Y-48721D02*
X73821Y-48721D01*
X74107Y-48721D02*
X74121Y-48749D01*
X74121Y-48807D01*
X74107Y-48835D01*
X74092Y-48849D01*
X74064Y-48864D01*
X73978Y-48864D01*
X73950Y-48849D01*
X73935Y-48835D01*
X73921Y-48807D01*
X73921Y-48749D01*
X73935Y-48721D01*
X73850Y-48592D02*
X73835Y-48578D01*
X73821Y-48549D01*
X73821Y-48478D01*
X73835Y-48449D01*
X73850Y-48435D01*
X73878Y-48421D01*
X73907Y-48421D01*
X73950Y-48435D01*
X74121Y-48607D01*
X74121Y-48421D01*
X90621Y-63842D02*
X90478Y-63942D01*
X90621Y-64014D02*
X90321Y-64014D01*
X90321Y-63900D01*
X90335Y-63871D01*
X90350Y-63857D01*
X90378Y-63842D01*
X90421Y-63842D01*
X90450Y-63857D01*
X90464Y-63871D01*
X90478Y-63900D01*
X90478Y-64014D01*
X90621Y-63714D02*
X90321Y-63714D01*
X90350Y-63585D02*
X90335Y-63571D01*
X90321Y-63542D01*
X90321Y-63471D01*
X90335Y-63442D01*
X90350Y-63428D01*
X90378Y-63414D01*
X90407Y-63414D01*
X90450Y-63428D01*
X90621Y-63600D01*
X90621Y-63414D01*
X90607Y-63300D02*
X90621Y-63271D01*
X90621Y-63214D01*
X90607Y-63185D01*
X90578Y-63171D01*
X90564Y-63171D01*
X90535Y-63185D01*
X90521Y-63214D01*
X90521Y-63257D01*
X90507Y-63285D01*
X90478Y-63300D01*
X90464Y-63300D01*
X90435Y-63285D01*
X90421Y-63257D01*
X90421Y-63214D01*
X90435Y-63185D01*
X90607Y-62914D02*
X90621Y-62942D01*
X90621Y-63000D01*
X90607Y-63028D01*
X90592Y-63042D01*
X90564Y-63057D01*
X90478Y-63057D01*
X90450Y-63042D01*
X90435Y-63028D01*
X90421Y-63000D01*
X90421Y-62942D01*
X90435Y-62914D01*
X90621Y-62742D02*
X90607Y-62771D01*
X90578Y-62785D01*
X90321Y-62785D01*
X90621Y-62471D02*
X90621Y-62642D01*
X90621Y-62557D02*
X90321Y-62557D01*
X90364Y-62585D01*
X90392Y-62614D01*
X90407Y-62642D01*
X91871Y-64657D02*
X91728Y-64757D01*
X91871Y-64828D02*
X91571Y-64828D01*
X91571Y-64714D01*
X91585Y-64685D01*
X91600Y-64671D01*
X91628Y-64657D01*
X91671Y-64657D01*
X91700Y-64671D01*
X91714Y-64685D01*
X91728Y-64714D01*
X91728Y-64828D01*
X91871Y-64528D02*
X91571Y-64528D01*
X91600Y-64400D02*
X91585Y-64385D01*
X91571Y-64357D01*
X91571Y-64285D01*
X91585Y-64257D01*
X91600Y-64242D01*
X91628Y-64228D01*
X91657Y-64228D01*
X91700Y-64242D01*
X91871Y-64414D01*
X91871Y-64228D01*
X91857Y-64114D02*
X91871Y-64085D01*
X91871Y-64028D01*
X91857Y-64000D01*
X91828Y-63985D01*
X91814Y-63985D01*
X91785Y-64000D01*
X91771Y-64028D01*
X91771Y-64071D01*
X91757Y-64100D01*
X91728Y-64114D01*
X91714Y-64114D01*
X91685Y-64100D01*
X91671Y-64071D01*
X91671Y-64028D01*
X91685Y-64000D01*
X91871Y-63728D02*
X91571Y-63728D01*
X91857Y-63728D02*
X91871Y-63757D01*
X91871Y-63814D01*
X91857Y-63842D01*
X91842Y-63857D01*
X91814Y-63871D01*
X91728Y-63871D01*
X91700Y-63857D01*
X91685Y-63842D01*
X91671Y-63814D01*
X91671Y-63757D01*
X91685Y-63728D01*
X91871Y-63457D02*
X91714Y-63457D01*
X91685Y-63471D01*
X91671Y-63500D01*
X91671Y-63557D01*
X91685Y-63585D01*
X91857Y-63457D02*
X91871Y-63485D01*
X91871Y-63557D01*
X91857Y-63585D01*
X91828Y-63600D01*
X91800Y-63600D01*
X91771Y-63585D01*
X91757Y-63557D01*
X91757Y-63485D01*
X91742Y-63457D01*
X91871Y-63157D02*
X91871Y-63328D01*
X91871Y-63242D02*
X91571Y-63242D01*
X91614Y-63271D01*
X91642Y-63300D01*
X91657Y-63328D01*
X82257Y-58371D02*
X82157Y-58228D01*
X82085Y-58371D02*
X82085Y-58071D01*
X82200Y-58071D01*
X82228Y-58085D01*
X82242Y-58100D01*
X82257Y-58128D01*
X82257Y-58171D01*
X82242Y-58200D01*
X82228Y-58214D01*
X82200Y-58228D01*
X82085Y-58228D01*
X82385Y-58371D02*
X82385Y-58071D01*
X82514Y-58100D02*
X82528Y-58085D01*
X82557Y-58071D01*
X82628Y-58071D01*
X82657Y-58085D01*
X82671Y-58100D01*
X82685Y-58128D01*
X82685Y-58157D01*
X82671Y-58200D01*
X82500Y-58371D01*
X82685Y-58371D01*
X82985Y-58342D02*
X82971Y-58357D01*
X82928Y-58371D01*
X82900Y-58371D01*
X82857Y-58357D01*
X82828Y-58328D01*
X82814Y-58300D01*
X82800Y-58242D01*
X82800Y-58200D01*
X82814Y-58142D01*
X82828Y-58114D01*
X82857Y-58085D01*
X82900Y-58071D01*
X82928Y-58071D01*
X82971Y-58085D01*
X82985Y-58100D01*
X83100Y-58357D02*
X83128Y-58371D01*
X83185Y-58371D01*
X83214Y-58357D01*
X83228Y-58328D01*
X83228Y-58314D01*
X83214Y-58285D01*
X83185Y-58271D01*
X83142Y-58271D01*
X83114Y-58257D01*
X83100Y-58228D01*
X83100Y-58214D01*
X83114Y-58185D01*
X83142Y-58171D01*
X83185Y-58171D01*
X83214Y-58185D01*
X83485Y-58357D02*
X83457Y-58371D01*
X83400Y-58371D01*
X83371Y-58357D01*
X83357Y-58342D01*
X83342Y-58314D01*
X83342Y-58228D01*
X83357Y-58200D01*
X83371Y-58185D01*
X83400Y-58171D01*
X83457Y-58171D01*
X83485Y-58185D01*
X83657Y-58371D02*
X83628Y-58357D01*
X83614Y-58328D01*
X83614Y-58071D01*
X83928Y-58371D02*
X83757Y-58371D01*
X83842Y-58371D02*
X83842Y-58071D01*
X83814Y-58114D01*
X83785Y-58142D01*
X83757Y-58157D01*
G54D21*
X88006Y-41026D02*
X88006Y-40343D01*
X88169Y-40343D01*
X88210Y-40375D01*
X88230Y-40408D01*
X88251Y-40473D01*
X88251Y-40571D01*
X88230Y-40636D01*
X88210Y-40668D01*
X88169Y-40701D01*
X88006Y-40701D01*
X88434Y-41026D02*
X88434Y-40343D01*
X88883Y-41026D02*
X88740Y-40701D01*
X88638Y-41026D02*
X88638Y-40343D01*
X88801Y-40343D01*
X88842Y-40375D01*
X88862Y-40408D01*
X88883Y-40473D01*
X88883Y-40571D01*
X88862Y-40636D01*
X88842Y-40668D01*
X88801Y-40701D01*
X88638Y-40701D01*
X89046Y-40993D02*
X89107Y-41026D01*
X89209Y-41026D01*
X89250Y-40993D01*
X89270Y-40961D01*
X89290Y-40896D01*
X89290Y-40831D01*
X89270Y-40766D01*
X89250Y-40733D01*
X89209Y-40701D01*
X89127Y-40668D01*
X89086Y-40636D01*
X89066Y-40603D01*
X89046Y-40538D01*
X89046Y-40473D01*
X89066Y-40408D01*
X89086Y-40375D01*
X89127Y-40343D01*
X89229Y-40343D01*
X89290Y-40375D01*
X89453Y-40408D02*
X89474Y-40375D01*
X89514Y-40343D01*
X89616Y-40343D01*
X89657Y-40375D01*
X89678Y-40408D01*
X89698Y-40473D01*
X89698Y-40538D01*
X89678Y-40636D01*
X89433Y-41026D01*
X89698Y-41026D01*
X89841Y-40343D02*
X90106Y-40343D01*
X89963Y-40603D01*
X90024Y-40603D01*
X90065Y-40636D01*
X90085Y-40668D01*
X90106Y-40733D01*
X90106Y-40896D01*
X90085Y-40961D01*
X90065Y-40993D01*
X90024Y-41026D01*
X89902Y-41026D01*
X89861Y-40993D01*
X89841Y-40961D01*
X90269Y-40408D02*
X90289Y-40375D01*
X90330Y-40343D01*
X90432Y-40343D01*
X90472Y-40375D01*
X90493Y-40408D01*
X90513Y-40473D01*
X90513Y-40538D01*
X90493Y-40636D01*
X90248Y-41026D01*
X90513Y-41026D01*
G54D13*
G54D21*
X96776Y-58156D02*
X96093Y-58156D01*
X96093Y-57993D01*
X96125Y-57953D01*
X96158Y-57932D01*
X96223Y-57912D01*
X96321Y-57912D01*
X96386Y-57932D01*
X96418Y-57953D01*
X96451Y-57993D01*
X96451Y-58156D01*
X96321Y-57769D02*
X96776Y-57667D01*
X96321Y-57565D01*
X96776Y-57341D02*
X96743Y-57382D01*
X96711Y-57402D01*
X96646Y-57423D01*
X96451Y-57423D01*
X96386Y-57402D01*
X96353Y-57382D01*
X96321Y-57341D01*
X96321Y-57280D01*
X96353Y-57239D01*
X96386Y-57219D01*
X96451Y-57199D01*
X96646Y-57199D01*
X96711Y-57219D01*
X96743Y-57239D01*
X96776Y-57280D01*
X96776Y-57341D01*
X96776Y-56954D02*
X96743Y-56995D01*
X96678Y-57015D01*
X96093Y-57015D01*
X96321Y-56852D02*
X96321Y-56689D01*
X96093Y-56791D02*
X96678Y-56791D01*
X96743Y-56771D01*
X96776Y-56730D01*
X96776Y-56689D01*
X96776Y-56322D02*
X96776Y-56567D01*
X96776Y-56444D02*
X96093Y-56444D01*
X96191Y-56485D01*
X96256Y-56526D01*
X96288Y-56567D01*
G54D13*
G54D21*
X75526Y-63917D02*
X74843Y-63917D01*
X74843Y-63754D01*
X74875Y-63714D01*
X74908Y-63693D01*
X74973Y-63673D01*
X75071Y-63673D01*
X75136Y-63693D01*
X75168Y-63714D01*
X75201Y-63754D01*
X75201Y-63917D01*
X75526Y-63489D02*
X74843Y-63489D01*
X75526Y-63061D02*
X75526Y-63306D01*
X75526Y-63184D02*
X74843Y-63184D01*
X74941Y-63224D01*
X75006Y-63265D01*
X75038Y-63306D01*
G54D13*
G54D21*
X92526Y-63917D02*
X91843Y-63917D01*
X91843Y-63754D01*
X91875Y-63714D01*
X91908Y-63693D01*
X91973Y-63673D01*
X92071Y-63673D01*
X92136Y-63693D01*
X92168Y-63714D01*
X92201Y-63754D01*
X92201Y-63917D01*
X92526Y-63489D02*
X91843Y-63489D01*
X91908Y-63306D02*
X91875Y-63286D01*
X91843Y-63245D01*
X91843Y-63143D01*
X91875Y-63102D01*
X91908Y-63082D01*
X91973Y-63061D01*
X92038Y-63061D01*
X92136Y-63082D01*
X92526Y-63326D01*
X92526Y-63061D01*
G54D13*
G54D21*
X81164Y-60776D02*
X81164Y-60093D01*
X81327Y-60093D01*
X81368Y-60125D01*
X81388Y-60158D01*
X81408Y-60223D01*
X81408Y-60321D01*
X81388Y-60386D01*
X81368Y-60418D01*
X81327Y-60451D01*
X81164Y-60451D01*
X81592Y-60776D02*
X81592Y-60093D01*
X81775Y-60158D02*
X81796Y-60125D01*
X81836Y-60093D01*
X81938Y-60093D01*
X81979Y-60125D01*
X82000Y-60158D01*
X82020Y-60223D01*
X82020Y-60288D01*
X82000Y-60386D01*
X81755Y-60776D01*
X82020Y-60776D01*
X82448Y-60711D02*
X82428Y-60743D01*
X82366Y-60776D01*
X82326Y-60776D01*
X82264Y-60743D01*
X82224Y-60678D01*
X82203Y-60613D01*
X82183Y-60483D01*
X82183Y-60386D01*
X82203Y-60256D01*
X82224Y-60191D01*
X82264Y-60125D01*
X82326Y-60093D01*
X82366Y-60093D01*
X82428Y-60125D01*
X82448Y-60158D01*
X82856Y-60776D02*
X82611Y-60776D01*
X82733Y-60776D02*
X82733Y-60093D01*
X82692Y-60191D01*
X82652Y-60256D01*
X82611Y-60288D01*
G54D13*
G54D21*
X78480Y-41025D02*
X78480Y-40344D01*
X78644Y-40344D01*
X78684Y-40377D01*
X78705Y-40409D01*
X78725Y-40474D01*
X78725Y-40571D01*
X78705Y-40636D01*
X78684Y-40668D01*
X78644Y-40701D01*
X78480Y-40701D01*
X78970Y-41025D02*
X78929Y-40993D01*
X78908Y-40960D01*
X78888Y-40895D01*
X78888Y-40701D01*
X78908Y-40636D01*
X78929Y-40604D01*
X78970Y-40571D01*
X79031Y-40571D01*
X79072Y-40604D01*
X79092Y-40636D01*
X79112Y-40701D01*
X79112Y-40895D01*
X79092Y-40960D01*
X79072Y-40993D01*
X79031Y-41025D01*
X78970Y-41025D01*
X79296Y-40571D02*
X79296Y-41252D01*
X79296Y-40604D02*
X79336Y-40571D01*
X79418Y-40571D01*
X79459Y-40604D01*
X79479Y-40636D01*
X79500Y-40701D01*
X79500Y-40895D01*
X79479Y-40960D01*
X79459Y-40993D01*
X79418Y-41025D01*
X79336Y-41025D01*
X79296Y-40993D01*
X79622Y-40571D02*
X79785Y-40571D01*
X79683Y-40344D02*
X79683Y-40928D01*
X79703Y-40993D01*
X79744Y-41025D01*
X79785Y-41025D01*
X79989Y-41025D02*
X79948Y-40993D01*
X79928Y-40960D01*
X79907Y-40895D01*
X79907Y-40701D01*
X79928Y-40636D01*
X79948Y-40604D01*
X79989Y-40571D01*
X80050Y-40571D01*
X80091Y-40604D01*
X80111Y-40636D01*
X80131Y-40701D01*
X80131Y-40895D01*
X80111Y-40960D01*
X80091Y-40993D01*
X80050Y-41025D01*
X79989Y-41025D01*
X80274Y-40344D02*
X80539Y-40344D01*
X80396Y-40604D01*
X80457Y-40604D01*
X80498Y-40636D01*
X80519Y-40668D01*
X80539Y-40733D01*
X80539Y-40895D01*
X80519Y-40960D01*
X80498Y-40993D01*
X80457Y-41025D01*
X80335Y-41025D01*
X80294Y-40993D01*
X80274Y-40960D01*
G54D13*
G54D21*
X73275Y-61192D02*
X72594Y-61192D01*
X72594Y-61029D01*
X72627Y-60988D01*
X72659Y-60968D01*
X72724Y-60947D01*
X72821Y-60947D01*
X72886Y-60968D01*
X72918Y-60988D01*
X72951Y-61029D01*
X72951Y-61192D01*
X73243Y-60784D02*
X73275Y-60743D01*
X73275Y-60662D01*
X73243Y-60621D01*
X73178Y-60601D01*
X73145Y-60601D01*
X73081Y-60621D01*
X73048Y-60662D01*
X73048Y-60723D01*
X73016Y-60764D01*
X72951Y-60784D01*
X72918Y-60784D01*
X72854Y-60764D01*
X72821Y-60723D01*
X72821Y-60662D01*
X72854Y-60621D01*
X73275Y-60417D02*
X72594Y-60417D01*
X73275Y-60234D02*
X72918Y-60234D01*
X72854Y-60254D01*
X72821Y-60295D01*
X72821Y-60356D01*
X72854Y-60397D01*
X72886Y-60417D01*
X72821Y-59847D02*
X73275Y-59847D01*
X72821Y-60030D02*
X73178Y-60030D01*
X73243Y-60010D01*
X73275Y-59969D01*
X73275Y-59908D01*
X73243Y-59867D01*
X73210Y-59847D01*
X72821Y-59643D02*
X73275Y-59643D01*
X72886Y-59643D02*
X72854Y-59622D01*
X72821Y-59582D01*
X72821Y-59521D01*
X72854Y-59480D01*
X72918Y-59459D01*
X73275Y-59459D01*
X72821Y-59317D02*
X72821Y-59154D01*
X72594Y-59256D02*
X73178Y-59256D01*
X73243Y-59235D01*
X73275Y-59194D01*
X73275Y-59154D01*
X73275Y-58787D02*
X73275Y-59031D01*
X73275Y-58909D02*
X72594Y-58909D01*
X72691Y-58950D01*
X72756Y-58991D01*
X72789Y-59031D01*
G54D13*
G54D21*
X81230Y-41025D02*
X81230Y-40344D01*
X81394Y-40344D01*
X81434Y-40377D01*
X81455Y-40409D01*
X81475Y-40474D01*
X81475Y-40571D01*
X81455Y-40636D01*
X81434Y-40668D01*
X81394Y-40701D01*
X81230Y-40701D01*
X81720Y-41025D02*
X81679Y-40993D01*
X81658Y-40960D01*
X81638Y-40895D01*
X81638Y-40701D01*
X81658Y-40636D01*
X81679Y-40604D01*
X81720Y-40571D01*
X81781Y-40571D01*
X81822Y-40604D01*
X81842Y-40636D01*
X81862Y-40701D01*
X81862Y-40895D01*
X81842Y-40960D01*
X81822Y-40993D01*
X81781Y-41025D01*
X81720Y-41025D01*
X82046Y-40571D02*
X82046Y-41252D01*
X82046Y-40604D02*
X82086Y-40571D01*
X82168Y-40571D01*
X82209Y-40604D01*
X82229Y-40636D01*
X82250Y-40701D01*
X82250Y-40895D01*
X82229Y-40960D01*
X82209Y-40993D01*
X82168Y-41025D01*
X82086Y-41025D01*
X82046Y-40993D01*
X82372Y-40571D02*
X82535Y-40571D01*
X82433Y-40344D02*
X82433Y-40928D01*
X82453Y-40993D01*
X82494Y-41025D01*
X82535Y-41025D01*
X82739Y-41025D02*
X82698Y-40993D01*
X82678Y-40960D01*
X82657Y-40895D01*
X82657Y-40701D01*
X82678Y-40636D01*
X82698Y-40604D01*
X82739Y-40571D01*
X82800Y-40571D01*
X82841Y-40604D01*
X82861Y-40636D01*
X82881Y-40701D01*
X82881Y-40895D01*
X82861Y-40960D01*
X82841Y-40993D01*
X82800Y-41025D01*
X82739Y-41025D01*
X83044Y-40409D02*
X83065Y-40377D01*
X83106Y-40344D01*
X83207Y-40344D01*
X83248Y-40377D01*
X83269Y-40409D01*
X83289Y-40474D01*
X83289Y-40539D01*
X83269Y-40636D01*
X83024Y-41025D01*
X83289Y-41025D01*
G54D13*
G54D21*
X83980Y-41025D02*
X83980Y-40344D01*
X84144Y-40344D01*
X84184Y-40377D01*
X84205Y-40409D01*
X84225Y-40474D01*
X84225Y-40571D01*
X84205Y-40636D01*
X84184Y-40668D01*
X84144Y-40701D01*
X83980Y-40701D01*
X84470Y-41025D02*
X84429Y-40993D01*
X84408Y-40960D01*
X84388Y-40895D01*
X84388Y-40701D01*
X84408Y-40636D01*
X84429Y-40604D01*
X84470Y-40571D01*
X84531Y-40571D01*
X84572Y-40604D01*
X84592Y-40636D01*
X84612Y-40701D01*
X84612Y-40895D01*
X84592Y-40960D01*
X84572Y-40993D01*
X84531Y-41025D01*
X84470Y-41025D01*
X84796Y-40571D02*
X84796Y-41252D01*
X84796Y-40604D02*
X84836Y-40571D01*
X84918Y-40571D01*
X84959Y-40604D01*
X84979Y-40636D01*
X85000Y-40701D01*
X85000Y-40895D01*
X84979Y-40960D01*
X84959Y-40993D01*
X84918Y-41025D01*
X84836Y-41025D01*
X84796Y-40993D01*
X85122Y-40571D02*
X85285Y-40571D01*
X85183Y-40344D02*
X85183Y-40928D01*
X85203Y-40993D01*
X85244Y-41025D01*
X85285Y-41025D01*
X85489Y-41025D02*
X85448Y-40993D01*
X85428Y-40960D01*
X85407Y-40895D01*
X85407Y-40701D01*
X85428Y-40636D01*
X85448Y-40604D01*
X85489Y-40571D01*
X85550Y-40571D01*
X85591Y-40604D01*
X85611Y-40636D01*
X85631Y-40701D01*
X85631Y-40895D01*
X85611Y-40960D01*
X85591Y-40993D01*
X85550Y-41025D01*
X85489Y-41025D01*
X86039Y-41025D02*
X85794Y-41025D01*
X85917Y-41025D02*
X85917Y-40344D01*
X85876Y-40441D01*
X85835Y-40506D01*
X85794Y-40539D01*
G54D13*
G54D22*
X93742Y-57309D02*
X93457Y-57442D01*
X93742Y-57538D02*
X93142Y-57538D01*
X93142Y-57385D01*
X93171Y-57347D01*
X93200Y-57328D01*
X93257Y-57309D01*
X93342Y-57309D01*
X93400Y-57328D01*
X93428Y-57347D01*
X93457Y-57385D01*
X93457Y-57538D01*
X93142Y-57195D02*
X93742Y-57061D01*
X93142Y-56928D01*
X93742Y-56566D02*
X93457Y-56699D01*
X93742Y-56795D02*
X93142Y-56795D01*
X93142Y-56642D01*
X93171Y-56604D01*
X93200Y-56585D01*
X93257Y-56566D01*
X93342Y-56566D01*
X93400Y-56585D01*
X93428Y-56604D01*
X93457Y-56642D01*
X93457Y-56795D01*
X93200Y-56414D02*
X93171Y-56395D01*
X93142Y-56357D01*
X93142Y-56261D01*
X93171Y-56223D01*
X93200Y-56204D01*
X93257Y-56185D01*
X93314Y-56185D01*
X93400Y-56204D01*
X93742Y-56433D01*
X93742Y-56185D01*
X93742Y-56014D02*
X93142Y-56014D01*
X93371Y-56014D02*
X93342Y-55976D01*
X93342Y-55900D01*
X93371Y-55861D01*
X93400Y-55842D01*
X93457Y-55823D01*
X93628Y-55823D01*
X93685Y-55842D01*
X93714Y-55861D01*
X93742Y-55900D01*
X93742Y-55976D01*
X93714Y-56014D01*
X93742Y-55442D02*
X93742Y-55671D01*
X93742Y-55557D02*
X93142Y-55557D01*
X93228Y-55595D01*
X93285Y-55633D01*
X93314Y-55671D01*
G54D13*
G54D22*
X91992Y-57309D02*
X91707Y-57442D01*
X91992Y-57538D02*
X91392Y-57538D01*
X91392Y-57385D01*
X91421Y-57347D01*
X91450Y-57328D01*
X91507Y-57309D01*
X91592Y-57309D01*
X91650Y-57328D01*
X91678Y-57347D01*
X91707Y-57385D01*
X91707Y-57538D01*
X91392Y-57195D02*
X91992Y-57061D01*
X91392Y-56928D01*
X91992Y-56566D02*
X91707Y-56699D01*
X91992Y-56795D02*
X91392Y-56795D01*
X91392Y-56642D01*
X91421Y-56604D01*
X91450Y-56585D01*
X91507Y-56566D01*
X91592Y-56566D01*
X91650Y-56585D01*
X91678Y-56604D01*
X91707Y-56642D01*
X91707Y-56795D01*
X91450Y-56414D02*
X91421Y-56395D01*
X91392Y-56357D01*
X91392Y-56261D01*
X91421Y-56223D01*
X91450Y-56204D01*
X91507Y-56185D01*
X91564Y-56185D01*
X91650Y-56204D01*
X91992Y-56433D01*
X91992Y-56185D01*
X91992Y-55842D02*
X91678Y-55842D01*
X91621Y-55861D01*
X91592Y-55900D01*
X91592Y-55976D01*
X91621Y-56014D01*
X91964Y-55842D02*
X91992Y-55880D01*
X91992Y-55976D01*
X91964Y-56014D01*
X91907Y-56033D01*
X91850Y-56033D01*
X91792Y-56014D01*
X91764Y-55976D01*
X91764Y-55880D01*
X91735Y-55842D01*
X91992Y-55442D02*
X91992Y-55671D01*
X91992Y-55557D02*
X91392Y-55557D01*
X91478Y-55595D01*
X91535Y-55633D01*
X91564Y-55671D01*
G54D13*
G54D22*
X91992Y-51809D02*
X91707Y-51942D01*
X91992Y-52038D02*
X91392Y-52038D01*
X91392Y-51885D01*
X91421Y-51847D01*
X91450Y-51828D01*
X91507Y-51809D01*
X91592Y-51809D01*
X91650Y-51828D01*
X91678Y-51847D01*
X91707Y-51885D01*
X91707Y-52038D01*
X91392Y-51695D02*
X91992Y-51561D01*
X91392Y-51428D01*
X91992Y-51066D02*
X91707Y-51199D01*
X91992Y-51295D02*
X91392Y-51295D01*
X91392Y-51142D01*
X91421Y-51104D01*
X91450Y-51085D01*
X91507Y-51066D01*
X91592Y-51066D01*
X91650Y-51085D01*
X91678Y-51104D01*
X91707Y-51142D01*
X91707Y-51295D01*
X91992Y-50685D02*
X91992Y-50914D01*
X91992Y-50799D02*
X91392Y-50799D01*
X91478Y-50838D01*
X91535Y-50876D01*
X91564Y-50914D01*
X91992Y-50514D02*
X91392Y-50514D01*
X91621Y-50514D02*
X91592Y-50476D01*
X91592Y-50400D01*
X91621Y-50361D01*
X91650Y-50342D01*
X91707Y-50323D01*
X91878Y-50323D01*
X91935Y-50342D01*
X91964Y-50361D01*
X91992Y-50400D01*
X91992Y-50476D01*
X91964Y-50514D01*
X91992Y-49942D02*
X91992Y-50171D01*
X91992Y-50057D02*
X91392Y-50057D01*
X91478Y-50095D01*
X91535Y-50133D01*
X91564Y-50171D01*
G54D13*
G54D22*
X93742Y-51809D02*
X93457Y-51942D01*
X93742Y-52038D02*
X93142Y-52038D01*
X93142Y-51885D01*
X93171Y-51847D01*
X93200Y-51828D01*
X93257Y-51809D01*
X93342Y-51809D01*
X93400Y-51828D01*
X93428Y-51847D01*
X93457Y-51885D01*
X93457Y-52038D01*
X93142Y-51695D02*
X93742Y-51561D01*
X93142Y-51428D01*
X93742Y-51066D02*
X93457Y-51199D01*
X93742Y-51295D02*
X93142Y-51295D01*
X93142Y-51142D01*
X93171Y-51104D01*
X93200Y-51085D01*
X93257Y-51066D01*
X93342Y-51066D01*
X93400Y-51085D01*
X93428Y-51104D01*
X93457Y-51142D01*
X93457Y-51295D01*
X93742Y-50685D02*
X93742Y-50914D01*
X93742Y-50799D02*
X93142Y-50799D01*
X93228Y-50838D01*
X93285Y-50876D01*
X93314Y-50914D01*
X93742Y-50342D02*
X93428Y-50342D01*
X93371Y-50361D01*
X93342Y-50400D01*
X93342Y-50476D01*
X93371Y-50514D01*
X93714Y-50342D02*
X93742Y-50380D01*
X93742Y-50476D01*
X93714Y-50514D01*
X93657Y-50533D01*
X93600Y-50533D01*
X93542Y-50514D01*
X93514Y-50476D01*
X93514Y-50380D01*
X93485Y-50342D01*
X93742Y-49942D02*
X93742Y-50171D01*
X93742Y-50057D02*
X93142Y-50057D01*
X93228Y-50095D01*
X93285Y-50133D01*
X93314Y-50171D01*
G54D13*
G54D23*
X73521Y-47214D02*
X73221Y-47214D01*
X73221Y-47142D01*
X73235Y-47100D01*
X73264Y-47071D01*
X73292Y-47057D01*
X73350Y-47042D01*
X73392Y-47042D01*
X73450Y-47057D01*
X73478Y-47071D01*
X73507Y-47100D01*
X73521Y-47142D01*
X73521Y-47214D01*
X73521Y-46871D02*
X73507Y-46900D01*
X73478Y-46914D01*
X73221Y-46914D01*
X73507Y-46642D02*
X73521Y-46671D01*
X73521Y-46728D01*
X73507Y-46757D01*
X73478Y-46771D01*
X73364Y-46771D01*
X73335Y-46757D01*
X73321Y-46728D01*
X73321Y-46671D01*
X73335Y-46642D01*
X73364Y-46628D01*
X73392Y-46628D01*
X73421Y-46771D01*
X73521Y-46371D02*
X73221Y-46371D01*
X73507Y-46371D02*
X73521Y-46399D01*
X73521Y-46457D01*
X73507Y-46485D01*
X73492Y-46499D01*
X73464Y-46514D01*
X73378Y-46514D01*
X73350Y-46499D01*
X73335Y-46485D01*
X73321Y-46457D01*
X73321Y-46399D01*
X73335Y-46371D01*
X73250Y-46242D02*
X73235Y-46228D01*
X73221Y-46199D01*
X73221Y-46128D01*
X73235Y-46099D01*
X73250Y-46085D01*
X73278Y-46071D01*
X73307Y-46071D01*
X73350Y-46085D01*
X73521Y-46257D01*
X73521Y-46071D01*
X74721Y-46942D02*
X74721Y-47085D01*
X74421Y-47085D01*
X74564Y-46842D02*
X74564Y-46742D01*
X74721Y-46700D02*
X74721Y-46842D01*
X74421Y-46842D01*
X74421Y-46700D01*
X74721Y-46571D02*
X74421Y-46571D01*
X74421Y-46500D01*
X74435Y-46457D01*
X74464Y-46428D01*
X74492Y-46414D01*
X74550Y-46400D01*
X74592Y-46400D01*
X74650Y-46414D01*
X74678Y-46428D01*
X74707Y-46457D01*
X74721Y-46500D01*
X74721Y-46571D01*
X75021Y-47214D02*
X74721Y-47214D01*
X74721Y-47142D01*
X74735Y-47100D01*
X74764Y-47071D01*
X74792Y-47057D01*
X74850Y-47042D01*
X74892Y-47042D01*
X74950Y-47057D01*
X74978Y-47071D01*
X75007Y-47100D01*
X75021Y-47142D01*
X75021Y-47214D01*
X75021Y-46871D02*
X75007Y-46900D01*
X74978Y-46914D01*
X74721Y-46914D01*
X75007Y-46642D02*
X75021Y-46671D01*
X75021Y-46728D01*
X75007Y-46757D01*
X74978Y-46771D01*
X74864Y-46771D01*
X74835Y-46757D01*
X74821Y-46728D01*
X74821Y-46671D01*
X74835Y-46642D01*
X74864Y-46628D01*
X74892Y-46628D01*
X74921Y-46771D01*
X75021Y-46371D02*
X74721Y-46371D01*
X75007Y-46371D02*
X75021Y-46399D01*
X75021Y-46457D01*
X75007Y-46485D01*
X74992Y-46499D01*
X74964Y-46514D01*
X74878Y-46514D01*
X74850Y-46499D01*
X74835Y-46485D01*
X74821Y-46457D01*
X74821Y-46399D01*
X74835Y-46371D01*
X75021Y-46071D02*
X75021Y-46242D01*
X75021Y-46157D02*
X74721Y-46157D01*
X74764Y-46185D01*
X74792Y-46214D01*
X74807Y-46242D01*
X76221Y-46942D02*
X76221Y-47085D01*
X75921Y-47085D01*
X76064Y-46842D02*
X76064Y-46742D01*
X76221Y-46700D02*
X76221Y-46842D01*
X75921Y-46842D01*
X75921Y-46700D01*
X76221Y-46571D02*
X75921Y-46571D01*
X75921Y-46500D01*
X75935Y-46457D01*
X75964Y-46428D01*
X75992Y-46414D01*
X76050Y-46400D01*
X76092Y-46400D01*
X76150Y-46414D01*
X76178Y-46428D01*
X76207Y-46457D01*
X76221Y-46500D01*
X76221Y-46571D01*
M02*
