G04 (created by PCBNEW (22-Jun-2014 BZR 4027)-stable) date Wed 30 Jul 2014 13:09:56 NZST*
%MOIN*%
G04 Gerber Fmt 3.4, Leading zero omitted, Abs format*
%FSLAX34Y34*%
G01*
G70*
G90*
G04 APERTURE LIST*
%ADD10C,0.00590551*%
%ADD11R,0.0551X0.0236*%
%ADD12R,0.0236X0.0551*%
%ADD13R,0.08X0.06*%
%ADD14R,0.06X0.08*%
%ADD15R,0.062X0.09*%
%ADD16O,0.062X0.09*%
%ADD17R,0.08X0.08*%
%ADD18C,0.08*%
%ADD19O,0.08X0.08*%
%ADD20R,0.0315X0.0394*%
%ADD21R,0.055X0.055*%
%ADD22C,0.055*%
%ADD23C,0.06*%
%ADD24R,0.0709X0.0629*%
%ADD25R,0.05X0.015*%
G04 APERTURE END LIST*
G54D10*
G54D11*
X86950Y-63750D03*
X89050Y-63750D03*
X86950Y-63250D03*
X86950Y-62750D03*
X86950Y-62250D03*
X89050Y-63250D03*
X89050Y-62750D03*
X89050Y-62250D03*
G54D12*
X87250Y-44700D03*
X87250Y-46800D03*
X87750Y-44700D03*
X88250Y-44700D03*
X88750Y-44700D03*
X87750Y-46800D03*
X88250Y-46800D03*
X88750Y-46800D03*
G54D13*
X95500Y-63900D03*
X95500Y-62600D03*
X79500Y-59350D03*
X79500Y-60650D03*
G54D14*
X88650Y-48250D03*
X87350Y-48250D03*
X88650Y-49250D03*
X87350Y-49250D03*
G54D13*
X94500Y-63900D03*
X94500Y-62600D03*
X85250Y-63650D03*
X85250Y-62350D03*
X84250Y-63650D03*
X84250Y-62350D03*
G54D15*
X74500Y-57000D03*
G54D16*
X75500Y-57000D03*
X76500Y-57000D03*
X77500Y-57000D03*
X78500Y-57000D03*
X79500Y-57000D03*
X80500Y-57000D03*
X81500Y-57000D03*
X82500Y-57000D03*
X83500Y-57000D03*
X84500Y-57000D03*
X85500Y-57000D03*
X86500Y-57000D03*
X87500Y-57000D03*
X88500Y-57000D03*
X88500Y-51000D03*
X87500Y-51000D03*
X86500Y-51000D03*
X85500Y-51000D03*
X84500Y-51000D03*
X83500Y-51000D03*
X82500Y-51000D03*
X81500Y-51000D03*
X80500Y-51000D03*
X79500Y-51000D03*
X78500Y-51000D03*
X77500Y-51000D03*
X76500Y-51000D03*
X75500Y-51000D03*
X74500Y-51000D03*
G54D17*
X84250Y-47750D03*
G54D18*
X85250Y-47750D03*
G54D19*
X85250Y-44750D03*
X84250Y-44750D03*
G54D17*
X81500Y-47750D03*
G54D18*
X82500Y-47750D03*
G54D19*
X82500Y-44750D03*
X81500Y-44750D03*
G54D17*
X78750Y-47750D03*
G54D18*
X79750Y-47750D03*
G54D19*
X79750Y-44750D03*
X78750Y-44750D03*
G54D20*
X75000Y-60433D03*
X74625Y-59567D03*
X75375Y-59567D03*
G54D14*
X79650Y-49500D03*
X78350Y-49500D03*
X81350Y-49500D03*
X82650Y-49500D03*
X84100Y-49500D03*
X85400Y-49500D03*
X83150Y-61000D03*
X81850Y-61000D03*
G54D13*
X75500Y-49650D03*
X75500Y-48350D03*
X74000Y-49650D03*
X74000Y-48350D03*
X90500Y-63900D03*
X90500Y-62600D03*
X91750Y-64650D03*
X91750Y-63350D03*
G54D14*
X83650Y-58250D03*
X82350Y-58250D03*
G54D21*
X87000Y-43000D03*
G54D22*
X88000Y-43000D03*
X89000Y-43000D03*
X90000Y-43000D03*
G54D21*
X95500Y-55750D03*
G54D22*
X95500Y-56750D03*
X95500Y-57750D03*
X95500Y-58750D03*
G54D21*
X76250Y-65000D03*
G54D22*
X76250Y-64000D03*
X76250Y-63000D03*
X76250Y-62000D03*
G54D21*
X93250Y-65000D03*
G54D22*
X93250Y-64000D03*
X93250Y-63000D03*
X93250Y-62000D03*
G54D21*
X84000Y-59500D03*
G54D22*
X83000Y-59500D03*
X82000Y-59500D03*
X81000Y-59500D03*
G54D21*
X78750Y-43000D03*
G54D22*
X79750Y-43000D03*
G54D21*
X73500Y-59500D03*
G54D22*
X73500Y-60500D03*
G54D21*
X81500Y-43000D03*
G54D22*
X82500Y-43000D03*
G54D21*
X84250Y-43000D03*
G54D22*
X85250Y-43000D03*
G54D23*
X93500Y-54250D03*
X93500Y-58750D03*
X91750Y-54250D03*
X91750Y-58750D03*
X91750Y-47250D03*
X91750Y-51750D03*
X93500Y-47250D03*
X93500Y-51750D03*
G54D24*
X74000Y-47309D03*
X74000Y-46191D03*
X75500Y-47309D03*
X75500Y-46191D03*
G54D25*
X76400Y-59616D03*
X76400Y-59872D03*
X76400Y-60128D03*
X76400Y-60384D03*
X78100Y-60384D03*
X78100Y-60128D03*
X78100Y-59872D03*
X78100Y-59616D03*
M02*
